TexturaLiberaEx.sfdir
StartChar: exclam
Encoding: 33 33 1
Width: 360
Flags: W
HStem: -46 21G<165 205> 626 20G<215 255>
VStem: 134 92<225 428.518>
LayerCount: 2
Back
SplineSet
150 60 m 25
 210 0 l 1049
150 540 m 1
 150 540 167 516 168 500 c 24
 178 383 180 200 180 200 c 1
 180 200 184 383 192 500 c 24
 194 539 210 600 210 600 c 9
 150 540 l 1
EndSplineSet
Fore
SplineSet
104 515 m 1
 235 646 l 1
 256 625 l 1
 256 625 240 564 238 525 c 0
 230 408 226 225 226 225 c 1
 155 154 l 1
 134 175 l 1
 134 175 132 358 122 475 c 0
 121 491 104 515 104 515 c 1
104 35 m 1
 175 106 l 1
 256 25 l 1
 185 -46 l 1
 104 35 l 1
EndSplineSet
EndChar
StartChar: dollar
Encoding: 36 36 4
Width: 720
Flags: W
HStem: -196 21G<315 355> -46 21G<15 71 406 475> -16 100<176.974 314> 4 92<119.681 311.441> 504 92<408.559 600.319> 516 100<406 543.026> 626 20G<245 314 649 705>
VStem: 74 92<382 455> 314 92<-125 -35 84 242 358 516 635 675> 554 92<145 218>
CounterMasks: 1 01c0
LayerCount: 2
Back
SplineSet
360 700 m 25
 360 -150 l 1049
660 600 m 17
 660 600 610 550 570 550 c 24
 440 550 240 600 240 600 c 9
 120 480 l 1
 120 340 l 1
 600 260 l 1
 600 120 l 1
 480 0 l 17
 480 0 280 50 150 50 c 24
 110 50 60 0 60 0 c 1025
EndSplineSet
Fore
SplineSet
706 625 m 1xcbc0
 635 554 l 1
 635 554 585 504 545 504 c 0xcbc0
 503 504 454 509 406 516 c 1
 406 342 l 1
 625 306 l 1
 646 285 l 1
 646 145 l 1
 455 -46 l 1
 455 -46 436 -42 406 -35 c 1
 406 -125 l 1
 335 -196 l 1
 314 -175 l 1
 314 -16 l 1xe7c0
 253 -5 182 4 125 4 c 0
 85 4 35 -46 35 -46 c 1
 14 -25 l 1
 85 46 l 1
 85 46 135 96 175 96 c 0xd3c0
 217 96 266 91 314 84 c 1
 314 258 l 1
 95 294 l 1
 74 315 l 1
 74 455 l 1
 265 646 l 1
 265 646 284 642 314 635 c 1
 314 675 l 1
 385 746 l 1
 406 725 l 1
 406 616 l 1xe7c0
 467 605 538 596 595 596 c 0
 635 596 685 646 685 646 c 1
 706 625 l 1xcbc0
314 532 m 1
 257 543 215 554 215 554 c 2
 214 554 170 509 166 505 c 1
 166 382 l 1
 314 358 l 1
 314 532 l 1
406 68 m 1
 463 57 505 46 505 46 c 2
 554 95 l 1
 554 218 l 1
 406 242 l 1
 406 68 l 1
EndSplineSet
EndChar
StartChar: ampersand
Encoding: 38 38 6
Width: 600
Flags: W
HStem: -46 21G<166.6 235 375 415> 304 92<265 314 406 455> 626 20G<245 313>
VStem: 74 92<87 205 437 455> 314 92<95 304 396 513>
LayerCount: 2
Back
SplineSet
240 350 m 25
 480 350 l 1049
540 120 m 1
 420 0 l 1
 360 60 l 1
 360 550 l 9
 240 600 l 1
 120 480 l 17
 120 400 l 1
 240 350 l 1
 120 230 l 25
 119 50 l 25
 240 0 l 25
 360 120 l 1041
EndSplineSet
Fore
SplineSet
314 53 m 1
 215 -46 l 1
 94 4 l 1
 73 25 l 1
 74 205 l 1
 185 317 l 1
 95 354 l 1
 74 375 l 1
 74 455 l 1
 265 646 l 1
 385 596 l 1
 406 575 l 1
 406 396 l 1
 505 396 l 1
 526 375 l 1
 455 304 l 1
 406 304 l 1
 406 85 l 1
 445 46 l 1
 565 166 l 1
 586 145 l 1
 395 -46 l 1
 314 35 l 1
 314 53 l 1
215 304 m 1
 166 255 l 1
 165 87 l 1
 265 46 l 2
 265 46 310 91 314 95 c 2
 314 304 l 1
 215 304 l 1
314 396 m 1
 314 513 l 1
 215 554 l 2
 215 554 170 509 166 505 c 2
 166 437 l 1
 265 396 l 1
 314 396 l 1
EndSplineSet
EndChar
StartChar: quotesingle
Encoding: 39 39 7
Width: 360
Flags: W
HStem: 344 302
VStem: 74 182
LayerCount: 2
Back
SplineSet
150 600 m 25
 210 540 l 1
 210 480 l 25
 120 390 l 1049
EndSplineSet
Fore
SplineSet
104 575 m 1
 175 646 l 1
 256 565 l 1
 256 505 l 1
 95 344 l 1
 74 365 l 1
 164 455 l 1
 164 515 l 1
 104 575 l 1
EndSplineSet
EndChar
StartChar: slash
Encoding: 47 47 15
Width: 600
Flags: W
HStem: -196 21G<15 55>
LayerCount: 2
Back
SplineSet
60 -150 m 25
 540 700 l 1049
EndSplineSet
Fore
SplineSet
35 -196 m 1
 14 -175 l 1
 494 675 l 1
 565 746 l 1
 586 725 l 1
 106 -125 l 1
 35 -196 l 1
EndSplineSet
EndChar
StartChar: one
Encoding: 49 49 17
Width: 480
Flags: W
HStem: -46 21G<205 265> 426 20G<215 255> 426 20G<215 255>
VStem: 194 92<96 335>
LayerCount: 2
Back
SplineSet
150 60 m 25
 270 0 l 1
 330 60 l 1049
270 340 m 25
 210 400 l 25
 150 340 l 1049
240 370 m 9
 240 30 l 1025
EndSplineSet
Fore
SplineSet
265 416 m 1xd0
 286 395 l 1
 316 365 l 1
 286 335 l 1
 286 55 l 1
 283 52 l 1
 295 46 l 2
 295 46 349 100 355 106 c 1
 376 85 l 1
 245 -46 l 1
 125 14 l 1
 104 35 l 1
 175 106 l 1
 194 96 l 1
 194 345 l 1
 185 354 l 1
 125 294 l 1
 104 315 l 1
 235 446 l 1
 265 416 l 1xd0
EndSplineSet
Substitution2: "Subscript forms-1" one.inferior
Substitution2: "Superscript forms-1" one.superior
EndChar
StartChar: four
Encoding: 52 52 20
Width: 480
Flags: W
HStem: -196 21G<315 355> -46 92<378.509 455> -31 97<376 454.936> -21 92<168.706 284> 426 20G<245 303.4 351 375> 426 20G<245 303.4 351 375>
VStem: 74 92<58 175> 284 92<-85 -31 71 336>
LayerCount: 2
Back
SplineSet
300 -90 m 25
 360 -150 l 1049
330 -120 m 1
 330 400 l 1
 330 400 307 375 288 375 c 27
 268 375 240 400 240 400 c 1
 120 200 l 1
 120 0 l 1
 120 0 137 25 240 25 c 3
 403 25 479 0 480 0 c 1025
EndSplineSet
Fore
SplineSet
166 58 m 1x93
 183 64 213 71 265 71 c 0
 272 71 278 71 284 71 c 1
 284 336 l 1
 277 332 270 329 263 329 c 0
 254 329 244 335 235 340 c 1
 166 225 l 1
 166 58 l 1x93
376 67 m 2
 379 67 381 66 384 66 c 0xab
 465 59 504 46 505 46 c 2
 526 25 l 1
 455 -46 l 2xc3
 454 -46 430 -38 376 -31 c 1xa3
 376 -95 l 1
 406 -125 l 1
 335 -196 l 1
 305 -166 l 1
 284 -145 l 1
 254 -115 l 1
 284 -85 l 1
 284 -23 l 1
 263 -22 240 -21 215 -21 c 0x93
 133 -21 106 -36 98 -43 c 2
 95 -46 l 1
 74 -25 l 1
 74 175 l 1
 194 375 l 1
 265 446 l 1
 265 446 293 421 313 421 c 0
 327 421 343 435 351 442 c 2
 355 446 l 1xcb
 376 425 l 1
 376 67 l 2
EndSplineSet
Substitution2: "Subscript forms-1" four.inferior
Substitution2: "Superscript forms-1" four.superior
EndChar
StartChar: five
Encoding: 53 53 21
Width: 480
Flags: W
HStem: -196 92<119.681 180.319> 304 92<208.81 297.881> 426 20G<125 205 349 405> 426 20G<125 205 349 405>
VStem: 74 92<180 323> 314 92<-55 30>
LayerCount: 2
Back
SplineSet
360 400 m 17
 360 400 304 350 270 350 c 0
 217 350 120 400 120 400 c 1
 120 125 l 1
 240 175 l 1
 360 55 l 1
 360 -80 l 17
 240 -200 l 1
 240 -200 190 -150 150 -150 c 24
 110 -150 60 -200 60 -200 c 1025
EndSplineSet
Fore
SplineSet
406 425 m 1xec
 335 354 l 1
 335 354 279 304 245 304 c 0
 223 304 193 313 166 323 c 1
 166 180 l 1
 265 221 l 1
 406 80 l 1
 406 -55 l 1
 215 -246 l 1
 215 -246 165 -196 125 -196 c 0
 85 -196 35 -246 35 -246 c 1
 14 -225 l 1
 85 -154 l 1
 85 -154 135 -104 175 -104 c 0
 215 -104 265 -154 265 -154 c 1
 314 -105 l 1
 314 30 l 1
 215 129 l 1
 95 79 l 1
 74 100 l 1
 74 375 l 1
 145 446 l 1
 145 446 242 396 295 396 c 0
 329 396 385 446 385 446 c 1
 406 425 l 1xec
EndSplineSet
Substitution2: "Subscript forms-1" five.inferior
Substitution2: "Superscript forms-1" five.superior
EndChar
StartChar: six
Encoding: 54 54 22
Width: 480
Flags: W
HStem: -46 21G<195 235> 426 20G<245 285> 426 20G<245 285> 529 92<216.747 331.59>
VStem: 74 92<145 305 347 485> 314 92<145 255>
LayerCount: 2
Back
SplineSet
120 280 m 25
 240 400 l 25
 360 280 l 25
 360 120 l 25
 240 0 l 25
 120 120 l 1
 120 510 l 1
 210 600 l 25
 187 610 256 575 300 575 c 3
 334 575 375 610 361 600 c 1049
EndSplineSet
Fore
SplineSet
166 305 m 1x9c
 166 145 l 1
 265 46 l 1
 314 95 l 1
 314 255 l 1
 215 354 l 1
 166 305 l 1x9c
236 645 m 1
 251 638 294 621 325 621 c 0
 348 621 373 637 384 644 c 0
 385 645 385 645 386 646 c 0
 388 647 389 648 389 648 c 2
 410 627 l 2
 410 626 l 2
 339 556 l 2
 336 553 303 529 275 529 c 0
 243 529 199 548 185 554 c 1
 166 535 l 1
 166 347 l 1
 265 446 l 1xdc
 406 305 l 1
 406 145 l 1
 215 -46 l 1
 74 95 l 1
 74 485 l 1
 163 574 l 1
 159 577 l 2
 230 648 l 2
 230 648 232 647 235 646 c 2
 236 645 l 1
EndSplineSet
Substitution2: "Subscript forms-1" six.inferior
Substitution2: "Superscript forms-1" six.superior
EndChar
StartChar: seven
Encoding: 55 55 23
Width: 480
Flags: W
HStem: -196 21G<225 265> 104 92<152.827 208> 104 67<306.07 366> 304 92<175.404 311.282> 426 20G<95 187 385 465> 426 20G<95 187 385 465>
VStem: 194 92<-85 79.1562>
LayerCount: 2
Back
SplineSet
210 -90 m 25
 270 -150 l 1049
90 400 m 1
 90 400 164 350 270 350 c 3
 335 350 420 400 420 400 c 1
 420 400 240 276 240 0 c 3
 240 -32 240 -120 241 -120 c 1025
120 125 m 25
 120 125 176 150 210 150 c 24
 263 150 247 125 300 125 c 24
 334 125 390 150 391 150 c 1049
EndSplineSet
Fore
SplineSet
74 100 m 1xd2
 145 171 l 1xb2
 145 171 201 196 235 196 c 0
 236 196 237 196 238 196 c 0xd2
 261 248 289 288 313 317 c 1
 292 310 267 304 245 304 c 0
 139 304 65 354 65 354 c 1
 44 375 l 1
 115 446 l 1
 115 446 189 396 295 396 c 0
 360 396 445 446 445 446 c 1
 466 425 l 1
 395 354 l 1
 362 312 326 253 305 173 c 1
 310 172 317 171 325 171 c 0xba
 359 171 415 196 416 196 c 2xd2
 437 175 l 1
 366 104 l 2xb2
 365 104 322 85 288 80 c 1
 286 62 286 44 286 25 c 0
 286 -7 286 -93 287 -95 c 2
 286 -96 l 1
 316 -125 l 1
 245 -196 l 1
 164 -115 l 1
 194 -85 l 1
 194 -62 194 -39 194 -25 c 0
 194 21 199 64 208 102 c 1
 202 103 194 104 185 104 c 0
 151 104 95 79 95 79 c 1
 74 100 l 1xd2
EndSplineSet
Substitution2: "Subscript forms-1" seven.inferior
Substitution2: "Superscript forms-1" seven.superior
EndChar
StartChar: less
Encoding: 60 60 28
Width: 720
Flags: W
HStem: 526 20G<577 645>
LayerCount: 2
Back
SplineSet
600 500 m 25
 120 300 l 25
 600 100 l 1049
EndSplineSet
Fore
SplineSet
646 525 m 1
 575 454 l 1
 230 310 l 1
 625 146 l 1
 646 125 l 1
 575 54 l 1
 95 254 l 1
 74 275 l 1
 145 346 l 1
 625 546 l 1
 646 525 l 1
EndSplineSet
EndChar
StartChar: question
Encoding: 63 63 31
Width: 480
Flags: W
HStem: -46 21G<225 265> 626 20G<215 295>
VStem: 194 92<225 295> 314 92<465 511>
LayerCount: 2
Back
SplineSet
120 450 m 25
 120 510 l 25
 210 600 l 25
 360 550 l 25
 360 440 l 25
 240 320 l 25
 240 200 l 1049
210 60 m 25
 270 0 l 1049
EndSplineSet
Fore
SplineSet
164 35 m 1
 235 106 l 1
 316 25 l 1
 245 -46 l 1
 164 35 l 1
95 404 m 1
 74 425 l 1
 74 485 l 1
 235 646 l 1
 385 596 l 1
 406 575 l 1
 406 465 l 1
 286 345 l 1
 286 225 l 1
 215 154 l 1
 194 175 l 1
 194 295 l 1
 314 415 l 1
 314 511 l 1
 185 554 l 1
 166 535 l 1
 166 475 l 1
 95 404 l 1
EndSplineSet
EndChar
StartChar: at
Encoding: 64 64 32
Width: 960
Flags: W
HStem: -196 92<386.124 598.702> 451 20G<485 525 605 645> 554 92<429.756 630.41>
VStem: 74 92<124.739 319.475> 314 92<103.03 280> 554 92<80 108 150 351> 794 92<271.898 402.518>
LayerCount: 2
Back
SplineSet
780 -50 m 1
 780 -50 660 -150 480 -150 c 11
 280 -150 120 25 120 225 c 27
 120 442 323 600 540 600 c 27
 697 600 840 482 840 325 c 27
 840 216 690 85 690 85 c 26
 630 25 l 1
 600 55 l 1
 600 425 l 1
 600 425 574 377 540 377 c 0
 506 377 480 425 480 425 c 9
 360 305 l 1
 360 115 l 17
 450 25 l 1
 600 175 l 1049
EndSplineSet
Fore
SplineSet
554 351 m 1
 544 341 530 331 515 331 c 0
 500 331 487 340 477 350 c 2
 456 372 l 2
 455 372 l 0
 454 373 453 375 452 376 c 2
 406 330 l 1
 406 140 l 2
 406 103 455 91 475 71 c 1
 554 150 l 1
 554 351 l 1
554 108 m 1
 425 -21 l 1
 314 90 l 1
 314 280 l 1
 505 471 l 1
 526 450 l 1
 526 450 530 442 537 433 c 0
 545 427 555 423 565 423 c 0
 570 423 575 424 580 426 c 2
 625 471 l 1
 646 450 l 1
 646 80 l 1
 655 71 l 1
 694 110 l 2
 738 158 794 233 794 300 c 0
 794 367 768 427 726 474 c 1
 671 524 594 554 515 554 c 0
 413 554 315 519 239 460 c 1
 194 401 166 330 166 250 c 0
 166 152 205 59 268 -10 c 1
 331 -68 414 -104 505 -104 c 0
 685 -104 805 -4 805 -4 c 1
 826 -25 l 1
 755 -96 l 1
 755 -96 635 -196 455 -196 c 0
 359 -196 272 -155 208 -91 c 2
 186 -70 l 2
 117 -1 74 96 74 200 c 0
 74 297 114 383 179 448 c 2
 251 519 l 2
 331 598 446 646 565 646 c 0
 650 646 730 611 786 555 c 2
 808 534 l 2
 856 486 886 422 886 350 c 0
 886 269 804 176 761 133 c 2
 690 62 l 2
 675 47 665 39 665 39 c 0
 647 24 623 -3 605 -21 c 1
 554 30 l 1
 554 108 l 1
EndSplineSet
EndChar
StartChar: A
Encoding: 65 65 33
Width: 840
Flags: W
HStem: 4 92<119.651 226.305> 304 91<297.522 339> 529 21G<225 259 466 505> 554 92<299.105 356.209> 554 74<300 353.388>
VStem: 374 92<396.219 513 517 538.107>
AnchorPoint: "blwmark" 480 0 basechar 0
AnchorPoint: "abvmark" 540 700 basechar 0
LayerCount: 2
Back
SplineSet
630 540 m 25
 570 600 l 25
 510 540 l 1049
240 300 m 1
 240 300 276 350 360 350 c 3
 512 350 600 250 601 250 c 1025
270 575 m 1
 270 575 282 600 330 600 c 11
 389 600 420 549 420 500 c 3
 420 263 211 75 211 75 c 1025
60 0 m 17
 60 0 97 50 180 50 c 3
 298 50 330 0 330 0 c 1025
600 570 m 1
 660 60 l 1
 720 0 l 9
 780 60 l 1049
EndSplineSet
Fore
SplineSet
35 -46 m 1xf4
 14 -25 l 1
 14 -25 17 -22 21 -18 c 2
 91 53 l 2
 105 67 142 96 205 96 c 0
 206 96 208 96 209 96 c 0
 248 140 303 214 339 304 c 1
 338 304 336 304 335 304 c 0
 283 304 250 285 231 270 c 2
 215 254 l 1
 194 275 l 1
 194 275 196 278 201 283 c 2
 272 354 l 2
 285 367 314 390 366 395 c 1
 371 421 374 448 374 475 c 0
 374 498 367 520 354 539 c 1
 341 548 324 554 305 554 c 0xf4
 282 554 269 549 259 543 c 2
 245 529 l 1
 224 550 l 1
 224 550 225 553 229 557 c 2
 300 628 l 2
 301 628 l 0xec
 309 636 324 646 355 646 c 0
 381 646 400 637 415 622 c 2
 436 600 l 2
 437 600 l 0
 456 581 466 553 466 525 c 0
 466 522 466 520 466 517 c 2
 595 646 l 1
 625 616 l 1
 646 595 l 1
 676 565 l 1
 652 541 l 1
 706 85 l 2
 708 66 733 58 745 46 c 1
 805 106 l 1
 826 85 l 1
 695 -46 l 1
 614 35 l 1
 592 220 l 1
 576 204 l 2
 575 204 514 274 405 297 c 1
 358 206 296 138 270 112 c 2
 251 93 l 1
 310 85 338 64 349 53 c 2
 370 32 l 2
 374 28 376 25 376 25 c 1
 305 -46 l 1
 291 -32 l 2
 272 -17 232 4 155 4 c 0
 102 4 68 -16 50 -31 c 2
 35 -46 l 1xf4
445 391 m 1
 503 381 548 356 579 335 c 1
 554 545 l 1
 545 554 l 1xec
 485 494 l 1
 466 513 l 1
 465 470 457 430 445 391 c 1
EndSplineSet
EndChar
StartChar: C
Encoding: 67 67 35
Width: 900
Flags: W
HStem: -46 92<377.463 554.02> 446 21G<315 345> 446 21G<315 345> 504 92<622.5 698.437> 526 20G<515 555> 554 92<503.601 573.054>
VStem: 104 92<207.533 373.047> 345 30<76 455 528 564> 464 92<125 475>
AnchorPoint: "blwmark" 480 0 basechar 0
AnchorPoint: "abvmark" 540 700 basechar 0
LayerCount: 2
Back
SplineSet
360 550 m 1
 360 100 l 1025
510 500 m 1
 510 100 l 1025
360 600 m 1
 360 600 150 480 150 300 c 3
 150 134 264 0 480 0 c 3
 623 0 781 150 782 150 c 1025
360 492 m 1
 360 492 474 600 546 600 c 3
 623 600 590 550 660 550 c 3
 718 550 750 600 751 600 c 1025
EndSplineSet
Fore
SplineSet
535 546 m 1x8b80
 556 525 l 1
 556 125 l 1
 485 54 l 1
 464 75 l 1
 464 475 l 1
 535 546 l 1x8b80
345 564 m 1
 335 554 l 1
 335 554 304 536 268 506 c 1
 228 457 196 396 196 325 c 0
 196 249 220 178 267 126 c 0
 289 106 315 89 345 76 c 1
 345 455 l 1
 339 449 335 446 335 446 c 1xc780
 314 467 l 1xa380
 345 498 l 1
 345 564 l 1
375 594 m 1
 375 528 l 1
 385 538 l 1
 385 538 499 646 571 646 c 0x8780
 601 646 614 638 623 629 c 2
 644 608 l 2
 645 607 647 605 648 604 c 0
 656 599 668 596 685 596 c 0x9380
 712 596 732 607 747 618 c 2
 776 646 l 2x8780
 797 625 l 2
 795 623 790 616 783 609 c 2
 713 538 l 2
 698 523 671 504 635 504 c 0x9380
 610 504 599 510 590 519 c 0
 589 519 l 2
 568 540 l 2
 567 541 565 544 564 545 c 0
 555 550 542 554 521 554 c 0
 476 554 415 512 375 480 c 1
 375 65 l 1
 413 53 457 46 505 46 c 0
 648 46 806 196 807 196 c 2
 828 175 l 1
 757 104 l 2
 756 104 598 -46 455 -46 c 0
 346 -46 263 -11 207 44 c 0
 186 65 l 2
 132 119 104 193 104 275 c 0
 104 365 156 439 209 492 c 0
 209 493 l 2
 280 564 l 2
 332 616 385 646 385 646 c 1
 406 625 l 1
 375 594 l 1
EndSplineSet
EndChar
StartChar: E
Encoding: 69 69 37
Width: 900
Flags: W
HStem: -46 92<377.463 554.02> 446 21G<315 345> 446 21G<315 345> 504 92<622.5 698.437> 526 20G<515 555> 554 92<503.601 573.054>
VStem: 104 92<207.533 373.047> 345 30<76 455 528 564> 464 92<125 303.999 363 475>
AnchorPoint: "blwmark" 480 0 basechar 0
AnchorPoint: "abvmark" 540 700 basechar 0
LayerCount: 2
Back
SplineSet
510 300 m 25
 510 300 566 350 600 350 c 27
 642 350 618 300 660 300 c 3
 709 300 750 350 751 350 c 1049
360 550 m 1
 360 100 l 1025
510 500 m 1
 510 100 l 1025
360 600 m 1
 360 600 150 480 150 300 c 3
 150 134 264 0 480 0 c 3
 623 0 781 150 782 150 c 1025
360 492 m 1
 360 492 474 600 546 600 c 3
 623 600 590 550 660 550 c 3
 718 550 750 600 751 600 c 1025
EndSplineSet
Fore
SplineSet
535 546 m 1x8b80
 556 525 l 1
 556 363 l 1
 575 377 604 396 625 396 c 0
 635 396 641 393 645 389 c 2
 666 368 l 2
 671 363 674 354 677 347 c 0
 679 347 682 346 685 346 c 0
 719 346 748 369 764 384 c 2
 775 395 l 2
 775 396 l 0
 776 396 l 2
 797 375 l 1
 794 372 l 2
 793 371 791 369 790 368 c 2
 720 297 l 2
 706 283 673 254 635 254 c 0
 625 254 620 257 615 261 c 0
 594 282 l 2
 588 288 586 295 583 303 c 0
 582 303 578 304 575 304 c 0
 569 304 563 302 556 300 c 1
 556 125 l 1
 485 54 l 1
 464 75 l 1
 464 275 l 1
 464 475 l 1
 535 546 l 1x8b80
345 564 m 1
 335 554 l 1
 335 554 304 536 268 506 c 1
 228 457 196 396 196 325 c 0
 196 249 220 178 267 126 c 0
 289 106 315 89 345 76 c 1
 345 455 l 1
 339 449 335 446 335 446 c 1xc780
 314 467 l 1xa380
 345 498 l 1
 345 564 l 1
375 594 m 1
 375 528 l 1
 385 538 l 1
 385 538 499 646 571 646 c 0x8780
 601 646 614 638 623 629 c 2
 644 608 l 2
 645 607 647 605 648 604 c 0
 656 599 668 596 685 596 c 0x9380
 712 596 732 607 747 618 c 2
 776 646 l 2x8780
 797 625 l 2
 795 623 790 616 783 609 c 2
 713 538 l 2
 698 523 671 504 635 504 c 0x9380
 610 504 599 510 590 519 c 0
 589 519 l 2
 568 540 l 2
 567 541 565 544 564 545 c 0
 555 550 542 554 521 554 c 0
 476 554 415 512 375 480 c 1
 375 65 l 1
 413 53 457 46 505 46 c 0
 648 46 806 196 807 196 c 2
 828 175 l 1
 757 104 l 2
 756 104 598 -46 455 -46 c 0
 346 -46 263 -11 207 44 c 0
 186 65 l 2
 132 119 104 193 104 275 c 0
 104 365 156 439 209 492 c 0
 209 493 l 2
 280 564 l 2
 332 616 385 646 385 646 c 1
 406 625 l 1
 375 594 l 1
EndSplineSet
EndChar
StartChar: G
Encoding: 71 71 39
Width: 900
Flags: W
HStem: -46 92<377.463 589.279> 318 92<646.563 726.5> 446 21G<315 345> 446 21G<315 345> 504 92<622.5 698.437> 526 20G<515 555> 554 92<503.601 573.054>
VStem: 104 92<207.568 373.217> 345 30<76 455 528 564> 464 92<125 265 307 475> 734 92<149.922 299.387>
AnchorPoint: "blwmark" 480 0 basechar 0
AnchorPoint: "abvmark" 540 700 basechar 0
LayerCount: 2
Back
SplineSet
570 300 m 17
 570 300 626 364 690 364 c 3
 757 364 780 306 780 200 c 3
 780 75 623 0 480 0 c 3
 264 0 150 134 150 300 c 3
 150 480 360 600 360 600 c 1025
360 550 m 1
 360 100 l 1025
510 500 m 1
 510 100 l 1025
360 492 m 1
 360 492 474 600 546 600 c 3
 623 600 590 550 660 550 c 3
 718 550 750 600 751 600 c 1025
EndSplineSet
Fore
SplineSet
535 546 m 1xc7e0
 556 525 l 1
 556 307 l 1
 601 353 l 2
 617 369 664 410 715 410 c 0
 738 410 755 403 769 390 c 2
 791 368 l 2
 816 342 826 294 826 225 c 0
 826 182 807 145 777 115 c 2
 707 44 l 2
 706 44 l 2
 648 -14 549 -46 455 -46 c 0
 346 -46 263 -12 207 44 c 2
 186 65 l 2
 132 119 104 193 104 275 c 0
 104 365 156 440 209 493 c 2
 280 564 l 2
 332 616 385 646 385 646 c 1
 406 625 l 1
 375 594 l 1
 375 528 l 1
 385 538 l 1
 385 538 499 646 571 646 c 0xc7e0
 601 646 614 638 623 629 c 2
 644 608 l 2
 645 607 647 605 648 604 c 0
 656 599 668 596 685 596 c 0xc9e0
 712 596 732 607 747 618 c 2
 776 646 l 2xc3e0
 797 625 l 2
 795 623 790 616 783 609 c 2
 713 538 l 2
 698 523 671 504 635 504 c 0xc9e0
 610 504 599 510 590 519 c 0
 589 519 l 2
 568 540 l 2
 567 541 565 544 564 545 c 0
 555 550 542 554 521 554 c 0
 476 554 415 512 375 480 c 1
 375 65 l 1
 413 53 457 46 505 46 c 0
 579 46 657 66 715 103 c 1
 727 124 734 149 734 175 c 0
 734 235 726 279 708 307 c 1
 696 314 682 318 665 318 c 0
 620 318 580 287 559 268 c 2
 556 265 l 1
 556 125 l 1
 485 54 l 1
 464 75 l 1
 464 475 l 1
 535 546 l 1xc7e0
345 498 m 1
 345 564 l 1
 335 554 l 1
 335 554 305 537 268 506 c 1
 229 457 196 396 196 325 c 0
 196 248 220 179 267 126 c 0
 289 106 315 89 345 76 c 1
 345 455 l 1
 339 449 335 446 335 446 c 1xe3e0
 314 467 l 1xd1e0
 345 498 l 1
EndSplineSet
EndChar
StartChar: J
Encoding: 74 74 42
Width: 540
Flags: W
HStem: -196 92<29.9699 177.77> 504 21G<15 54> 554 92<115.988 198.032> 554 67<255.605 276>
VStem: 225 30<-124 530> 344 92<-25 515>
AnchorPoint: "abvmark" 300 700 basechar 0
LayerCount: 2
Back
SplineSet
60 550 m 1
 60 550 101 600 149 600 c 3
 192 600 214 575 240 575 c 3
 274 575 300 600 301 600 c 1025
240 550 m 1
 240 -125 l 1025
450 600 m 1
 390 540 l 1
 390 -50 l 1
 240 -200 l 1
 240 -200 208 -150 90 -150 c 3
 7 -150 -30 -200 -30 -200 c 1025
EndSplineSet
Fore
SplineSet
475 646 m 1xec
 496 625 l 1
 436 565 l 1
 436 -25 l 1
 215 -246 l 1
 201 -232 l 2
 182 -217 142 -196 65 -196 c 0
 11 -196 -23 -217 -40 -231 c 2
 -55 -246 l 1
 -76 -225 l 2
 -76 -225 -74 -222 -70 -218 c 2
 -69 -218 l 2
 1 -147 l 2
 15 -133 52 -104 115 -104 c 0
 167 -104 202 -113 225 -124 c 1
 225 530 l 2
 222 530 218 529 215 529 c 0
 189 529 167 554 124 554 c 0
 96 554 71 537 54 522 c 2
 35 504 l 1
 14 525 l 1
 14 525 17 529 22 534 c 2
 93 605 l 2
 94 606 l 0
 109 621 140 646 174 646 c 0xec
 217 646 239 621 265 621 c 0xdc
 299 621 325 646 326 646 c 2xec
 347 625 l 1
 276 554 l 2xdc
 275 554 268 547 255 540 c 1
 255 -144 l 2
 256 -145 258 -146 259 -147 c 0
 265 -154 l 1
 344 -75 l 1
 344 515 l 1
 475 646 l 1xec
EndSplineSet
EndChar
StartChar: K
Encoding: 75 75 43
Width: 840
Flags: W
HStem: -46 21G<15 50 291 325 675 715> 4 92<120.289 224.423> 504 11G<15 54 705 745> 554 92<115.988 198.032> 554 67<255.605 276>
VStem: 225 30<95 530> 344 92<85 185 227 515> 584 92<425 515> 614 92<57.9004 196>
AnchorPoint: "blwmark" 480 0 basechar 0
AnchorPoint: "abvmark" 540 700 basechar 0
LayerCount: 2
Back
SplineSet
60 550 m 1
 60 550 101 600 149 600 c 3
 192 600 214 575 240 575 c 3
 274 575 300 600 301 600 c 1025
240 550 m 1
 240 75 l 1025
450 220 m 1
 630 400 l 1
 630 540 l 1
 690 600 l 9
 750 540 l 1049
560 305 m 1
 660 225 l 1
 660 60 l 1
 720 0 l 9
 780 60 l 1049
450 600 m 1
 390 540 l 1
 390 60 l 1
 330 0 l 1
 330 0 298 50 180 50 c 3
 97 50 60 0 60 0 c 1033
EndSplineSet
Fore
SplineSet
475 646 m 1xf680
 496 625 l 1
 436 565 l 1
 436 227 l 1
 584 375 l 1
 584 515 l 1
 715 646 l 1
 796 565 l 1
 725 494 l 1
 676 543 l 1
 676 425 l 1xf7
 594 343 l 1
 685 271 l 1
 706 250 l 1
 706 85 l 2
 706 65 734 57 745 46 c 1
 805 106 l 1
 826 85 l 1
 695 -46 l 1
 614 35 l 1
 614 196 l 1
 535 259 l 1
 523 272 l 1
 436 185 l 1
 436 85 l 1
 305 -46 l 1
 291 -32 l 2
 272 -17 232 4 155 4 c 0
 101 4 67 -17 50 -31 c 2
 35 -46 l 1
 14 -25 l 2
 14 -25 16 -22 20 -18 c 2
 21 -18 l 2
 91 53 l 2
 105 67 142 96 205 96 c 0
 212 96 219 95 225 95 c 1
 225 530 l 2
 222 530 218 529 215 529 c 0
 189 529 167 554 124 554 c 0
 96 554 71 537 54 522 c 2
 35 504 l 1
 14 525 l 1
 14 525 17 529 22 534 c 2
 93 605 l 2
 94 606 l 0
 109 621 140 646 174 646 c 0xf680
 217 646 239 621 265 621 c 0xee80
 299 621 325 646 326 646 c 2xf680
 347 625 l 1
 276 554 l 2xee80
 275 554 268 547 255 540 c 1
 255 93 l 1
 304 86 331 68 344 57 c 1
 344 515 l 1
 475 646 l 1xf680
EndSplineSet
EndChar
StartChar: N
Encoding: 78 78 46
Width: 900
Flags: W
HStem: -46 21G<15 50 291 325 675 715> 4 92<119.651 224.423> 504 21G<15 54> 554 92<115.988 198.032> 554 67<255.605 276>
VStem: 225 30<95 530> 344 92<85 515> 614 92<57.9004 419>
AnchorPoint: "blwmark" 480 0 basechar 0
AnchorPoint: "abvmark" 480 700 basechar 0
LayerCount: 2
Back
SplineSet
60 550 m 1
 60 550 101 600 149 600 c 3
 192 600 214 575 240 575 c 3
 274 575 300 600 301 600 c 1025
240 550 m 1
 240 75 l 1025
60 0 m 17
 60 0 97 50 180 50 c 3
 298 50 330 0 330 0 c 1
 390 60 l 1
 390 540 l 1
 450 600 l 1
 660 450 l 1
 660 60 l 1
 720 0 l 9
 780 60 l 1049
EndSplineSet
Fore
SplineSet
35 -46 m 1xf7
 14 -25 l 1
 14 -25 17 -22 21 -18 c 2
 91 53 l 2
 105 67 142 96 205 96 c 0
 212 96 219 95 225 95 c 1
 225 530 l 2
 222 530 218 529 215 529 c 0
 189 529 167 554 124 554 c 0
 96 554 71 537 54 522 c 2
 35 504 l 1
 14 525 l 1
 14 525 17 529 22 534 c 2
 93 605 l 2
 94 606 l 0
 109 621 140 646 174 646 c 0xf7
 217 646 239 621 265 621 c 0xef
 299 621 325 646 326 646 c 2xf7
 347 625 l 1
 276 554 l 2xef
 275 554 268 547 255 540 c 1
 255 92 l 1
 304 85 331 68 344 57 c 1
 344 515 l 1
 475 646 l 1
 685 496 l 1
 706 475 l 1
 706 85 l 2
 706 65 734 57 745 46 c 1
 805 106 l 1
 826 85 l 1
 695 -46 l 1
 614 35 l 1
 614 419 l 1
 436 546 l 1
 436 85 l 1
 305 -46 l 1
 291 -32 l 2
 272 -17 232 4 155 4 c 0
 102 4 68 -16 50 -31 c 2
 35 -46 l 1xf7
EndSplineSet
EndChar
StartChar: O
Encoding: 79 79 47
Width: 960
Flags: W
HStem: -46 92<377.463 555.872> 446 21G<315 345> 446 21G<315 345> 626 20G<359.39 405 533 596.5>
VStem: 104 92<207.533 373.047> 345 30<76 456 533 564> 464 92<125 525> 738 92<222.307 419.14>
AnchorPoint: "blwmark" 480 0 basechar 0
AnchorPoint: "abvmark" 540 700 basechar 0
LayerCount: 2
Back
SplineSet
360 550 m 1
 360 100 l 1025
512 550 m 1
 510 100 l 1025
360 600 m 1
 360 600 150 480 150 300 c 3
 150 134 264 0 480 0 c 3
 623 0 784 142 784 300 c 3
 784 512 673 600 540 600 c 3
 436 600 360 492 360 492 c 1025
EndSplineSet
Fore
SplineSet
493 552 m 1x9f
 457 547 426 530 401 512 c 1
 375 486 l 1
 375 65 l 1
 413 53 457 46 505 46 c 0
 564 46 627 71 679 110 c 1
 715 158 738 215 738 275 c 0
 738 378 712 453 670 501 c 1
 638 529 600 545 558 551 c 1
 556 125 l 1
 485 54 l 1
 464 75 l 1
 466 525 l 1
 493 552 l 1x9f
345 564 m 1
 335 554 l 1
 335 554 304 536 268 506 c 1
 228 457 196 396 196 325 c 0
 196 249 220 178 267 126 c 0
 289 106 315 89 345 76 c 1
 345 456 l 1
 335 446 l 1xdf
 314 467 l 2xbf
 314 467 325 483 344 502 c 2
 345 502 l 2
 345 503 l 1
 345 564 l 1
375 594 m 1
 375 533 l 1
 415 573 l 2
 447 605 501 646 565 646 c 0
 628 646 686 627 730 583 c 2
 751 561 l 2
 799 513 830 436 830 325 c 0
 830 249 794 177 739 122 c 2
 738 122 l 1
 667 51 l 2
 608 -8 529 -46 455 -46 c 0
 346 -46 263 -11 207 44 c 0
 186 65 l 2
 132 119 104 193 104 275 c 0
 104 365 156 439 209 492 c 0
 209 493 l 2
 280 564 l 2
 332 616 385 646 385 646 c 1
 406 625 l 1
 375 594 l 1
EndSplineSet
EndChar
StartChar: P
Encoding: 80 80 48
Width: 840
Flags: W
HStem: -46 21G<15 50 291 325> 4 92<120.289 224.423> 251 95<436 515.462> 504 21G<15 54> 554 92<115.988 198.032> 554 67<255.605 276>
VStem: 225 30<95 224 226 530> 344 92<85 242 346 515> 674 92<395 439>
AnchorPoint: "blwmark" 480 0 basechar 0
AnchorPoint: "abvmark" 480 700 basechar 0
LayerCount: 2
Back
SplineSet
300 250 m 17
 300 250 369 300 420 300 c 27
 511 300 600 250 600 250 c 1
 720 370 l 1
 720 475 l 1
 450 600 l 1
 390 540 l 1
 390 60 l 1
 330 0 l 1
 330 0 298 50 180 50 c 3
 97 50 60 0 60 0 c 1033
60 550 m 1
 60 550 101 600 149 600 c 3
 192 600 214 575 240 575 c 3
 274 575 300 600 301 600 c 1025
240 550 m 1
 240 75 l 1025
EndSplineSet
Fore
SplineSet
35 504 m 1xfb80
 14 525 l 1
 14 525 17 529 22 534 c 2
 93 605 l 2
 94 606 l 0
 109 621 140 646 174 646 c 0xfb80
 217 646 239 621 265 621 c 0xf780
 299 621 325 646 326 646 c 2xfb80
 347 625 l 1
 276 554 l 2xf780
 275 554 268 547 255 540 c 1
 255 226 l 1
 325 296 l 1
 325 296 332 302 344 309 c 1
 344 515 l 1
 475 646 l 1
 745 521 l 1
 766 500 l 1
 766 395 l 1
 575 204 l 1
 575 204 511 240 436 251 c 1
 436 85 l 1
 305 -46 l 1
 291 -32 l 2
 272 -17 232 4 155 4 c 0
 101 4 67 -17 50 -31 c 2
 35 -46 l 1
 14 -25 l 2
 14 -25 16 -22 20 -18 c 2
 21 -18 l 2
 91 53 l 2
 105 67 142 96 205 96 c 0
 212 96 219 95 225 95 c 1
 225 530 l 2
 222 530 218 529 215 529 c 0
 189 529 167 554 124 554 c 0
 96 554 71 537 54 522 c 2
 35 504 l 1xfb80
436 346 m 2
 439 346 442 346 445 346 c 0
 536 346 625 296 625 296 c 2
 625 296 670 341 674 345 c 2
 674 439 l 1
 436 549 l 1
 436 346 l 2
255 224 m 1
 255 93 l 1
 304 86 331 68 344 57 c 1
 344 242 l 2
 341 241 338 240 336 239 c 0
 303 224 275 204 275 204 c 1
 255 224 l 1
EndSplineSet
EndChar
StartChar: Q
Encoding: 81 81 49
Width: 960
Flags: W
HStem: -46 92<377.463 555.872 770.694 857.384> -21 92<688.653 777.306> -21 71<688 743.557> 446 21G<315 345> 446 21G<315 345> 626 20G<359.39 405 533 596.5>
VStem: 104 92<207.533 373.047> 345 30<76 456 533 564> 464 92<125 525> 738 92<222.307 419.14>
AnchorPoint: "blwmark" 480 0 basechar 0
AnchorPoint: "abvmark" 540 700 basechar 0
LayerCount: 2
Back
SplineSet
660 0 m 25
 660 0 678 25 720 25 c 27
 762 25 786 0 828 0 c 27
 862 0 900 50 900 50 c 1049
360 550 m 1
 360 100 l 1025
512 550 m 1
 510 100 l 1025
360 600 m 1
 360 600 150 480 150 300 c 3
 150 134 264 0 480 0 c 3
 623 0 784 142 784 300 c 3
 784 512 673 600 540 600 c 3
 436 600 360 492 360 492 c 1025
EndSplineSet
Fore
SplineSet
635 -46 m 1x87c0
 614 -25 l 1
 614 -25 615 -23 617 -21 c 2
 688 50 l 2
 689 50 l 0x27c0
 697 57 714 71 745 71 c 0x47c0
 787 71 811 46 853 46 c 0
 866 46 880 54 891 62 c 2
 925 96 l 1
 946 75 l 1
 946 75 939 66 929 56 c 2
 859 -15 l 2
 845 -29 823 -46 803 -46 c 0x87c0
 761 -46 737 -21 695 -21 c 0x47c0
 669 -21 652 -30 643 -38 c 2
 635 -46 l 1x87c0
493 552 m 1
 457 547 426 530 401 512 c 1
 375 486 l 1
 375 65 l 1
 413 53 457 46 505 46 c 0x87c0
 564 46 627 71 679 110 c 1
 715 158 738 215 738 275 c 0
 738 378 712 453 670 501 c 1
 638 529 600 545 558 551 c 1
 556 125 l 1
 485 54 l 1
 464 75 l 1
 466 525 l 1
 493 552 l 1
345 564 m 1
 335 554 l 1
 335 554 304 536 268 506 c 1
 228 457 196 396 196 325 c 0
 196 249 220 178 267 126 c 0
 289 106 315 89 345 76 c 1
 345 456 l 1
 335 446 l 1x17c0
 314 467 l 2x0fc0
 314 467 325 483 344 502 c 2
 345 502 l 2
 345 503 l 1
 345 564 l 1
375 594 m 1
 375 533 l 1
 415 573 l 2
 447 605 501 646 565 646 c 0
 628 646 686 627 730 583 c 2
 751 561 l 2
 799 513 830 436 830 325 c 0
 830 249 794 177 739 122 c 2
 738 122 l 1
 667 51 l 2
 608 -8 529 -46 455 -46 c 0x87c0
 346 -46 263 -11 207 44 c 0
 186 65 l 2
 132 119 104 193 104 275 c 0
 104 365 156 439 209 492 c 0
 209 493 l 2
 280 564 l 2
 332 616 385 646 385 646 c 1
 406 625 l 1
 375 594 l 1
EndSplineSet
EndChar
StartChar: X
Encoding: 88 88 56
Width: 720
Flags: W
HStem: 494 21G<45 85 585 625> 626 20G<155 195 575 615>
AnchorPoint: "abvmark" 360 700 basechar 0
LayerCount: 2
Back
SplineSet
120 275 m 25
 120 275 187 325 240 325 c 27
 335 325 385 300 480 300 c 27
 533 300 600 350 600 350 c 1049
660 60 m 25
 600 0 l 17
 150 600 l 9
 90 540 l 1049
60 60 m 25
 120 0 l 17
 570 600 l 9
 630 540 l 1049
EndSplineSet
Fore
SplineSet
14 35 m 1
 85 106 l 1
 135 56 l 1
 297 273 l 1
 272 277 246 279 215 279 c 0
 162 279 95 229 95 229 c 1
 74 250 l 1
 145 321 l 1
 145 321 205 367 257 371 c 1
 122 551 l 1
 65 494 l 1
 44 515 l 1
 175 646 l 1
 196 625 l 1
 379 381 l 1
 524 575 l 1
 595 646 l 1
 676 565 l 1
 605 494 l 1
 555 544 l 1
 413 354 l 1
 441 350 470 346 505 346 c 0
 558 346 625 396 625 396 c 1
 646 375 l 1
 575 304 l 1
 575 304 522 265 473 256 c 1
 628 49 l 1
 685 106 l 1
 706 85 l 1
 575 -46 l 1
 554 -25 l 1
 341 259 l 1
 166 25 l 1
 95 -46 l 1
 14 35 l 1
EndSplineSet
EndChar
StartChar: Y
Encoding: 89 89 57
Width: 840
Flags: W
HStem: -196 92<132.023 468.811> -46 21G<405 445> 104 92<255 318.109> 504 21G<15 54> 554 92<115.988 198.032> 554 67<255.605 276>
VStem: 225 30<196 530> 344 92<275 515> 644 92<-55 173 215 535>
AnchorPoint: "abvmark" 540 700 basechar 0
LayerCount: 2
Back
SplineSet
60 550 m 1
 60 550 101 600 149 600 c 3
 192 600 214 575 240 575 c 3
 274 575 300 600 301 600 c 1025
240 550 m 1
 240 175 l 1025
390 250 m 1
 390 540 l 1
 450 600 l 1025
120 100 m 17
 120 100 166 150 210 150 c 3
 449 150 450 0 450 0 c 1
 690 240 l 1025
60 -200 m 17
 60 -200 79 -150 300 -150 c 3
 494 -150 570 -200 570 -200 c 9
 690 -80 l 1
 690 570 l 1025
660 600 m 25
 720 540 l 1049
EndSplineSet
Fore
SplineSet
614 575 m 1xf780
 685 646 l 1
 715 616 l 1
 736 595 l 1
 766 565 l 1
 736 535 l 1
 736 265 l 1
 736 -55 l 1
 545 -246 l 1
 545 -246 469 -196 275 -196 c 0
 127 -196 70 -218 48 -233 c 1
 35 -246 l 1
 14 -225 l 1
 14 -225 15 -223 19 -219 c 2
 89 -148 l 2
 102 -135 153 -104 325 -104 c 0
 519 -104 595 -154 595 -154 c 2
 595 -154 640 -109 644 -105 c 2
 644 173 l 1
 425 -46 l 1
 404 -25 l 2
 404 -25 404 14 373 52 c 1
 339 80 280 104 185 104 c 0
 151 104 116 75 102 61 c 2
 95 54 l 1
 74 75 l 1
 74 75 75 76 77 78 c 2
 148 149 l 2
 159 160 191 190 225 195 c 1
 225 530 l 2
 222 530 218 529 215 529 c 0
 189 529 167 554 124 554 c 0
 96 554 71 537 54 522 c 2
 35 504 l 1
 14 525 l 1
 14 525 17 529 22 534 c 2
 93 605 l 2
 94 606 l 0
 109 621 140 646 174 646 c 0xfb80
 217 646 239 621 265 621 c 0xf780
 299 621 325 646 326 646 c 2xfb80
 347 625 l 1
 276 554 l 2
 275 554 268 547 255 540 c 1
 255 196 l 1
 349 192 402 164 433 133 c 2
 454 112 l 2
 455 112 l 0
 473 94 482 75 488 60 c 1
 644 215 l 1
 644 545 l 1
 614 575 l 1xf780
365 204 m 1
 344 225 l 1
 344 515 l 1
 475 646 l 1
 496 625 l 1
 436 565 l 1
 436 275 l 1
 365 204 l 1
EndSplineSet
EndChar
StartChar: Z
Encoding: 90 90 58
Width: 840
Flags: W
HStem: 4 92<147.54 486.637> 254 92<475.848 588.05> 279 92<251.95 382.804> 504 92<296.452 633.291> 626 20G<125 313 717 765>
AnchorPoint: "blwmark" 360 0 basechar 0
AnchorPoint: "abvmark" 420 700 basechar 0
LayerCount: 2
Back
SplineSet
180 275 m 25
 180 275 247 325 300 325 c 27
 395 325 445 300 540 300 c 27
 593 300 660 350 660 350 c 1049
750 120 m 1
 630 0 l 1
 630 0 538 50 240 50 c 3
 152 50 60 0 60 0 c 1
 720 600 l 1
 720 600 617 550 540 550 c 3
 288 550 120 600 120 600 c 1025
EndSplineSet
Fore
SplineSet
775 166 m 1xd8
 796 145 l 1
 605 -46 l 1
 605 -46 513 4 215 4 c 0
 157 4 97 -18 63 -33 c 0
 46 -41 35 -46 35 -46 c 1
 14 -25 l 1
 85 46 l 1
 337 275 l 1
 318 277 298 279 275 279 c 0
 222 279 155 229 155 229 c 1
 134 250 l 1
 205 321 l 1
 205 321 272 371 325 371 c 0xb8
 367 371 399 366 431 361 c 1
 606 520 l 1
 577 511 544 504 515 504 c 0
 263 504 95 554 95 554 c 1
 74 575 l 1
 145 646 l 1
 145 646 313 596 565 596 c 0
 617 596 681 619 717 634 c 0
 734 641 745 646 745 646 c 1
 766 625 l 1
 695 554 l 1
 475 353 l 1
 502 349 530 346 565 346 c 0
 618 346 685 396 685 396 c 1
 706 375 l 1
 635 304 l 1
 635 304 568 254 515 254 c 0
 462 254 423 262 382 269 c 1
 176 82 l 1
 203 90 235 96 265 96 c 0
 563 96 655 46 655 46 c 1
 775 166 l 1xd8
EndSplineSet
EndChar
StartChar: backslash
Encoding: 92 92 60
Width: 600
Flags: W
LayerCount: 2
Back
SplineSet
540 -150 m 25
 60 700 l 1049
EndSplineSet
Fore
SplineSet
515 -196 m 1
 494 -175 l 1
 14 675 l 1
 85 746 l 1
 106 725 l 1
 586 -125 l 1
 515 -196 l 1
EndSplineSet
EndChar
StartChar: underscore
Encoding: 95 95 63
Width: 840
Flags: W
HStem: -196 92<145 695>
LayerCount: 2
Back
SplineSet
120 -150 m 25
 720 -150 l 1049
EndSplineSet
Fore
SplineSet
74 -175 m 1
 145 -104 l 1
 745 -104 l 1
 766 -125 l 1
 695 -196 l 1
 95 -196 l 1
 74 -175 l 1
EndSplineSet
EndChar
StartChar: e
Encoding: 101 101 69
Width: 420
Flags: W
HStem: -46 21G<185 235> 426 20G<245 295> 426 20G<245 295>
VStem: 74 92<147 255>
AnchorPoint: "blwmark" 240 0 basechar 0
AnchorPoint: "abvmark" 240 500 basechar 0
LayerCount: 2
Back
SplineSet
360 120 m 9
 240 0 l 25
 120 80 l 25
 120 280 l 25
 240 400 l 25
 360 320 l 1
 120 80 l 1025
EndSplineSet
Fore
SplineSet
166 147 m 1x90
 310 291 l 1
 215 354 l 1
 166 305 l 1
 166 147 l 1x90
170 109 m 1
 265 46 l 1
 385 166 l 1
 406 145 l 1
 215 -46 l 1
 95 34 l 1
 74 55 l 1
 74 255 l 1
 265 446 l 1xd0
 385 366 l 1
 406 345 l 1
 170 109 l 1
EndSplineSet
EndChar
StartChar: f
Encoding: 102 102 70
Width: 360
Flags: W
HStem: -246 92<30.8994 87.5> -196 92<-92.514 -32.4385> 354 92<85 104 196 275> 604 32<408.669 420.188>
VStem: 104 92<-125 354 446 505>
AnchorPoint: "abvmark" 210 700 basechar 0
LayerCount: 2
Back
SplineSet
-150 -200 m 17
 -150 -200 -106 -150 -60 -150 c 8
 -35 -150 33 -200 60 -200 c 24
 86 -200 150 -150 150 -150 c 1
 150 530 l 1
 270 650 l 17
 270 650 300 590 360 590 c 24
 388 590 450 650 451 650 c 1033
60 400 m 25
 300 400 l 1049
EndSplineSet
Fore
SplineSet
14 375 m 1xb8
 85 446 l 1
 104 446 l 1
 104 505 l 1
 295 696 l 1
 316 675 l 1
 316 675 320 666 328 656 c 0
 343 645 362 636 385 636 c 0
 413 636 475 696 476 696 c 2
 497 675 l 1
 426 604 l 2
 425 604 363 544 335 544 c 0
 305 544 283 559 268 574 c 2
 247 595 l 2
 245 597 244 598 242 600 c 2
 196 555 l 1
 196 446 l 1
 325 446 l 1
 346 425 l 1
 275 354 l 1
 196 354 l 1
 196 -125 l 1
 125 -196 l 1x78
 125 -196 61 -246 35 -246 c 0xb8
 8 -246 -60 -196 -85 -196 c 0x78
 -117 -196 -147 -220 -163 -235 c 2
 -175 -246 l 1xb8
 -196 -225 l 1
 -196 -225 -194 -222 -191 -219 c 2
 -120 -149 l 2
 -120 -148 l 0
 -106 -134 -71 -104 -35 -104 c 0x78
 -10 -104 58 -154 85 -154 c 0
 90 -154 98 -152 104 -149 c 1
 104 354 l 1
 35 354 l 1
 14 375 l 1xb8
EndSplineSet
EndChar
StartChar: g
Encoding: 103 103 71
Width: 480
Flags: W
HStem: -246 92<240.899 297.5> -196 92<117.486 177.562> -46 21G<195 235> 426 20G<245 285 364.556 405> 426 20G<245 285 364.556 405>
VStem: 74 92<99.5798 255> 314 92<-125 53 95 325>
AnchorPoint: "abvmark" 270 500 basechar 0
LayerCount: 2
Back
SplineSet
60 -200 m 17
 60 -200 104 -150 150 -150 c 8
 175 -150 243 -200 270 -200 c 24
 296 -200 360 -150 360 -150 c 9
 360 400 l 1
 360 400 336 352 300 352 c 24
 264 352 240 400 240 400 c 1
 120 280 l 25
 120 120 l 25
 240 0 l 25
 360 120 l 1041
EndSplineSet
Fore
SplineSet
314 325 m 1x26
 304 315 290 306 275 306 c 0
 260 306 247 315 237 325 c 2
 215 346 l 2
 215 347 l 0
 214 348 212 349 211 350 c 2
 166 305 l 1
 166 145 l 2
 166 92 236 75 265 46 c 1
 314 95 l 1
 314 325 l 1x26
314 53 m 1
 215 -46 l 1
 74 95 l 1
 74 255 l 1
 265 446 l 1
 286 425 l 2
 286 425 290 418 297 408 c 0
 305 403 315 398 325 398 c 0
 330 398 333 399 339 401 c 2
 385 446 l 1
 406 425 l 1
 406 -125 l 1
 335 -196 l 1x76
 335 -196 271 -246 245 -246 c 0xa6
 218 -246 150 -196 125 -196 c 0x66
 93 -196 63 -220 47 -235 c 2
 35 -246 l 1xa6
 14 -225 l 1
 14 -225 16 -222 19 -219 c 2
 90 -149 l 2
 90 -148 l 0
 104 -134 139 -104 175 -104 c 0x66
 200 -104 268 -154 295 -154 c 0xa6
 300 -154 308 -152 314 -149 c 1
 314 53 l 1
EndSplineSet
EndChar
StartChar: h
Encoding: 104 104 72
Width: 480
Flags: W
HStem: -46 21G<105 145 345 385> 426 20G<275 315> 426 20G<275 315> 651 20G<95 134.512>
VStem: 74 92<65 275 317 560> 314 92<65 321.97>
AnchorPoint: "blwmark" 240 0 basechar 0
AnchorPoint: "abvmark" 240 700 basechar 0
LayerCount: 2
Back
SplineSet
330 60 m 25
 390 0 l 1049
90 60 m 25
 150 0 l 1049
90 625 m 25
 150 565 l 1049
120 595 m 9
 120 30 l 1049
360 30 m 25
 360 310 l 25
 270 400 l 1
 120 250 l 1049
EndSplineSet
Fore
SplineSet
44 600 m 1xdc
 115 671 l 1
 155 630 l 1
 166 620 l 1
 196 590 l 1
 166 560 l 1
 166 317 l 1
 295 446 l 1
 406 335 l 1
 406 55 l 1
 436 25 l 1
 365 -46 l 1
 335 -16 l 1
 314 5 l 1
 284 35 l 1
 314 65 l 1
 314 285 l 2
 314 322 265 334 245 354 c 1
 166 275 l 1
 166 55 l 1
 196 25 l 1
 125 -46 l 1
 74 5 l 1
 44 35 l 1
 74 65 l 1
 74 225 l 1
 74 570 l 1
 44 600 l 1xdc
EndSplineSet
Substitution2: "Stylistic alternates-1" h.alt
EndChar
StartChar: j
Encoding: 106 106 74
Width: 240
Flags: W
HStem: -196 21G<15 55> 426 20G<95 135> 426 20G<95 135> 494 21G<75 115>
VStem: 74 92<-65 335>
LayerCount: 2
Back
SplineSet
120 660 m 25
 180 600 l 25
 120 540 l 1049
150 340 m 25
 90 400 l 25
 30 340 l 1049
120 370 m 1
 120 -90 l 9
 60 -150 l 1049
EndSplineSet
Fore
SplineSet
74 635 m 1x98
 145 706 l 1
 226 625 l 1
 95 494 l 1
 74 515 l 1
 134 575 l 1
 74 635 l 1x98
166 395 m 1
 196 365 l 1
 166 335 l 1
 166 -65 l 1
 35 -196 l 1
 14 -175 l 1
 74 -115 l 1
 74 345 l 1
 65 354 l 1
 5 294 l 1
 -16 315 l 1
 115 446 l 1xd8
 145 416 l 1
 166 395 l 1
EndSplineSet
Substitution2: "Dotless forms-1" dotlessj
EndChar
StartChar: k
Encoding: 107 107 75
Width: 480
Flags: W
HStem: -46 21G<105 145 345 385> 451 20G<335 375> 651 20G<95 134.512>
VStem: 74 92<65 198 259 560> 314 92<65 167>
AnchorPoint: "blwmark" 240 0 basechar 0
AnchorPoint: "abvmark" 240 700 basechar 0
LayerCount: 2
Back
SplineSet
330 425 m 25
 390 365 l 1049
90 625 m 25
 150 565 l 1049
90 625 m 25
 150 565 l 1049
120 200 m 1
 360 350 l 9
 360 395 l 1049
240 275 m 1
 360 200 l 1
 360 30 l 1025
330 60 m 25
 390 0 l 1049
90 60 m 25
 150 0 l 1049
90 625 m 25
 150 565 l 1049
120 595 m 9
 120 30 l 1049
EndSplineSet
Fore
SplineSet
284 400 m 1
 355 471 l 1
 385 441 l 1
 406 420 l 1
 436 390 l 1
 365 319 l 1
 358 327 l 1
 335 304 l 1
 314 290 l 1
 385 246 l 1
 406 225 l 1
 406 55 l 1
 436 25 l 1
 365 -46 l 1
 335 -16 l 1
 314 5 l 1
 284 35 l 1
 314 65 l 1
 314 167 l 1
 215 229 l 1
 166 198 l 1
 166 55 l 1
 196 25 l 1
 125 -46 l 1
 74 5 l 1
 44 35 l 1
 74 65 l 1
 74 175 l 1
 74 570 l 1
 44 600 l 1
 115 671 l 1
 155 630 l 1
 166 620 l 1
 196 590 l 1
 166 560 l 1
 166 259 l 1
 314 352 l 1
 314 370 l 1
 284 400 l 1
EndSplineSet
EndChar
StartChar: l
Encoding: 108 108 76
Width: 240
Flags: W
HStem: -46 21G<105 145> 651 20G<95 134.512>
VStem: 74 92<65 560>
AnchorPoint: "blwmark" 120 0 basechar 0
AnchorPoint: "abvmark" 120 700 basechar 0
LayerCount: 2
Back
SplineSet
90 60 m 25
 150 0 l 25
 210 60 l 1049
90 625 m 25
 150 565 l 1049
120 595 m 9
 120 30 l 1049
EndSplineSet
Fore
SplineSet
44 600 m 1
 115 671 l 1
 155 630 l 1
 166 620 l 1
 196 590 l 1
 166 560 l 1
 166 55 l 1
 175 46 l 1
 235 106 l 1
 256 85 l 1
 125 -46 l 1
 44 35 l 1
 74 65 l 1
 74 570 l 1
 44 600 l 1
EndSplineSet
EndChar
StartChar: p
Encoding: 112 112 80
Width: 480
Flags: W
HStem: -196 21G<75 115> -46 21G<15 51 200 235> 426 20G<95 135 245 285> 426 20G<95 135 245 285>
VStem: 74 92<-125 -10 105 305> 314 92<145 300.42>
AnchorPoint: "abvmark" 240 500 basechar 0
LayerCount: 2
Back
SplineSet
60 0 m 1
 60 0 115 60 150 60 c 0
 185 60 240 0 240 0 c 9
 360 120 l 1
 360 280 l 25
 240 400 l 1
 120 280 l 1049
90 400 m 25
 150 340 l 1049
120 370 m 1
 120 -150 l 1025
EndSplineSet
Fore
SplineSet
44 375 m 1xec
 115 446 l 1
 145 416 l 1
 166 395 l 1
 190 371 l 1
 265 446 l 1
 406 305 l 1
 406 145 l 1
 215 -46 l 1
 200 -30 l 2
 191 -22 179 -12 166 -3 c 1
 166 -125 l 1
 95 -196 l 1
 74 -175 l 1
 74 -10 l 1
 65 -17 57 -24 51 -30 c 2
 35 -46 l 1
 14 -25 l 1
 14 -25 16 -22 21 -17 c 2
 74 35 l 1
 74 255 l 1
 74 345 l 1
 44 375 l 1xec
166 305 m 1
 166 105 l 2
 169 106 172 106 175 106 c 0
 202 106 241 70 257 54 c 2
 265 46 l 1
 314 95 l 1
 314 255 l 2
 314 308 244 325 215 354 c 1
 166 305 l 1
EndSplineSet
EndChar
StartChar: t
Encoding: 116 116 84
Width: 390
Flags: W
HStem: -46 21G<165 205> 354 92<85 104 196 275> 576 20G<155 195>
VStem: 104 92<57.9004 354 446 525>
AnchorPoint: "blwmark" 210 0 basechar 0
AnchorPoint: "abvmark" 180 650 basechar 0
LayerCount: 2
Back
SplineSet
60 400 m 25
 300 400 l 1049
150 550 m 1
 150 60 l 1
 210 0 l 1
 330 120 l 1025
EndSplineSet
Fore
SplineSet
175 596 m 1
 196 575 l 1
 196 446 l 1
 325 446 l 1
 346 425 l 1
 275 354 l 1
 196 354 l 1
 196 85 l 2
 196 65 224 57 235 46 c 1
 355 166 l 1
 376 145 l 1
 185 -46 l 1
 104 35 l 1
 104 354 l 1
 35 354 l 1
 14 375 l 1
 85 446 l 1
 104 446 l 1
 104 525 l 1
 175 596 l 1
EndSplineSet
EndChar
StartChar: v
Encoding: 118 118 86
Width: 480
Flags: W
HStem: -46 21G<195 235> 426 20G<95 135> 446 130G<95 135 390.5 411>
VStem: 74 92<99.5798 335> 254 92<438.511 499.5> 314 92<145 345>
AnchorPoint: "blwmark" 240 0 basechar 0
LayerCount: 2
Back
SplineSet
150 340 m 25
 90 400 l 1049
120 370 m 25
 120 120 l 1
 240 0 l 25
 360 120 l 1
 360 370 l 17
 360 370 300 423 300 472 c 8
 300 521 364 550 366 550 c 1033
EndSplineSet
Fore
SplineSet
145 416 m 1xd4
 196 365 l 1
 166 335 l 1
 166 145 l 2
 166 92 236 75 265 46 c 1
 314 95 l 1
 314 345 l 1xd4
 306 353 l 2
 290 369 254 409 254 447 c 0
 254 467 264 484 277 497 c 2
 348 567 l 2
 367 585 390 596 391 596 c 2
 412 575 l 1
 348 510 l 2
 347 506 346 502 346 497 c 0xd8
 346 464 372 430 390 410 c 2
 406 395 l 1
 406 145 l 1
 215 -46 l 1
 74 95 l 1
 74 345 l 1
 44 375 l 1
 115 446 l 1
 145 416 l 1xd4
EndSplineSet
Substitution2: "Dotless forms-1" v.alt
EndChar
StartChar: z
Encoding: 122 122 90
Width: 420
Flags: W
HStem: -246 92<176.078 237.806> -196 92<57.7814 127.5> 294 92<118.511 187> 426 20G<65 105 253 285> 426 20G<65 105 253 285>
VStem: 254 92<-125 66>
AnchorPoint: "abvmark" 180 500 basechar 0
LayerCount: 2
Back
SplineSet
60 400 m 17
 60 400 97 340 150 340 c 0
 184 340 240 400 240 400 c 1
 300 340 l 1
 120 200 l 1
 300 100 l 1
 300 -150 l 1
 300 -150 244 -200 210 -200 c 0
 172 -200 115 -150 90 -150 c 16
 44 -150 0 -200 0 -200 c 1025
EndSplineSet
Fore
SplineSet
85 446 m 1xb4
 106 425 l 1
 106 425 110 418 117 409 c 0
 133 396 152 386 175 386 c 0
 199 386 235 417 253 434 c 2
 265 446 l 1
 346 365 l 1
 275 294 l 1
 185 224 l 1
 325 146 l 1
 346 125 l 1
 346 -125 l 1
 275 -196 l 1x74
 275 -196 219 -246 185 -246 c 0xa4
 147 -246 90 -196 65 -196 c 0x64
 33 -196 3 -221 -13 -235 c 2
 -25 -246 l 1xa4
 -46 -225 l 1
 -46 -225 -44 -222 -41 -219 c 2
 30 -149 l 2
 43 -136 78 -104 115 -104 c 0x64
 140 -104 197 -154 235 -154 c 0
 241 -154 247 -153 254 -150 c 1
 254 66 l 1
 95 154 l 1
 74 175 l 1
 145 246 l 1
 245 324 l 1
 215 354 l 1
 210 348 l 2
 195 333 152 294 125 294 c 0
 97 294 73 311 57 327 c 2
 36 348 l 2
 22 362 14 375 14 375 c 1
 85 446 l 1xb4
EndSplineSet
EndChar
StartChar: braceleft
Encoding: 123 123 91
Width: 360
Flags: W
HStem: -196 21G<227 295>
VStem: 134 92<-63 163 395 555>
LayerCount: 2
Back
SplineSet
300 700 m 25
 180 580 l 1
 180 370 l 25
 60 250 l 25
 180 200 l 25
 180 -100 l 1
 300 -150 l 1049
EndSplineSet
Fore
SplineSet
325 746 m 1
 346 725 l 1
 226 605 l 1
 226 395 l 1
 115 283 l 1
 205 246 l 1
 226 225 l 1
 226 -63 l 1
 325 -104 l 1
 346 -125 l 1
 275 -196 l 1
 155 -146 l 1
 134 -125 l 1
 134 163 l 1
 35 204 l 1
 14 225 l 1
 134 345 l 1
 134 555 l 1
 325 746 l 1
EndSplineSet
EndChar
StartChar: bar
Encoding: 124 124 92
Width: 300
Flags: W
HStem: -196 21G<105 145>
VStem: 104 92<-125 675>
LayerCount: 2
Back
SplineSet
150 -150 m 25
 150 700 l 1049
EndSplineSet
Fore
SplineSet
125 -196 m 1
 104 -175 l 1
 104 675 l 1
 175 746 l 1
 196 725 l 1
 196 -125 l 1
 125 -196 l 1
EndSplineSet
EndChar
StartChar: braceright
Encoding: 125 125 93
Width: 360
Flags: W
HStem: -196 21G<15 55>
VStem: 134 92<-5 155 387 613>
LayerCount: 2
Back
SplineSet
60 700 m 25
 180 650 l 1
 180 350 l 25
 300 300 l 25
 180 180 l 25
 180 -30 l 1
 60 -150 l 1049
EndSplineSet
Fore
SplineSet
14 675 m 1
 85 746 l 1
 205 696 l 1
 226 675 l 1
 226 387 l 1
 325 346 l 1
 346 325 l 1
 226 205 l 1
 226 -5 l 1
 35 -196 l 1
 14 -175 l 1
 134 -55 l 1
 134 155 l 1
 245 267 l 1
 155 304 l 1
 134 325 l 1
 134 613 l 1
 35 654 l 1
 14 675 l 1
EndSplineSet
EndChar
StartChar: sterling
Encoding: 163 163 203
Width: 660
Flags: W
HStem: 4 92<120.289 194 256 378.786> 254 92<287.567 420.675> 554 92<295.516 378.032> 554 67<416.119 456>
VStem: 194 92<125 264 362.877 547.312>
LayerCount: 2
Back
SplineSet
481 600 m 1
 480 600 454 575 420 575 c 3
 394 575 372 600 329 600 c 3
 281 600 240 550 240 550 c 1
 240 100 l 1025
600 121.200195312 m 1
 480 0 l 17
 480 0 419 50 180 50 c 3
 97 50 60 0 60 0 c 1033
120 275 m 17
 120 275 168 325 210 325 c 27
 281 325 319 300 390 300 c 27
 432 300 480 350 480 350 c 1033
EndSplineSet
Fore
SplineSet
95 229 m 1xe8
 74 250 l 1
 74 250 74 250 75 251 c 2
 146 322 l 2
 151 327 170 346 194 359 c 1
 194 525 l 1
 194 525 197 529 202 534 c 2
 273 605 l 2
 287 619 319 646 354 646 c 0xe8
 397 646 419 621 445 621 c 0xd8
 479 621 505 646 506 646 c 2xe8
 527 625 l 1
 456 554 l 2xd8
 455 554 429 529 395 529 c 0
 369 529 347 554 304 554 c 0
 298 554 290 553 286 552 c 1
 286 367 l 1
 329 360 363 346 415 346 c 0
 452 346 493 385 502 394 c 2
 505 396 l 1
 526 375 l 2
 526 375 526 375 525 374 c 2
 454 303 l 2
 447 296 403 254 365 254 c 0
 334 254 310 259 286 264 c 1
 286 125 l 1
 256 95 l 1
 443 89 499 50 504 46 c 1
 554 96 l 1
 625 167 l 1
 646 146 l 1
 526 25 l 1
 455 -46 l 1
 455 -46 394 4 155 4 c 0
 101 4 67 -17 50 -31 c 2
 35 -46 l 1
 14 -25 l 2
 14 -25 16 -22 20 -18 c 2
 21 -18 l 2
 91 53 l 2
 104 66 137 93 194 96 c 1
 194 279 l 2
 191 279 188 279 185 279 c 0
 148 279 108 241 98 231 c 2
 95 229 l 1xe8
EndSplineSet
EndChar
StartChar: section
Encoding: 167 167 206
Width: 600
Flags: W
HStem: -186 92<147.742 258.669> 594 92<349.165 460.652>
VStem: 74 92<199 255 489 555> 434 92<-55 11 245 301>
LayerCount: 2
Back
SplineSet
240 400 m 25
 120 280 l 25
 120 160 l 25
 480 50 l 25
 480 -80 l 25
 360 -200 l 17
 360 -200 264 -140 196 -140 c 27
 138 -140 60 -200 60 -200 c 1033
540 700 m 17
 540 700 473 640 420 640 c 27
 345 640 240 700 240 700 c 9
 120 580 l 25
 120 450 l 25
 480 340 l 25
 480 220 l 25
 360 100 l 1049
EndSplineSet
Fore
SplineSet
586 725 m 1
 515 654 l 1
 515 654 448 594 395 594 c 0
 320 594 215 654 215 654 c 2
 215 654 170 609 166 605 c 2
 166 489 l 1
 505 386 l 1
 526 365 l 1
 526 245 l 1
 407 126 l 1
 505 96 l 1
 526 75 l 1
 526 -55 l 1
 335 -246 l 1
 335 -246 239 -186 171 -186 c 0
 113 -186 35 -246 35 -246 c 1
 14 -225 l 1
 85 -154 l 1
 85 -154 163 -94 221 -94 c 0
 289 -94 385 -154 385 -154 c 1
 434 -105 l 1
 434 11 l 1
 95 114 l 1
 74 135 l 1
 74 255 l 1
 193 374 l 1
 95 404 l 1
 74 425 l 1
 74 555 l 1
 265 746 l 1
 265 746 370 686 445 686 c 0
 498 686 565 746 565 746 c 1
 586 725 l 1
375 136 m 1
 434 195 l 1
 434 301 l 1
 225 364 l 1
 166 305 l 1
 166 199 l 1
 375 136 l 1
EndSplineSet
EndChar
StartChar: guillemotleft
Encoding: 171 171 215
Width: 660
Flags: W
LayerCount: 2
Back
SplineSet
570 325 m 17
 570 325 543.919921876 295.744140624 510 275 c 0
 396 207 360 200 360 200 c 1
 360 200 437 174 540 100 c 0
 565.150390624 81.732421875 600 50 600 50 c 1033
270 325 m 17
 270 325 243.919921876 295.744140624 210 275 c 0
 96 207 60 200 60 200 c 1
 60 200 137 174 240 100 c 0
 265.14976701 81.7315958294 300 50 300 50 c 1033
EndSplineSet
Fore
SplineSet
295 371 m 1
 316 350 l 1
 316 350 313 347 308 342 c 2
 238 271 l 2
 228 261 208 243 185 229 c 0
 175 223 166 218 158 213 c 1
 187 197 224 175 265 146 c 0
 290 128 325 96 325 96 c 1
 346 75 l 1
 275 4 l 1
 275 4 240 36 215 54 c 0
 112 128 35 154 35 154 c 1
 14 175 l 1
 85 246 l 1
 85 246 121 253 235 321 c 0
 252 332 267 344 278 354 c 2
 295 371 l 1
595 371 m 1
 616 350 l 1
 616 350 613 347 608 342 c 2
 538 271 l 2
 528 261 508 243 485 229 c 0
 475 223 466 218 458 213 c 1
 487 197 524 175 565 146 c 0
 590 128 625 96 625 96 c 1
 646 75 l 1
 575 4 l 1
 575 4 540 36 515 54 c 0
 412 128 335 154 335 154 c 1
 314 175 l 1
 385 246 l 1
 385 246 421 253 535 321 c 0
 552 332 567 344 578 354 c 2
 595 371 l 1
EndSplineSet
EndChar
StartChar: logicalnot
Encoding: 172 172 225
Width: 720
Flags: W
HStem: 354 92<145 554>
VStem: 554 92<225 354>
LayerCount: 2
Back
SplineSet
120 400 m 25
 600 400 l 25
 600 200 l 1049
EndSplineSet
Fore
SplineSet
74 375 m 1
 145 446 l 1
 625 446 l 1
 646 425 l 1
 646 225 l 1
 575 154 l 1
 554 175 l 1
 554 354 l 1
 95 354 l 1
 74 375 l 1
EndSplineSet
EndChar
StartChar: registered
Encoding: 174 174 222
Width: 840
Flags: W
HStem: -35 70<302.975 569.44> 127 70<258.759 321 341 353.096> 430 70<258.234 314.957> 565 70<270.56 537.025>
VStem: 25 70<216.539 413.34> 321 20<197 417> 379 70<187 417> 527 70<186 290> 745 70<186.66 383.461>
LayerCount: 2
Back
SplineSet
232 438 m 1
 232 438 255 465 281 465 c 3
 305 465 317 451 331 451 c 3
 349 451 364 465 365 465 c 1025
331 438 m 1
 331 176 l 1025
496 314 m 1
 595 396 l 1
 446 465 l 1
 414 438 l 1
 414 162 l 1
 380 135 l 1
 380 135 363 162 298 162 c 3
 252 162 232 135 232 135 c 1033
530 340 m 5
 562 314 l 1
 562 162 l 1
 595 135 l 9
 628 162 l 1049
60 350 m 0
 60 475 210 600 360 600 c 0
 660 600 780 500 780 250 c 0
 780 125 630 0 480 0 c 0
 180 0 60 100 60 350 c 0
EndSplineSet
Fore
SplineSet
25 329 m 0
 25 383 52 437 96 481 c 2
 153 538 l 2
 211 596 296 635 381 635 c 0
 543 635 654 606 720 540 c 2
 734 525 l 2
 790 469 815 386 815 271 c 0
 815 217 788 163 744 119 c 2
 687 62 l 2
 629 4 544 -35 459 -35 c 0
 297 -35 186 -6 120 60 c 2
 106 75 l 2
 50 131 25 214 25 329 c 0
95 371 m 0
 95 261 118 180 170 124 c 1
 237 63 345 35 501 35 c 0
 572 35 644 63 699 106 c 1
 727 143 745 186 745 229 c 0
 745 339 722 420 670 476 c 1
 603 537 495 565 339 565 c 0
 268 565 196 537 141 494 c 1
 113 457 95 414 95 371 c 0
461 293 m 1
 517 349 l 1
 546 373 l 1
 449 418 l 1
 449 183 l 1
 393 127 l 1
 359 100 l 1
 351 107 l 2
 340 115 319 127 277 127 c 0
 247 127 227 115 218 107 c 2
 211 100 l 1
 197 114 l 2
 197 114 198 115 200 117 c 2
 200 118 l 2
 257 174 l 2
 264 181 284 197 319 197 c 0
 320 197 320 197 321 197 c 2
 321 417 l 2
 317 416 314 416 310 416 c 0
 296 416 284 430 260 430 c 0
 243 430 228 418 219 410 c 2
 211 403 l 1
 197 417 l 1
 197 417 198 419 200 421 c 2
 257 477 l 2
 264 484 282 500 302 500 c 0
 326 500 338 486 352 486 c 0
 370 486 385 500 386 500 c 2
 400 486 l 1
 344 430 l 2
 344 430 343 429 341 428 c 2
 341 196 l 1
 357 194 370 191 379 187 c 1
 379 417 l 1
 435 473 l 1
 467 500 l 1
 616 431 l 1
 630 417 l 1
 574 361 l 1
 572 359 l 1
 583 349 l 1
 597 335 l 1
 597 186 l 1
 616 170 l 1
 649 197 l 1
 663 183 l 1
 607 127 l 1
 574 100 l 1
 541 127 l 1
 527 141 l 1
 527 290 l 1
 509 305 l 1
 508 306 l 1
 475 279 l 1
 461 293 l 1
EndSplineSet
EndChar
StartChar: degree
Encoding: 176 176 229
Width: 600
Flags: W
HStem: 379 92<250.602 379.582> 679 92<220.092 349.398>
VStem: 74 92<544.891 633.605> 434 92<516.395 605.109>
LayerCount: 2
Back
SplineSet
120 600 m 0
 120 660 198 725 270 725 c 0
 390 725 480 650 480 550 c 0
 480 490 402 425 330 425 c 0
 210 425 120 500 120 600 c 0
EndSplineSet
Fore
SplineSet
74 575 m 0
 74 601 88 628 110 650 c 2
 181 720 l 2
 182 721 l 2
 212 750 254 771 295 771 c 0
 362 771 419 748 457 710 c 2
 478 689 l 1
 478 688 l 2
 508 658 526 619 526 575 c 0
 526 549 512 522 490 500 c 2
 419 430 l 2
 390 401 346 379 305 379 c 0
 238 379 181 402 143 440 c 2
 122 461 l 1
 122 462 l 0
 92 492 74 531 74 575 c 0
166 625 m 0
 166 586 180 551 204 522 c 1
 242 490 294 471 355 471 c 0
 379 471 404 478 426 490 c 1
 431 501 434 513 434 525 c 0
 434 564 420 599 396 628 c 1
 358 660 306 679 245 679 c 0
 221 679 196 672 174 660 c 1
 169 649 166 637 166 625 c 0
EndSplineSet
EndChar
StartChar: micro
Encoding: 181 181 209
Width: 480
Flags: W
HStem: -196 21G<75 115> 426 20G<95 135 335 375> 426 20G<95 135 335 375>
VStem: 74 92<-125 -26 71 335> 314 92<95 335>
LayerCount: 2
Back
SplineSet
120 370 m 1
 120 -150 l 1025
150 340 m 9
 90 400 l 1041
450 60 m 9
 390 0 l 1
 360 30 l 17
 360 370 l 1025
390 340 m 9
 330 400 l 1041
60 0 m 1
 60 0 71.9384760968 25 150 25 c 3
 223 25 240 0 240 0 c 9
 360 120 l 1025
EndSplineSet
Fore
SplineSet
35 -46 m 1xd8
 14 -25 l 1
 14 -25 15 -23 17 -21 c 2
 74 36 l 1
 74 345 l 1
 44 375 l 1
 115 446 l 1
 145 416 l 1
 155 405 l 1
 196 365 l 1
 166 335 l 1
 166 71 l 2
 169 71 172 71 175 71 c 0
 235 71 257 54 263 48 c 2
 265 46 l 1
 314 95 l 1
 314 345 l 1
 284 375 l 1
 355 446 l 1
 385 416 l 1
 406 395 l 1
 436 365 l 1
 406 335 l 1
 406 145 l 1
 406 55 l 1
 415 46 l 1
 475 106 l 1
 496 85 l 1
 365 -46 l 1
 314 5 l 1
 314 53 l 1
 215 -46 l 1
 211 -41 l 2
 205 -36 192 -28 166 -24 c 1
 166 -125 l 1
 95 -196 l 1
 74 -175 l 1
 74 -26 l 1
 59 -29 49 -34 43 -38 c 2
 35 -46 l 1xd8
EndSplineSet
EndChar
StartChar: periodcentered
Encoding: 183 183 212
Width: 360
Flags: W
HStem: 254 152
VStem: 104 152
LayerCount: 2
Back
SplineSet
150 360 m 25
 210 300 l 1049
EndSplineSet
Fore
SplineSet
104 335 m 1
 175 406 l 1
 256 325 l 1
 185 254 l 1
 104 335 l 1
EndSplineSet
EndChar
StartChar: cedilla
Encoding: 184 184 102
Width: 480
Flags: W
HStem: -221 92<87.4779 232.481>
LayerCount: 2
Back
SplineSet
240 0 m 25
 210 -25 l 1
 360 -50 l 1
 240 -200 l 1
 240 -200 209 -175 150 -175 c 3
 78 -175 60 -200 60 -200 c 1025
EndSplineSet
Fore
SplineSet
286 25 m 1
 275 14 l 1
 385 -4 l 1
 406 -25 l 1
 286 -175 l 1
 215 -246 l 1
 215 -246 184 -221 125 -221 c 0
 70 -221 47 -235 39 -242 c 2
 35 -246 l 1
 14 -225 l 2
 14 -225 15 -224 16 -223 c 2
 86 -152 l 2
 92 -146 115 -129 175 -129 c 0
 215 -129 242 -141 255 -148 c 1
 302 -90 l 1
 185 -71 l 1
 164 -50 l 1
 235 21 l 1
 265 46 l 1
 286 25 l 1
EndSplineSet
EndChar
StartChar: ordmasculine
Encoding: 186 186 211
Width: 480
Flags: W
HStem: 154 92<85 395>
VStem: 74 92<399.58 555> 314 92<445 600.42>
LayerCount: 2
Back
SplineSet
240 700 m 25
 120 580 l 25
 120 420 l 25
 240 300 l 25
 360 420 l 25
 360 580 l 25
 240 700 l 25
60 200 m 25
 420 200 l 1049
EndSplineSet
Fore
SplineSet
14 175 m 1
 85 246 l 1
 445 246 l 1
 466 225 l 1
 395 154 l 1
 35 154 l 1
 14 175 l 1
215 654 m 1
 166 605 l 1
 166 445 l 2
 166 392 236 375 265 346 c 1
 314 395 l 1
 314 555 l 2
 314 608 244 625 215 654 c 1
74 555 m 1
 265 746 l 1
 406 605 l 1
 406 445 l 1
 215 254 l 1
 74 395 l 1
 74 555 l 1
EndSplineSet
EndChar
StartChar: AE
Encoding: 198 198 188
Width: 1380
Flags: W
HStem: -46 92<857.463 1034.02> 4 92<119.651 226.305> 304 92<299.484 339 1051.9 1074> 446 21G<795 825> 504 92<1109.19 1177.36> 526 20G<995 1035> 529 21G<225 259 795 825> 554 92<299.105 356.209 983.601 1053.05> 554 74<300 353.388>
VStem: 374 92<396.219 522.301> 825 30<76 455 528 564> 944 92<125 303.999 363 475>
AnchorPoint: "blwmark" 720 0 basechar 0
AnchorPoint: "abvmark" 720 700 basechar 0
LayerCount: 2
Back
SplineSet
630 550 m 9
 570 600 l 25
 510 550 l 1041
240 300 m 1
 240 300 276 350 360 350 c 3
 512 350 600 250 601 250 c 1025
270 575 m 1
 270 575 282 600 330 600 c 11
 389 600 420 549 420 500 c 3
 420 263 211 75 211 75 c 1025
60 0 m 1
 60 0 97 50 180 50 c 3
 298 50 330 0 330 0 c 1025
600 575 m 1
 630 300 l 1025
990 300 m 25
 990 300 1046 350 1080 350 c 27
 1122 350 1098 300 1140 300 c 3
 1189 300 1230 350 1231 350 c 1049
840 550 m 1
 840 100 l 1025
990 500 m 1
 990 100 l 1025
840 600 m 1
 840 600 630 480 630 300 c 3
 630 134 744 0 960 0 c 3
 1103 0 1261 150 1262 150 c 1025
840 492 m 1
 840 492 954 600 1026 600 c 3
 1103 600 1070 550 1140 550 c 3
 1198 550 1230 600 1231 600 c 1025
EndSplineSet
Fore
SplineSet
1015 546 m 1x3470
 1036 525 l 1
 1036 363 l 1
 1055 377 1084 396 1105 396 c 0
 1115 396 1121 393 1125 389 c 2
 1146 368 l 2
 1151 363 1154 354 1157 347 c 0
 1159 347 1162 346 1165 346 c 0
 1199 346 1228 369 1244 384 c 2
 1255 395 l 2
 1255 396 l 0
 1256 396 l 2
 1277 375 l 1
 1274 372 l 2
 1273 371 1271 369 1270 368 c 2
 1200 297 l 2
 1186 283 1153 254 1115 254 c 0
 1105 254 1100 257 1095 261 c 0
 1074 282 l 2
 1068 288 1066 295 1063 303 c 0
 1062 303 1058 304 1055 304 c 0
 1049 304 1043 302 1036 300 c 1
 1036 125 l 1
 965 54 l 1
 944 75 l 1
 944 275 l 1
 944 475 l 1
 1015 546 l 1x3470
35 -46 m 1xb070
 14 -25 l 1
 14 -25 17 -22 21 -18 c 2
 91 53 l 2
 105 67 142 96 205 96 c 0
 206 96 208 96 209 96 c 0
 248 140 303 214 339 304 c 1
 338 304 336 304 335 304 c 0
 283 304 250 285 231 270 c 2
 215 254 l 1
 194 275 l 1
 194 275 196 278 201 283 c 2
 272 354 l 2
 285 367 314 390 366 395 c 1
 371 421 374 448 374 475 c 0
 374 498 367 520 354 539 c 1
 341 548 324 554 305 554 c 0x7170
 282 554 269 549 259 543 c 2
 245 529 l 1
 224 550 l 1
 224 550 225 553 229 557 c 2
 300 628 l 2
 301 628 l 0x32f0
 309 636 324 646 355 646 c 0x3170
 381 646 400 637 415 622 c 2
 436 600 l 2
 437 600 l 0
 456 581 465 554 466 527 c 1
 535 596 l 1x3870
 595 646 l 1x3170
 625 621 l 1
 655 596 l 1x3870
 676 575 l 1
 651 550 l 1
 661 462 l 1
 670 473 680 483 689 492 c 0
 689 493 l 2
 760 564 l 2
 812 616 865 646 865 646 c 1
 886 625 l 1
 855 594 l 1
 855 528 l 1
 865 538 l 1
 865 538 979 646 1051 646 c 0x3370
 1081 646 1094 638 1103 629 c 2
 1124 608 l 2
 1125 607 1127 605 1128 604 c 0
 1136 599 1148 596 1165 596 c 0x3870
 1192 596 1212 607 1227 618 c 2
 1256 646 l 2x3170
 1277 625 l 2
 1275 623 1270 616 1263 609 c 2
 1193 539 l 2
 1178 524 1151 504 1115 504 c 0x3870
 1090 504 1079 510 1070 519 c 2
 1048 540 l 2
 1047 541 1045 544 1044 545 c 0
 1035 550 1022 554 1001 554 c 0
 956 554 895 512 855 480 c 1
 855 65 l 1
 893 53 937 46 985 46 c 0
 1128 46 1286 196 1287 196 c 2
 1308 175 l 1
 1237 104 l 2
 1236 104 1078 -46 935 -46 c 0
 826 -46 743 -11 687 44 c 0
 666 65 l 2
 625 106 599 159 589 217 c 1
 576 204 l 2
 575 204 514 274 405 297 c 1
 358 206 296 138 270 112 c 2
 251 93 l 1
 310 85 338 64 349 53 c 2
 370 32 l 2
 374 28 376 25 376 25 c 1
 305 -46 l 1xb170
 291 -32 l 2
 272 -17 232 4 155 4 c 0x7070
 102 4 68 -16 50 -31 c 2
 35 -46 l 1xb070
825 564 m 1
 815 554 l 1x30f0
 815 554 784 536 748 506 c 1
 708 457 676 396 676 325 c 0
 676 249 700 178 747 126 c 0
 769 106 795 89 825 76 c 1
 825 455 l 1
 819 449 815 446 815 446 c 2
 794 467 l 1
 825 498 l 1
 825 564 l 1
445 391 m 1
 502 381 546 357 577 336 c 1
 554 546 l 1
 545 554 l 1x34f0
 485 504 l 1x3870
 466 523 l 1
 466 477 458 433 445 391 c 1
EndSplineSet
EndChar
StartChar: Oslash
Encoding: 216 216 182
Width: 960
Flags: W
HStem: -46 92<377.463 555.872> 446 21G<315 345> 446 21G<315 345> 626 20G<359.39 405 533 596.5 840.778 885>
VStem: 104 92<207.683 373.047> 345 30<76 162 238 456 533 564> 465 92<125 262 313 339 390 525> 738 92<222.307 417.262>
AnchorPoint: "abvmark" 540 700 basechar 0
LayerCount: 2
Back
SplineSet
840 600 m 25
 120 0 l 1049
360 550 m 1
 360 100 l 1025
512 550 m 1
 510 100 l 1025
360 600 m 1
 360 600 150 480 150 300 c 3
 150 134 264 0 480 0 c 3
 623 0 784 142 784 300 c 3
 784 512 673 600 540 600 c 3
 436 600 360 492 360 492 c 1025
EndSplineSet
Fore
SplineSet
886 625 m 1x9f
 815 554 l 1
 780 525 l 1
 811 477 830 412 830 325 c 0
 830 249 794 177 739 122 c 2
 738 122 l 1
 667 51 l 2
 608 -8 529 -46 455 -46 c 0
 346 -46 263 -11 207 44 c 0
 205 46 l 1
 95 -46 l 1
 74 -25 l 1
 145 46 l 1
 178 74 l 1
 129 127 104 197 104 275 c 0
 104 365 156 439 209 492 c 0
 209 493 l 2
 280 564 l 2
 332 616 385 646 385 646 c 1
 406 625 l 1
 375 594 l 1
 375 533 l 1
 415 573 l 2
 447 605 501 646 565 646 c 0
 628 646 686 627 730 583 c 2
 751 561 l 2
 753 559 754 558 756 556 c 2
 865 646 l 1
 886 625 l 1x9f
493 552 m 1
 457 547 426 530 401 512 c 1
 375 486 l 1
 375 238 l 1
 465 313 l 1
 466 525 l 1
 493 552 l 1
558 551 m 1
 557 390 l 1
 678 490 l 1
 675 494 673 498 670 501 c 0
 638 529 600 545 558 551 c 1
345 564 m 1
 335 554 l 1
 335 554 304 536 268 506 c 1
 228 457 196 396 196 325 c 0
 196 255 216 190 256 139 c 1
 345 213 l 1
 345 456 l 1
 335 446 l 1xdf
 314 467 l 2xbf
 314 467 325 483 344 502 c 2
 345 502 l 2
 345 503 l 1
 345 564 l 1
345 76 m 1
 345 162 l 1
 284 112 l 1
 302 98 323 86 345 76 c 1
375 65 m 1
 413 53 457 46 505 46 c 0
 564 46 627 71 679 110 c 1
 715 158 738 215 738 275 c 0
 738 351 723 411 699 457 c 1
 557 339 l 1
 556 125 l 1
 485 54 l 1
 464 75 l 1
 465 262 l 1
 375 187 l 1
 375 65 l 1
EndSplineSet
EndChar
StartChar: Thorn
Encoding: 222 222 178
Width: 840
Flags: W
HStem: -196 92<30.1559 177.77> 51 95<436 515.462> 426 20G<455 518.2> 426 20G<455 518.2> 504 21G<15 54> 554 92<115.988 198.032> 554 67<255.605 276>
VStem: 225 30<-124 24 26 530> 344 92<-25 42 146 349 407 515> 674 92<195 239>
AnchorPoint: "abvmark" 480 700 basechar 0
LayerCount: 2
Back
SplineSet
300 50 m 17
 300 50 369 100 420 100 c 27
 511 100 600 50 600 50 c 1
 720 170 l 1
 720 275 l 1
 450 400 l 1
 390 340 l 1025
60 550 m 1
 60 550 101 600 149 600 c 3
 192 600 214 575 240 575 c 3
 274 575 300 600 301 600 c 1025
240 550 m 1
 240 -125 l 1025
450 600 m 1
 390 540 l 1
 390 -50 l 1
 240 -200 l 1
 240 -200 208 -150 90 -150 c 3
 7 -150 -30 -200 -28 -200 c 1033
EndSplineSet
Fore
SplineSet
-32 -226 m 2xedc0
 -53 -246 l 1
 -74 -225 l 2
 -74 -225 -72 -221 -67 -216 c 2
 -67 -215 l 2
 4 -145 l 2
 18 -131 55 -104 115 -104 c 0
 167 -104 202 -113 225 -124 c 1
 225 530 l 2
 222 530 218 529 215 529 c 0
 189 529 167 554 124 554 c 0
 96 554 71 537 54 522 c 2
 35 504 l 1
 14 525 l 1
 14 525 17 529 22 534 c 2
 93 605 l 2
 94 606 l 0
 109 621 140 646 174 646 c 0xedc0
 217 646 239 621 265 621 c 0xcbc0
 299 621 325 646 326 646 c 2xcdc0
 347 625 l 1
 276 554 l 2xcbc0
 275 554 268 547 255 540 c 1
 255 26 l 1
 325 96 l 1
 325 96 332 102 344 109 c 1
 344 315 l 1
 344 515 l 1
 475 646 l 1
 496 625 l 1
 436 565 l 1
 436 407 l 1
 475 446 l 1
 745 321 l 1
 766 300 l 1
 766 195 l 1
 575 4 l 1
 575 4 511 40 436 51 c 1
 436 -25 l 1
 215 -246 l 1
 201 -232 l 2
 182 -217 142 -196 65 -196 c 0
 18 -196 -13 -212 -32 -226 c 2xedc0
255 -144 m 2
 256 -145 258 -146 259 -147 c 0
 265 -154 l 1
 344 -75 l 1
 344 42 l 1
 307 27 275 4 275 4 c 2
 255 24 l 1
 255 -144 l 2
436 349 m 1
 436 146 l 2
 439 146 442 146 445 146 c 0
 536 146 625 96 625 96 c 2
 625 96 670 141 674 145 c 2
 674 239 l 1
 436 349 l 1
EndSplineSet
EndChar
StartChar: eth
Encoding: 240 240 181
Width: 480
Flags: W
HStem: 426 20G<245 285> 426 20G<245 285> 505 91<215 265>
VStem: 74 92<99.5798 255> 314 92<145 255 397 474.342>
AnchorPoint: "blwmark" 240 0 basechar 0
AnchorPoint: "abvmark" 300 700 basechar 0
LayerCount: 2
Back
SplineSet
300 610 m 1
 140 450 l 1025
360 280 m 1
 240 400 l 25
 120 280 l 1
 120 120 l 25
 240 0 l 25
 360 120 l 1
 360 450 l 10
 360 510 293 550 240 550 c 0
 187 550 120 549 120 600 c 27
 120 633 180 670 169 650 c 1049
EndSplineSet
Fore
SplineSet
314 255 m 1x38
 215 354 l 1
 166 305 l 1
 166 145 l 2
 166 92 236 75 265 46 c 1
 314 95 l 1
 314 255 l 1x38
314 397 m 1
 314 425 l 2
 314 444 308 461 297 475 c 1
 273 493 242 504 215 504 c 1
 115 404 l 1
 94 425 l 1
 173 505 l 1
 146 506 120 511 106 525 c 2
 85 546 l 2
 78 553 74 562 74 575 c 0
 74 588 83 602 93 612 c 2
 164 683 l 2
 165 683 l 2
 178 696 192 704 195 701 c 2
 216 680 l 2
 217 679 216 678 215 675 c 2
 166 626 l 2
 166 625 l 0
 166 618 167 613 169 608 c 0
 193 596 232 596 265 596 c 1
 325 656 l 1
 346 635 l 1
 301 590 l 1
 322 584 342 573 357 558 c 0
 357 557 l 1
 358 557 l 1
 379 536 l 2
 395 520 406 499 406 475 c 2
 406 145 l 1
 215 -46 l 1
 74 95 l 1
 74 255 l 1
 265 446 l 1xb8
 314 397 l 1
EndSplineSet
EndChar
StartChar: oslash
Encoding: 248 248 183
Width: 480
Flags: W
HStem: 426 20G<245 285 425 465> 426 20G<245 285 425 465>
VStem: 74 92<144 255> 314 92<145 256>
AnchorPoint: "blwmark" 240 0 basechar 0
AnchorPoint: "abvmark" 240 500 basechar 0
LayerCount: 2
Back
SplineSet
420 400 m 25
 60 0 l 1049
240 400 m 25
 120 280 l 25
 120 120 l 25
 240 0 l 25
 360 120 l 25
 360 280 l 25
 240 400 l 25
EndSplineSet
Fore
SplineSet
215 354 m 1x30
 166 305 l 1
 166 145 l 2
 166 144 l 2
 300 293 l 1
 278 319 236 333 215 354 c 1x30
74 255 m 1
 265 446 l 1
 356 355 l 1
 374 375 l 1
 445 446 l 1xb0
 466 425 l 1
 381 330 l 1
 406 305 l 1
 406 145 l 1
 215 -46 l 1
 124 45 l 1
 106 25 l 1
 35 -46 l 1
 14 -25 l 1
 99 70 l 1
 74 95 l 1
 74 255 l 1
180 107 m 1
 202 81 244 67 265 46 c 1
 314 95 l 1
 314 255 l 2
 314 256 l 2
 180 107 l 1
EndSplineSet
EndChar
StartChar: hbar
Encoding: 295 295 964
Width: 480
Flags: W
HStem: 426 20G<275 315> 426 20G<275 315> 429 92<55 74 166 215> 651 20G<95 134.512>
VStem: 74 92<65 275 317 429 521 560> 314 92<65 321.97>
AnchorPoint: "abvmark" 240 700 basechar 0
AnchorPoint: "blwmark" 240 0 basechar 0
LayerCount: 2
Back
SplineSet
330 60 m 25
 390 0 l 1049
90 60 m 25
 150 0 l 1049
90 625 m 25
 150 565 l 1049
120 595 m 9
 120 30 l 1049
360 30 m 25
 360 310 l 25
 270 400 l 1
 120 250 l 1049
240 475 m 25
 30 475 l 1049
EndSplineSet
Fore
SplineSet
286 500 m 1x3c
 215 429 l 1
 166 429 l 1x3c
 166 317 l 1
 295 446 l 1x9c
 406 335 l 1
 406 55 l 1
 436 25 l 1
 365 -46 l 1
 335 -16 l 1
 314 5 l 1
 284 35 l 1
 314 65 l 1
 314 285 l 2
 314 322 265 334 245 354 c 1
 166 275 l 1
 166 55 l 1
 196 25 l 1
 125 -46 l 1
 74 5 l 1
 44 35 l 1
 74 65 l 1
 74 225 l 1
 74 429 l 1
 5 429 l 1
 -16 450 l 1
 55 521 l 1
 74 521 l 1
 74 570 l 1
 44 600 l 1
 115 671 l 1
 155 630 l 1
 166 620 l 1
 196 590 l 1
 166 560 l 1
 166 521 l 1
 265 521 l 1
 286 500 l 1x3c
EndSplineSet
EndChar
StartChar: Lslash
Encoding: 321 321 288
Width: 840
Flags: W
HStem: -46 21G<15 50 407 595> 4 92<120.289 225 255 409.318> 504 21G<15 54> 526 20G<536.957 585> 554 92<115.988 198.032> 554 67<255.605 276>
VStem: 225 30<96 247 325 530> 344 92<175 332 388 397 454 515> 614 92<176.606 236.115>
AnchorPoint: "abvmark" 480 700 basechar 0
AnchorPoint: "blwmark" 420 0 basechar 0
LayerCount: 2
Back
SplineSet
60 550 m 5
 60 550 101 600 149 600 c 7
 192 600 214 575 240 575 c 7
 274 575 300 600 301 600 c 1029
240 550 m 1
 240 75 l 1025
390 150 m 5
 390 540 l 5
 450 600 l 1029
720 300 m 5
 720 300 660 253.200195312 660 210 c 7
 660 136.799804688 720 121.200195312 720 121.200195312 c 5
 600 0 l 21
 600 0 419 50 180 50 c 7
 97 50 60 0 60 0 c 1037
540 500 m 29
 120 200 l 1053
EndSplineSet
Fore
SplineSet
586 525 m 1xfb80
 515 454 l 1
 436 397 l 1
 436 175 l 1
 365 104 l 1
 344 125 l 1
 344 332 l 1
 255 268 l 1
 255 95 l 1
 461 89 614 49 624 46 c 1
 668 90 l 2
 666 91 663 94 661 96 c 0
 640 118 l 2
 627 131 614 152 614 185 c 0
 614 212 637 240 655 258 c 2
 725 328 l 2
 736 339 745 346 745 346 c 1
 766 325 l 1
 730 289 l 2
 717 272 706 254 706 235 c 0
 706 210 713 191 722 178 c 0
 730 173 737 170 741 168 c 0
 743 167 745 167 745 167 c 1
 766 146 l 1
 646 25 l 1
 575 -46 l 1
 575 -46 394 4 155 4 c 0
 101 4 67 -17 50 -31 c 2
 35 -46 l 1
 14 -25 l 2
 14 -25 16 -22 20 -18 c 2
 21 -18 l 2
 91 53 l 2
 105 67 142 96 205 96 c 0
 212 96 218 96 225 96 c 1
 225 247 l 1
 95 154 l 1
 74 175 l 1
 145 246 l 1
 225 303 l 1
 225 530 l 2
 222 530 218 529 215 529 c 0
 189 529 167 554 124 554 c 0
 96 554 71 537 54 522 c 2
 35 504 l 1
 14 525 l 1
 14 525 17 529 22 534 c 2
 93 605 l 2
 94 606 l 0
 109 621 140 646 174 646 c 0xfb80
 217 646 239 621 265 621 c 0xf780
 299 621 325 646 326 646 c 2xfb80
 347 625 l 1
 276 554 l 2xf780
 275 554 268 547 255 540 c 1
 255 325 l 1
 344 388 l 1
 344 515 l 1
 475 646 l 1
 496 625 l 1
 436 565 l 1
 436 454 l 1
 565 546 l 1
 586 525 l 1xfb80
EndSplineSet
EndChar
StartChar: eng
Encoding: 331 331 600
Width: 480
Flags: W
HStem: -246 92<236.078 297.806> -196 92<117.781 187.5>
VStem: 74 92<65 269 311 329> 314 92<-125 279>
AnchorPoint: "abvmark" 240 500 basechar 0
LayerCount: 2
Back
SplineSet
120 244 m 25
 270 394 l 1
 360 304 l 1
 360 -150 l 1
 360 -150 304 -200 270 -200 c 0
 232 -200 175 -150 150 -150 c 16
 104 -150 60 -200 60 -200 c 1033
90 60 m 25
 150 0 l 1049
150 334 m 25
 90 394 l 1049
120 364 m 9
 120 30 l 1025
EndSplineSet
Fore
SplineSet
166 389 m 1xb0
 196 359 l 1
 166 329 l 1
 166 311 l 1
 295 440 l 1
 406 329 l 1
 406 -125 l 1
 335 -196 l 1x70
 335 -196 279 -246 245 -246 c 0xb0
 207 -246 150 -196 125 -196 c 0x70
 93 -196 63 -221 47 -235 c 2
 35 -246 l 1xb0
 14 -225 l 1
 14 -225 16 -222 19 -219 c 2
 90 -149 l 2
 103 -136 138 -104 175 -104 c 0x70
 200 -104 257 -154 295 -154 c 0
 301 -154 307 -153 314 -150 c 1
 314 279 l 1
 245 348 l 1
 166 269 l 1
 166 55 l 1
 196 25 l 1
 125 -46 l 1
 95 -16 l 1
 85 -5 l 1
 44 35 l 1
 74 65 l 1
 74 219 l 1
 74 339 l 1
 44 369 l 1
 115 440 l 1
 145 410 l 1
 166 389 l 1xb0
EndSplineSet
EndChar
StartChar: OE
Encoding: 338 338 116
Width: 1500
Flags: W
HStem: -46 92<347.463 525.872 977.463 1154.02> 446 21G<285 315 915 945> 446 21G<285 315 915 945> 504 92<1222.5 1297.36> 526 20G<1115 1155> 554 92<1103.6 1173.05>
VStem: 74 92<207.533 373.047> 315 30<76 456 533 564> 434 92<125 525> 704 96<198.414 428.095> 945 30<76 455 528 564> 1064 92<125 303.999 363 475>
AnchorPoint: "blwmark" 720 0 basechar 0
AnchorPoint: "abvmark" 780 700 basechar 0
LayerCount: 2
Back
SplineSet
1110 300 m 25
 1110 300 1166 350 1200 350 c 27
 1242 350 1218 300 1260 300 c 3
 1309 300 1350 350 1351 350 c 1049
960 550 m 1
 960 100 l 1025
1110 500 m 1
 1110 100 l 1025
960 600 m 1
 960 600 750 480 750 300 c 3
 750 134 864 0 1080 0 c 3
 1223 0 1381 150 1382 150 c 1025
960 492 m 1
 960 492 1074 600 1146 600 c 3
 1223 600 1190 550 1260 550 c 3
 1318 550 1350 600 1351 600 c 1025
330 550 m 1
 330 100 l 1025
482 550 m 1
 480 100 l 1025
330 600 m 1
 330 600 120 480 120 300 c 3
 120 134 234 0 450 0 c 3
 593 0 754 142 754 300 c 3
 754 512 643 600 510 600 c 3
 406 600 330 492 330 492 c 1025
EndSplineSet
Fore
SplineSet
1135 546 m 1x8bf0
 1156 525 l 1
 1156 363 l 1
 1175 377 1204 396 1225 396 c 0
 1235 396 1241 393 1245 389 c 2
 1266 368 l 2
 1271 363 1274 354 1277 347 c 0
 1279 347 1282 346 1285 346 c 0
 1319 346 1348 369 1364 384 c 2
 1375 395 l 2
 1375 396 l 0
 1376 396 l 2
 1397 375 l 1
 1394 372 l 2
 1393 371 1391 369 1390 368 c 2
 1320 297 l 2
 1306 283 1273 254 1235 254 c 0
 1225 254 1220 257 1215 261 c 0
 1194 282 l 2
 1188 288 1186 295 1183 303 c 0
 1182 303 1178 304 1175 304 c 0
 1169 304 1163 302 1156 300 c 1
 1156 125 l 1
 1085 54 l 1
 1064 75 l 1
 1064 275 l 1
 1064 475 l 1
 1135 546 l 1x8bf0
463 552 m 1
 427 547 396 530 371 512 c 1
 345 486 l 1
 345 65 l 1
 383 53 427 46 475 46 c 0
 534 46 597 71 649 110 c 1
 678 149 699 195 706 242 c 0
 705 253 704 264 704 275 c 0
 704 287 705 300 707 312 c 0
 701 396 677 459 640 501 c 1
 608 529 570 545 528 551 c 1
 526 125 l 1
 455 54 l 1
 434 75 l 1
 436 525 l 1
 463 552 l 1
315 564 m 1
 305 554 l 1
 305 554 274 536 238 506 c 1
 198 457 166 396 166 325 c 0
 166 249 190 178 237 126 c 0
 259 106 285 89 315 76 c 1
 315 456 l 1
 305 446 l 1xc7f0
 284 467 l 2xa3f0
 284 467 295 483 314 502 c 2
 315 502 l 2
 315 503 l 1
 315 564 l 1
345 594 m 1
 345 533 l 1
 385 573 l 2
 417 605 471 646 535 646 c 0
 598 646 656 627 700 583 c 2
 721 561 l 2
 746 536 766 503 780 462 c 1
 789 473 799 482 809 492 c 0
 809 493 l 2
 880 564 l 2
 932 616 985 646 985 646 c 1
 1006 625 l 1
 975 594 l 1
 975 528 l 1
 985 538 l 1
 985 538 1099 646 1171 646 c 0x87f0
 1201 646 1214 638 1223 629 c 2
 1244 608 l 2
 1245 607 1247 605 1248 604 c 0
 1256 599 1268 596 1285 596 c 0x93f0
 1312 596 1332 607 1347 618 c 2
 1376 646 l 2x87f0
 1397 625 l 2
 1395 623 1390 616 1383 609 c 2
 1313 539 l 2
 1298 524 1271 504 1235 504 c 0x93f0
 1210 504 1199 510 1190 519 c 2
 1168 540 l 2
 1167 541 1165 544 1164 545 c 0
 1155 550 1142 554 1121 554 c 0
 1076 554 1015 512 975 480 c 1
 975 65 l 1
 1013 53 1057 46 1105 46 c 0
 1248 46 1406 196 1407 196 c 2
 1428 175 l 1
 1357 104 l 2
 1356 104 1198 -46 1055 -46 c 0
 946 -46 863 -11 807 44 c 2
 786 65 l 2
 762 89 743 116 730 146 c 1
 723 138 717 130 709 122 c 2
 708 122 l 1
 637 51 l 2
 578 -8 499 -46 425 -46 c 0
 316 -46 233 -11 177 44 c 0
 156 65 l 2
 102 119 74 193 74 275 c 0
 74 365 126 439 179 492 c 2
 179 493 l 2
 250 564 l 2
 302 616 355 646 355 646 c 1
 376 625 l 1
 345 594 l 1
798 291 m 0
 804 228 827 171 867 126 c 0
 889 106 915 89 945 76 c 1
 945 455 l 1
 939 449 935 446 935 446 c 2xc7f0
 914 467 l 1xa3f0
 945 498 l 1
 945 564 l 1
 935 554 l 1
 935 554 904 536 868 506 c 1
 835 465 808 417 799 361 c 0
 800 349 800 338 800 325 c 0
 800 314 800 302 798 291 c 0
EndSplineSet
EndChar
StartChar: oe
Encoding: 339 339 115
Width: 660
Flags: W
HStem: 426 20G<245 285 485 535> 426 20G<245 285 485 535>
VStem: 74 92<99.5798 255> 314 92<147 300.42>
AnchorPoint: "blwmark" 360 0 basechar 0
AnchorPoint: "abvmark" 360 500 basechar 0
LayerCount: 2
Back
SplineSet
600 120 m 9
 480 0 l 25
 360 80 l 25
 360 280 l 25
 480 400 l 25
 600 320 l 1
 360 80 l 1025
240 400 m 25
 120 280 l 25
 120 120 l 25
 240 0 l 25
 360 120 l 25
 360 280 l 25
 240 400 l 25
EndSplineSet
Fore
SplineSet
215 354 m 1x30
 166 305 l 1
 166 145 l 2
 166 92 236 75 265 46 c 1
 314 95 l 1
 314 255 l 2
 314 308 244 325 215 354 c 1x30
74 255 m 1
 265 446 l 1
 385 326 l 1
 505 446 l 1xb0
 625 366 l 1
 646 345 l 1
 410 109 l 1
 505 46 l 1
 625 166 l 1
 646 145 l 1
 455 -46 l 1
 335 34 l 1
 315 54 l 1
 215 -46 l 1
 74 95 l 1
 74 255 l 1
406 305 m 1
 406 147 l 1
 550 291 l 1
 455 354 l 1
 406 305 l 1
EndSplineSet
EndChar
StartChar: hv
Encoding: 405 405 514
Width: 720
Flags: W
HStem: 426 20G<275 315> 426 20G<275 315 630.5 651> 651 20G<95 134.512>
VStem: 74 92<65 275 317 560> 314 92<145 321.97> 494 92<438.293 499.5> 517 69<458.485 497> 554 92<145 345>
AnchorPoint: "blwmark" 360 0 basechar 0
AnchorPoint: "abvmark" 360 700 basechar 0
LayerCount: 2
Back
SplineSet
606 550 m 17
 604 550 540 521 540 472 c 16
 540 423 600 370 600 370 c 9
 600 120 l 1
 480 0 l 25
 360 120 l 1
 360 310 l 25
 270 400 l 1
 120 250 l 1049
90 60 m 25
 150 0 l 1049
90 625 m 25
 150 565 l 1049
120 595 m 9
 120 30 l 1049
EndSplineSet
Fore
SplineSet
44 600 m 1xb9
 115 671 l 1
 155 630 l 1
 166 620 l 1
 196 590 l 1
 166 560 l 1
 166 317 l 1
 295 446 l 1
 406 335 l 1
 406 145 l 1
 505 46 l 1
 554 95 l 1
 554 345 l 1xb9
 546 353 l 2
 530 369 494 409 494 447 c 0xbc
 494 467 504 483 517 496 c 0
 517 497 l 2xba
 588 567 l 2
 607 585 630 596 631 596 c 2
 652 575 l 1
 588 510 l 2
 587 505 586 502 586 497 c 0xbc
 586 464 612 429 630 410 c 2
 646 395 l 1
 646 145 l 1
 455 -46 l 1
 314 95 l 1
 314 285 l 2
 314 322 265 334 245 354 c 1
 166 275 l 1
 166 55 l 1
 196 25 l 1
 125 -46 l 1
 44 35 l 1
 74 65 l 1
 74 225 l 1
 74 570 l 1
 44 600 l 1xb9
EndSplineSet
EndChar
StartChar: wynn
Encoding: 447 447 877
Width: 480
Flags: W
HStem: -196 21G<75 115> 426 20G<95 135 245 285> 426 20G<95 135 245 285>
VStem: 74 92<-125 -57 -15 35 77 305>
AnchorPoint: "abvmark" 240 500 basechar 0
LayerCount: 2
Back
SplineSet
60 -50 m 9
 360 250 l 1
 360 280 l 25
 240 400 l 1
 120 280 l 1049
90 400 m 25
 150 340 l 1049
120 370 m 1
 120 -150 l 1025
EndSplineSet
Fore
SplineSet
44 375 m 1xd0
 115 446 l 1
 145 416 l 1
 166 395 l 1
 190 371 l 1
 265 446 l 1
 406 305 l 1
 406 275 l 1
 166 35 l 1
 166 -125 l 1
 95 -196 l 1
 74 -175 l 1
 74 -57 l 1
 35 -96 l 1
 14 -75 l 1
 74 -15 l 1
 74 255 l 1
 74 345 l 1
 44 375 l 1xd0
166 305 m 1
 166 77 l 1
 314 225 l 1
 314 255 l 2
 314 308 244 325 215 354 c 1
 166 305 l 1
EndSplineSet
EndChar
StartChar: HV
Encoding: 502 502 513
Width: 1080
Flags: W
HStem: -46 21G<15 50 291 325 695 745> 4 92<120.289 224.423> 504 21G<15 54> 554 92<115.988 198.032> 554 67<255.605 276>
VStem: 225 30<95 530> 344 92<85 190 232 515> 614 92<92 290> 794 92<415.5 480.448> 884 92<206 342.04>
AnchorPoint: "blwmark" 570 0 basechar 0
AnchorPoint: "abvmark" 600 700 basechar 0
LayerCount: 2
Back
SplineSet
60 550 m 1
 60 550 101 600 149 600 c 3
 192 600 214 575 240 575 c 3
 274 575 300 600 301 600 c 1025
240 550 m 1
 240 75 l 1025
450 225 m 1
 600 375 l 1
 660 315 l 1
 660 60 l 1
 750 0 l 1
 930 181.200195312 l 1
 930 378 l 1
 930 378 840 382.799804688 840 450 c 3
 840 516 960 600 960 600 c 1025
450 600 m 1
 390 540 l 1
 390 60 l 1
 330 0 l 1
 330 0 298 50 180 50 c 3
 97 50 60 0 60 0 c 1033
EndSplineSet
Fore
SplineSet
475 646 m 1xf740
 496 625 l 1
 436 565 l 1
 436 232 l 1
 625 421 l 1
 706 340 l 1
 706 92 l 1
 774 46 l 1
 884 156 l 1
 884 335 l 1xf740
 868 339 848 346 833 361 c 2
 812 382 l 2
 811 382 l 0
 801 392 794 406 794 425 c 0
 794 457 821 492 850 521 c 2
 921 592 l 2
 922 593 l 2
 954 624 985 646 985 646 c 2xf780
 1006 625 l 1
 935 554 l 1
 935 554 926 547 912 536 c 1
 897 516 886 495 886 475 c 0xef80
 886 462 889 452 894 443 c 1
 920 426 955 424 955 424 c 1
 976 403 l 1
 976 206 l 1
 796 25 l 1
 725 -46 l 1
 635 14 l 1
 614 35 l 1
 614 290 l 1
 575 329 l 1
 436 190 l 1
 436 85 l 1
 305 -46 l 1
 291 -32 l 2
 272 -17 232 4 155 4 c 0
 101 4 67 -17 50 -31 c 2
 35 -46 l 1
 14 -25 l 2
 14 -25 16 -22 20 -18 c 2
 21 -18 l 2
 91 53 l 2
 105 67 142 96 205 96 c 0
 212 96 219 95 225 95 c 1
 225 530 l 2
 222 530 218 529 215 529 c 0
 189 529 167 554 124 554 c 0
 96 554 71 537 54 522 c 2
 35 504 l 1
 14 525 l 1
 14 525 17 529 22 534 c 2
 93 605 l 2
 94 606 l 0
 109 621 140 646 174 646 c 0xf740
 217 646 239 621 265 621 c 0xef40
 299 621 325 646 326 646 c 2xf740
 347 625 l 1
 276 554 l 2xef40
 275 554 268 547 255 540 c 1
 255 93 l 1
 304 86 331 68 344 57 c 1
 344 515 l 1
 475 646 l 1xf740
EndSplineSet
EndChar
StartChar: dotlessj
Encoding: 567 567 98
Width: 240
Flags: W
HStem: -196 21G<15 55> 426 20G<95 135> 426 20G<95 135>
VStem: 74 92<-65 335>
AnchorPoint: "abvmark" 120 500 basechar 0
LayerCount: 2
Back
SplineSet
150 340 m 25
 90 400 l 25
 30 340 l 1049
120 370 m 1
 120 -90 l 9
 60 -150 l 1049
EndSplineSet
Fore
SplineSet
166 395 m 1xd0
 196 365 l 1
 166 335 l 1
 166 -65 l 1
 35 -196 l 1
 14 -175 l 1
 74 -115 l 1
 74 345 l 1
 65 354 l 1
 5 294 l 1
 -16 315 l 1
 115 446 l 1
 145 416 l 1
 166 395 l 1xd0
EndSplineSet
EndChar
StartChar: Rsmallcap
Encoding: 640 640 854
Width: 540
Flags: W
HStem: 426 20G<95 135 245 301> 426 20G<95 135 245 301>
VStem: 74 92<65 305>
AnchorPoint: "blwmark" 270 0 basechar 0
AnchorPoint: "abvmark" 240 500 basechar 0
LayerCount: 2
Back
SplineSet
90 60 m 25
 150 0 l 1049
90 400 m 25
 150 340 l 1049
120 370 m 9
 120 30 l 1025
480 60 m 25
 420 0 l 1
 420 0 399 85 360 125 c 24
 337 149 270 150 270 150 c 1025
240 120 m 1
 420 300 l 1
 240 400 l 1
 120 280 l 1049
EndSplineSet
Fore
SplineSet
215 74 m 1xa0
 194 95 l 1
 224 125 l 1
 295 196 l 1
 368 269 l 1
 215 354 l 2
 215 354 170 309 166 305 c 2
 166 55 l 1
 196 25 l 1
 125 -46 l 1
 95 -16 l 1
 85 -5 l 1
 44 35 l 1
 74 65 l 1
 74 255 l 1
 74 345 l 1
 44 375 l 1
 115 446 l 1
 145 416 l 1
 166 395 l 1
 190 371 l 1
 265 446 l 1
 445 346 l 1
 466 325 l 1
 333 192 l 1
 352 189 373 183 384 172 c 0
 384 171 l 2
 405 150 l 2
 406 150 l 0
 429 126 446 86 456 57 c 1
 505 106 l 1
 526 85 l 1
 395 -46 l 1
 374 -25 l 1
 374 -25 357 45 326 87 c 1
 297 104 245 104 245 104 c 2
 215 74 l 1xa0
EndSplineSet
EndChar
StartChar: circumflex
Encoding: 710 710 100
Width: 480
Flags: W
HStem: 479 267
VStem: 74 332
LayerCount: 2
Back
SplineSet
360 525 m 25
 360 525 240 600 240 700 c 1
 240 550 120 525 120 525 c 1025
EndSplineSet
Fore
SplineSet
194 674 m 0
 194 675 194 674 194 675 c 2
 265 746 l 1
 286 725 l 2
 286 724 286 725 286 724 c 0
 286 706 290 690 296 674 c 0
 306 648 323 625 340 606 c 0
 364 584 385 571 385 571 c 1
 406 550 l 1
 335 479 l 1
 335 479 308 496 280 524 c 2
 259 545 l 2
 248 556 238 568 228 582 c 1
 166 520 l 2
 133 487 95 479 95 479 c 1
 74 500 l 1
 145 571 l 2
 145 571 157 573 174 582 c 0
 175 583 176 587 177 589 c 0
 187 612 194 639 194 674 c 0
EndSplineSet
EndChar
StartChar: verticallinemod
Encoding: 712 712 887
Width: 480
Flags: W
HStem: 479 267
VStem: 194 92<550 675>
LayerCount: 2
Back
SplineSet
240 700 m 9
 240 525 l 1025
EndSplineSet
Fore
SplineSet
265 746 m 1
 286 725 l 1
 286 550 l 1
 215 479 l 1
 194 500 l 1
 194 675 l 1
 265 746 l 1
EndSplineSet
EndChar
StartChar: breve
Encoding: 728 728 265
Width: 480
Flags: W
HStem: 479 92<191.797 303.174>
LayerCount: 2
Back
SplineSet
120 600 m 17
 120 600 137.55499552 525 270 525 c 3
 324 525 390 600 390 600 c 1033
EndSplineSet
Fore
SplineSet
145 646 m 1
 166 625 l 1
 166 625 168 614 177 602 c 1
 199 585 236 571 295 571 c 0
 329 571 367 600 391 622 c 2
 415 646 l 1
 436 625 l 1
 436 625 432 620 425 613 c 2
 354 542 l 2
 333 521 286 479 245 479 c 0
 174 479 136 500 116 520 c 2
 95 542 l 2
 78 559 74 575 74 575 c 1
 145 646 l 1
EndSplineSet
EndChar
StartChar: ringbelow
Encoding: 755 755 886
Width: 480
Flags: W
HStem: -321 92<205.275 313.855> -121 92<166.145 274.725>
VStem: 74 92<-194.581 -121.502> 314 92<-228.498 -155.419>
LayerCount: 2
Back
SplineSet
120 -150 m 0
 120 -90 138 -75 210 -75 c 0
 300 -75 360 -125 360 -200 c 0
 360 -260 342 -275 270 -275 c 0
 180 -275 120 -225 120 -150 c 0
EndSplineSet
Fore
SplineSet
74 -175 m 0
 74 -147 78 -128 89 -117 c 2
 160 -46 l 2
 173 -33 197 -29 235 -29 c 0
 285 -29 325 -45 351 -71 c 2
 373 -92 l 1
 394 -113 406 -142 406 -175 c 0
 406 -203 402 -222 391 -233 c 2
 320 -304 l 2
 307 -317 283 -321 245 -321 c 0
 195 -321 155 -305 129 -279 c 2
 107 -258 l 1
 86 -237 74 -208 74 -175 c 0
166 -125 m 0
 166 -153 174 -177 189 -197 c 1
 215 -217 252 -229 295 -229 c 0
 302 -229 308 -229 314 -229 c 0
 314 -228 314 -226 314 -225 c 0
 314 -197 306 -173 291 -153 c 1
 265 -133 228 -121 185 -121 c 0
 178 -121 172 -121 166 -121 c 0
 166 -122 166 -124 166 -125 c 0
EndSplineSet
EndChar
StartChar: hookcmb
Encoding: 777 777 381
Width: 0
Flags: W
HStem: 454 292 504 21G<-375 -335>
VStem: -406 332
AnchorPoint: "abvmark" -240 500 mark 0
LayerCount: 2
Back
SplineSet
-240 500 m 1
 -120 620 l 1
 -120 675 l 1
 -270 700 l 25
 -360 610 l 1
 -330 550 l 1049
EndSplineSet
Fore
SplineSet
-265 454 m 1xa0
 -286 475 l 1
 -166 595 l 1
 -166 633 l 1
 -295 654 l 2
 -295 654 -312 637 -314 635 c 2
 -284 575 l 1
 -355 504 l 1
 -376 525 l 1x60
 -406 585 l 1
 -245 746 l 1
 -95 721 l 1
 -74 700 l 1
 -74 645 l 1
 -265 454 l 1xa0
EndSplineSet
EndChar
StartChar: dotbelowcmb
Encoding: 803 803 357
Width: 0
VWidth: 400
Flags: W
HStem: -196 152
VStem: -316 152
AnchorPoint: "blwmark" -240 0 mark 0
LayerCount: 2
Back
SplineSet
-270 -90 m 25
 -210 -150 l 1049
EndSplineSet
Fore
SplineSet
-316 -115 m 1
 -245 -44 l 1
 -164 -125 l 1
 -235 -196 l 1
 -316 -115 l 1
EndSplineSet
EndChar
StartChar: tridotright
Encoding: 4347 4347 895
Width: 600
Flags: W
LayerCount: 2
Back
SplineSet
450 205 m 25
 510 145 l 1049
150 350 m 25
 210 290 l 1049
150 60 m 25
 210 0 l 1049
EndSplineSet
Fore
SplineSet
104 35 m 1
 175 106 l 1
 256 25 l 1
 185 -46 l 1
 104 35 l 1
104 325 m 1
 175 396 l 1
 256 315 l 1
 185 244 l 1
 104 325 l 1
404 180 m 1
 475 251 l 1
 556 170 l 1
 485 99 l 1
 404 180 l 1
EndSplineSet
EndChar
StartChar: emdash
Encoding: 8212 8212 258
Width: 720
Flags: W
HStem: 154 92<85 635>
LayerCount: 2
Back
SplineSet
60 200 m 25
 660 200 l 1049
EndSplineSet
Fore
SplineSet
14 175 m 1
 85 246 l 1
 685 246 l 1
 706 225 l 1
 635 154 l 1
 35 154 l 1
 14 175 l 1
EndSplineSet
EndChar
StartChar: quoteleft
Encoding: 8216 8216 254
Width: 360
Flags: W
HStem: 369 302
VStem: 104 182
LayerCount: 2
Back
SplineSet
210 415 m 25
 150 475 l 1
 150 535 l 25
 240 625 l 1049
EndSplineSet
Fore
SplineSet
256 440 m 1
 185 369 l 1
 104 450 l 1
 104 510 l 1
 265 671 l 1
 286 650 l 1
 196 560 l 1
 196 500 l 1
 256 440 l 1
EndSplineSet
EndChar
StartChar: quotedblleft
Encoding: 8220 8220 251
Width: 600
Flags: W
HStem: 369 302
LayerCount: 2
Back
SplineSet
210 415 m 25
 150 475 l 1
 150 535 l 25
 240 625 l 1049
450 415 m 25
 390 475 l 1
 390 535 l 25
 480 625 l 1049
EndSplineSet
Fore
SplineSet
496 440 m 1
 425 369 l 1
 344 450 l 1
 344 510 l 1
 505 671 l 1
 526 650 l 1
 436 560 l 1
 436 500 l 1
 496 440 l 1
256 440 m 1
 185 369 l 1
 104 450 l 1
 104 510 l 1
 265 671 l 1
 286 650 l 1
 196 560 l 1
 196 500 l 1
 256 440 l 1
EndSplineSet
EndChar
StartChar: quotedblbase
Encoding: 8222 8222 253
Width: 600
VWidth: 450
Flags: W
HStem: -196 302
LayerCount: 2
Back
SplineSet
390 60 m 25
 450 0 l 1
 450 -60 l 25
 360 -150 l 1049
150 60 m 25
 210 0 l 1
 210 -60 l 25
 120 -150 l 1049
EndSplineSet
Fore
SplineSet
104 35 m 1
 175 106 l 1
 256 25 l 1
 256 -35 l 1
 95 -196 l 1
 74 -175 l 1
 164 -85 l 1
 164 -25 l 1
 104 35 l 1
344 35 m 1
 415 106 l 1
 496 25 l 1
 496 -35 l 1
 335 -196 l 1
 314 -175 l 1
 404 -85 l 1
 404 -25 l 1
 344 35 l 1
EndSplineSet
EndChar
StartChar: daggerdbl
Encoding: 8225 8225 263
Width: 480
Flags: W
HStem: 426 20G<65 105 304.13 405> 426 20G<65 105 304.13 405>
VStem: 191 95<82 174.962 175.048 318 423 507.186>
LayerCount: 2
Back
SplineSet
60 60 m 25
 120 0 l 25
 360 60 l 25
 420 0 l 1049
60 400 m 25
 120 340 l 25
 360 400 l 25
 420 340 l 1049
210 540 m 1
 210 540 227 516 228 500 c 24
 238 383 240 200 240 200 c 1
 240 200 244 383 252 500 c 24
 254 539 270 600 270 600 c 9
 210 540 l 1
270 -140 m 1
 270 -140 253 -116 252 -100 c 24
 242 17 240 200 240 200 c 1
 240 200 236 17 228 -100 c 24
 226 -139 210 -200 210 -200 c 9
 270 -140 l 1
EndSplineSet
Fore
SplineSet
316 -115 m 1xa0
 185 -246 l 1
 164 -225 l 1
 164 -225 180 -164 182 -125 c 0
 184 -94 186 -58 188 -23 c 1
 95 -46 l 1
 14 35 l 1
 85 106 l 1
 145 46 l 1
 191 57 l 1
 193 123 194 175 194 175 c 1
 194 175 194 241 191 318 c 1
 95 294 l 1
 14 375 l 1
 85 446 l 1
 145 386 l 1
 187 397 l 1
 186 425 184 451 182 475 c 0
 181 491 164 515 164 515 c 1
 295 646 l 1
 316 625 l 1
 316 625 300 564 298 525 c 0
 296 494 294 458 292 423 c 1
 385 446 l 1
 466 365 l 1
 395 294 l 1
 335 354 l 1
 289 343 l 1
 287 277 286 225 286 225 c 2
 286 225 286 159 289 82 c 1
 385 106 l 1
 466 25 l 1
 395 -46 l 1
 335 14 l 1
 293 3 l 1
 294 -25 296 -51 298 -75 c 0
 299 -91 316 -115 316 -115 c 1xa0
EndSplineSet
EndChar
StartChar: perthousand
Encoding: 8240 8240 244
Width: 1260
Flags: W
HStem: -196 21G<15 55 555 595 975 1015>
VStem: 74 92<449.58 555> 314 92<495 600.42> 434 92<-50.4202 55> 674 92<-5 100.42> 854 92<-50.4202 55> 1094 92<-5 100.42>
LayerCount: 2
Back
SplineSet
1020 200 m 25
 900 80 l 25
 900 -30 l 25
 1020 -150 l 25
 1140 -30 l 25
 1140 80 l 25
 1020 200 l 25
600 200 m 25
 480 80 l 25
 480 -30 l 25
 600 -150 l 25
 720 -30 l 25
 720 80 l 25
 600 200 l 25
60 -150 m 25
 780 700 l 1049
240 700 m 25
 120 580 l 25
 120 470 l 25
 240 350 l 25
 360 470 l 25
 360 580 l 25
 240 700 l 25
EndSplineSet
Fore
SplineSet
215 654 m 1
 166 605 l 1
 166 495 l 2
 166 442 236 425 265 396 c 1
 314 445 l 1
 314 555 l 2
 314 608 244 625 215 654 c 1
74 555 m 1
 265 746 l 1
 406 605 l 1
 406 495 l 1
 215 304 l 1
 74 445 l 1
 74 555 l 1
35 -196 m 1
 14 -175 l 1
 734 675 l 1
 805 746 l 1
 826 725 l 1
 106 -125 l 1
 35 -196 l 1
575 154 m 1
 526 105 l 1
 526 -5 l 2
 526 -58 596 -75 625 -104 c 1
 674 -55 l 1
 674 55 l 2
 674 108 604 125 575 154 c 1
434 55 m 1
 625 246 l 1
 766 105 l 1
 766 -5 l 1
 575 -196 l 1
 434 -55 l 1
 434 55 l 1
995 154 m 1
 946 105 l 1
 946 -5 l 2
 946 -58 1016 -75 1045 -104 c 1
 1094 -55 l 1
 1094 55 l 2
 1094 108 1024 125 995 154 c 1
854 55 m 1
 1045 246 l 1
 1186 105 l 1
 1186 -5 l 1
 995 -196 l 1
 854 -55 l 1
 854 55 l 1
EndSplineSet
EndChar
StartChar: minute
Encoding: 8242 8242 926
Width: 360
Flags: W
HStem: 479 267
VStem: 74 212
LayerCount: 2
Back
SplineSet
240 700 m 17
 240 600 120 525 120 525 c 1041
EndSplineSet
Fore
SplineSet
265 746 m 1
 286 725 l 1
 286 672 253 626 221 595 c 2
 150 524 l 2
 122 496 95 479 95 479 c 1
 74 500 l 1
 145 571 l 1
 145 571 151 575 161 582 c 0
 179 608 194 640 194 675 c 1
 265 746 l 1
EndSplineSet
EndChar
StartChar: guilsinglleft
Encoding: 8249 8249 242
Width: 360
Flags: W
VStem: 14 332
LayerCount: 2
Back
SplineSet
270 325 m 17
 270 325 243.919921876 295.744140624 210 275 c 0
 96 207 60 200 60 200 c 1
 60 200 137 174 240 100 c 0
 265.14976701 81.7315958294 300 50 300 50 c 1033
EndSplineSet
Fore
SplineSet
295 371 m 1
 316 350 l 1
 316 350 313 347 308 342 c 2
 238 271 l 2
 228 261 208 243 185 229 c 0
 175 223 166 218 158 213 c 1
 187 197 224 175 265 146 c 0
 290 128 325 96 325 96 c 1
 346 75 l 1
 275 4 l 1
 275 4 240 36 215 54 c 0
 112 128 35 154 35 154 c 1
 14 175 l 1
 85 246 l 1
 85 246 121 253 235 321 c 0
 252 332 267 344 278 354 c 2
 295 371 l 1
EndSplineSet
EndChar
StartChar: bracketquillleft
Encoding: 8261 8261 916
Width: 360
Flags: W
HStem: -196 92<166 275> 254 92<166 275> 654 92<166 275>
VStem: 74 92<-104 254 346 654>
LayerCount: 2
Back
SplineSet
300 300 m 25
 120 300 l 1049
300 700 m 25
 120 700 l 25
 120 -150 l 25
 300 -150 l 1033
EndSplineSet
Fore
SplineSet
346 725 m 1
 275 654 l 1
 166 654 l 1
 166 346 l 1
 325 346 l 1
 346 325 l 1
 275 254 l 1
 166 254 l 1
 166 -104 l 1
 325 -104 l 1
 346 -125 l 1
 275 -196 l 1
 95 -196 l 1
 74 -175 l 1
 74 275 l 1
 74 675 l 1
 145 746 l 1
 325 746 l 1
 346 725 l 1
EndSplineSet
EndChar
StartChar: paragraphrev
Encoding: 8267 8267 951
Width: 840
Flags: W
HStem: -196 92<150.289 225 255 349.044> 54 92<502.097 594.41> 504 21G<15 55> 529 117<150.482 224.544 475 514.881> 554 92<115.181 198.032 552.968 627.765> 554 67<255.605 276 503.232 601.534>
VStem: 225 30<-104.834 530> 344 92<-50 85 156 515> 645 92<219.447 521.366>
LayerCount: 2
Back
SplineSet
60 550 m 5
 60 550 99 600 149 600 c 7
 192 600 214 575 240 575 c 7
 274 575 300 600 301 600 c 1029
240 550 m 5
 240 -125 l 1029
480 -200 m 5
 480 -200 328 -150 210 -150 c 7
 127 -150 90 -200 90 -200 c 1029
451 150 m 21
 451 150 462.861328124 100 541 100 c 7
 643 100 691 177.791015624 691 350 c 7
 691 469 684 600 602 600 c 7
 559 600 537 575 511 575 c 7
 477 575 451 600 450 600 c 5
 390 540 l 5
 390 -75 l 1029
EndSplineSet
Fore
SplineSet
436 85 m 1xeb80
 436 -50 l 1
 367 -119 l 1
 443 -134 505 -154 505 -154 c 1
 526 -175 l 1
 455 -246 l 1
 455 -246 303 -196 185 -196 c 0
 131 -196 97 -217 80 -231 c 2
 65 -246 l 1
 44 -225 l 2
 44 -225 46 -222 50 -218 c 2
 51 -218 l 2
 121 -147 l 2
 134 -134 168 -107 225 -104 c 1
 225 530 l 2
 222 530 218 529 215 529 c 0xf380
 189 529 167 554 124 554 c 0xeb80
 97 554 73 540 57 526 c 2
 35 504 l 1
 14 525 l 1
 14 525 17 530 24 537 c 2
 95 607 l 2
 110 622 139 646 174 646 c 0xf380
 217 646 239 621 265 621 c 0xe780
 299 621 325 646 326 646 c 2xeb80
 347 625 l 1
 276 554 l 2xe780
 275 554 268 547 255 540 c 1
 255 -104 l 1
 290 -106 327 -111 362 -118 c 1
 344 -100 l 1
 344 515 l 1
 475 646 l 2xf380
 476 646 502 621 536 621 c 0xe780
 562 621 584 646 627 646 c 0
 645 646 659 640 671 628 c 2
 693 607 l 2
 733 567 737 467 737 375 c 0
 737 268 718 198 680 160 c 2
 610 89 l 2
 586 65 555 54 516 54 c 0
 477 54 455 66 442 79 c 2
 441 80 l 1
 436 85 l 1xeb80
436 156 m 1
 476 196 l 1
 497 175 l 1
 497 175 499 169 503 162 c 0
 517 153 537 146 566 146 c 0
 585 146 603 149 618 155 c 1
 636 195 645 251 645 325 c 0
 645 409 642 500 611 545 c 1
 601 551 590 554 577 554 c 0xeb80
 534 554 512 529 486 529 c 0
 465 529 446 539 436 546 c 1
 436 156 l 1
EndSplineSet
EndChar
StartChar: lozengedot
Encoding: 8280 8280 899
Width: 720
Flags: W
LayerCount: 2
Back
SplineSet
510 205 m 25
 570 145 l 1049
330 60 m 25
 390 0 l 1049
330 350 m 25
 390 290 l 1049
150 205 m 25
 210 145 l 1049
EndSplineSet
Fore
SplineSet
104 180 m 1
 175 251 l 1
 256 170 l 1
 185 99 l 1
 104 180 l 1
284 325 m 1
 355 396 l 1
 436 315 l 1
 365 244 l 1
 284 325 l 1
284 35 m 1
 355 106 l 1
 436 25 l 1
 365 -46 l 1
 284 35 l 1
464 180 m 1
 535 251 l 1
 616 170 l 1
 545 99 l 1
 464 180 l 1
EndSplineSet
EndChar
StartChar: logicaland
Encoding: 8743 8743 952
Width: 720
Flags: W
HStem: 426 20G<365 405> 426 20G<365 405>
LayerCount: 2
Back
SplineSet
120 0 m 25
 360 400 l 25
 600 0 l 1049
EndSplineSet
Fore
SplineSet
95 -46 m 1x80
 74 -25 l 1
 314 375 l 1
 385 446 l 1
 406 425 l 1
 646 25 l 1
 575 -46 l 1
 554 -25 l 1
 345 323 l 1
 166 25 l 1
 95 -46 l 1x80
EndSplineSet
EndChar
StartChar: therefore
Encoding: 8756 8756 896
Width: 720
Flags: W
LayerCount: 2
Back
SplineSet
510 60 m 25
 570 0 l 1049
330 350 m 25
 390 290 l 1049
150 60 m 25
 210 0 l 1049
EndSplineSet
Fore
SplineSet
104 35 m 1
 175 106 l 1
 256 25 l 1
 185 -46 l 1
 104 35 l 1
284 325 m 1
 355 396 l 1
 436 315 l 1
 365 244 l 1
 284 325 l 1
464 35 m 1
 535 106 l 1
 616 25 l 1
 545 -46 l 1
 464 35 l 1
EndSplineSet
EndChar
StartChar: proportion
Encoding: 8759 8759 898
Width: 720
Flags: W
LayerCount: 2
Back
SplineSet
510 350 m 25
 570 290 l 1049
510 60 m 25
 570 0 l 1049
150 350 m 25
 210 290 l 1049
150 60 m 25
 210 0 l 1049
EndSplineSet
Fore
SplineSet
104 35 m 1
 175 106 l 1
 256 25 l 1
 185 -46 l 1
 104 35 l 1
104 325 m 1
 175 396 l 1
 256 315 l 1
 185 244 l 1
 104 325 l 1
464 35 m 1
 535 106 l 1
 616 25 l 1
 545 -46 l 1
 464 35 l 1
464 325 m 1
 535 396 l 1
 616 315 l 1
 545 244 l 1
 464 325 l 1
EndSplineSet
EndChar
StartChar: bracketangleleft
Encoding: 9296 9296 930
Width: 480
Flags: W
HStem: -196 21G<375 415>
LayerCount: 2
Back
SplineSet
390 675 m 17
 390 675 293.433426836 553.835692694 270 525 c 0
 216 459 60 250 60 250 c 1
 60 250 245 60 300 0 c 0
 319.832255214 -22.129028541 420 -150 420 -150 c 1033
EndSplineSet
Fore
SplineSet
415 721 m 1
 436 700 l 1
 436 700 339 579 316 550 c 0
 262 484 106 275 106 275 c 1
 106 275 291 85 346 25 c 0
 366 3 466 -125 466 -125 c 1
 395 -196 l 1
 374 -175 l 1
 374 -175 274 -47 254 -25 c 0
 199 35 14 225 14 225 c 1
 14 225 170 434 224 500 c 0
 247 529 344 650 344 650 c 1
 415 721 l 1
EndSplineSet
EndChar
StartChar: bracketwhiteleft
Encoding: 10214 10214 918
Width: 480
Flags: W
HStem: -196 92<166 255 285 395> 654 92<166 255 285 395>
VStem: 74 92<-104 654> 255 30<-104 654>
LayerCount: 2
Back
SplineSet
270 650 m 25
 270 -100 l 1049
420 700 m 25
 120 700 l 25
 120 -150 l 25
 420 -150 l 1033
EndSplineSet
Fore
SplineSet
466 725 m 1
 395 654 l 1
 285 654 l 1
 285 -104 l 1
 445 -104 l 1
 466 -125 l 1
 395 -196 l 1
 95 -196 l 1
 74 -175 l 1
 74 675 l 1
 145 746 l 1
 445 746 l 1
 466 725 l 1
255 654 m 1
 166 654 l 1
 166 -104 l 1
 255 -104 l 1
 255 654 l 1
EndSplineSet
EndChar
StartChar: bracketwhiteright
Encoding: 10215 10215 919
Width: 480
Flags: W
HStem: -196 92<85 195 225 314> 654 92<85 195 225 314>
VStem: 195 30<-104 654> 314 92<-104 654>
LayerCount: 2
Back
SplineSet
210 650 m 25
 210 -100 l 1049
60 700 m 25
 360 700 l 25
 360 -150 l 25
 60 -150 l 1033
EndSplineSet
Fore
SplineSet
14 675 m 1
 85 746 l 1
 385 746 l 1
 406 725 l 1
 406 -125 l 1
 335 -196 l 1
 35 -196 l 1
 14 -175 l 1
 85 -104 l 1
 195 -104 l 1
 195 654 l 1
 35 654 l 1
 14 675 l 1
225 -104 m 1
 314 -104 l 1
 314 654 l 1
 225 654 l 1
 225 -104 l 1
EndSplineSet
EndChar
StartChar: luslst
Encoding: 11788 11788 902
Width: 360
Flags: W
VStem: 14 332
LayerCount: 2
Back
SplineSet
60 700 m 25
 300 450 l 1049
EndSplineSet
Fore
SplineSet
85 746 m 1
 106 725 l 1
 346 475 l 1
 275 404 l 1
 254 425 l 1
 14 675 l 1
 85 746 l 1
EndSplineSet
EndChar
StartChar: ramus
Encoding: 11801 11801 911
Width: 720
Flags: W
HStem: -196 21G<75 115> 532 20G<268 308>
VStem: 44 92<150.893 325> 217 92<344.491 481> 386 92<566.126 637>
LayerCount: 2
Back
SplineSet
432 662 m 1
 432 662 432 625 432 600 c 27
 432 551 474 475 474 475 c 1
 474 475 582 516 642 550 c 24
 666 564 686 588 686 588 c 1025
90 350 m 1
 90 350 90 274 90 225 c 27
 90 127 185 -25 185 -25 c 1
 185 -25 391 57 510 125 c 24
 558 153 600 200 600 200 c 1025
263 506 m 1
 263 506 263 449 263 412 c 27
 263 339 330 225 330 225 c 1
 330 225 488 287 577 338 c 24
 613 359 646 394 646 394 c 1025
120 -150 m 25
 600 700 l 1049
EndSplineSet
Fore
SplineSet
95 -196 m 1
 74 -175 l 1
 143 -53 l 1
 139 -50 l 1
 139 -50 44 102 44 200 c 2
 44 325 l 1
 115 396 l 1
 136 375 l 1
 136 250 l 2
 136 188 174 104 202 51 c 1
 285 199 l 1
 284 200 l 1
 284 200 217 314 217 387 c 2
 217 481 l 1
 288 552 l 1
 309 531 l 1
 309 437 l 2
 309 398 328 346 346 307 c 1
 428 451 l 1
 423 460 386 529 386 575 c 2
 386 637 l 1
 457 708 l 1
 478 687 l 1
 478 625 l 2
 478 607 484 584 491 564 c 1
 554 675 l 1
 625 746 l 1
 646 725 l 1
 540 537 l 1
 577 552 631 575 667 596 c 0
 675 601 683 607 689 612 c 2
 711 634 l 1
 732 613 l 2
 732 613 728 609 722 602 c 2
 721 601 l 2
 651 531 l 2
 643 523 630 512 617 504 c 0
 580 483 525 459 488 444 c 1
 400 289 l 1
 454 311 543 350 602 384 c 0
 627 398 650 420 662 431 c 2
 671 440 l 1
 692 419 l 2
 692 419 691 418 688 415 c 2
 688 414 l 2
 617 344 l 2
 607 334 580 309 552 292 c 0
 492 258 400 218 347 196 c 1
 260 42 l 1
 329 71 453 124 535 171 c 0
 559 185 582 204 598 219 c 2
 625 246 l 1
 646 225 l 2
 646 225 642 220 634 212 c 2
 633 211 l 2
 562 141 l 2
 546 125 517 98 485 79 c 0
 402 31 276 -24 208 -52 c 1
 166 -125 l 1
 95 -196 l 1
EndSplineSet
EndChar
StartChar: brackettopright
Encoding: 11811 11811 923
Width: 360
Flags: W
HStem: 654 92<85 194>
VStem: 194 92<325 654>
LayerCount: 2
Back
SplineSet
60 700 m 25
 240 700 l 17
 240 300 l 1025
EndSplineSet
Fore
SplineSet
14 675 m 1
 85 746 l 1
 265 746 l 1
 286 725 l 1
 286 325 l 1
 215 254 l 1
 194 275 l 1
 194 654 l 1
 35 654 l 1
 14 675 l 1
EndSplineSet
EndChar
StartChar: Ubracketright
Encoding: 11815 11815 913
Width: 600
Flags: W
HStem: -46 92<85 323.746> 354 92<85 322.013>
VStem: 434 92<142.463 258.565>
LayerCount: 2
Back
SplineSet
60 400 m 1
 240 400 l 26
 372 400 480 310 480 200 c 27
 480 90 372 0 240 0 c 26
 60 0 l 1025
EndSplineSet
Fore
SplineSet
14 375 m 1
 85 446 l 1
 265 446 l 2
 339 446 405 418 449 374 c 2
 471 352 l 0
 505 317 526 273 526 225 c 0
 526 177 505 132 470 97 c 2
 400 26 l 2
 399 26 l 2
 355 -18 289 -46 215 -46 c 2
 35 -46 l 1
 14 -25 l 1
 85 46 l 1
 265 46 l 2
 319 46 369 61 409 86 c 1
 425 113 434 143 434 175 c 0
 434 219 418 259 389 292 c 1
 346 330 283 354 215 354 c 2
 35 354 l 1
 14 375 l 1
EndSplineSet
EndChar
StartChar: a_v
Encoding: 42809 42809 345
Width: 720
Flags: W
HStem: 179 92<237.369 314> 431 20G<215 335 630.5 651>
VStem: 314 92<145 179 271 333> 494 92<440.437 499.5> 517 69<458.788 497> 554 92<145 349>
AnchorPoint: "blwmark" 360 0 basechar 0
AnchorPoint: "abvmark" 360 500 basechar 0
LayerCount: 2
Back
SplineSet
360 150 m 9
 210 0 l 1
 120 90 l 1
 120 160 l 1
 210 250 l 1
 210 250 232.928594192 225 300 225 c 3
 360 225 l 1033
606 550 m 17
 604 550 540 521 540 472 c 16
 540 423 600 375 600 375 c 9
 600 120 l 1
 480 0 l 25
 360 120 l 1
 360 375 l 17
 210 405 l 1
 120 315 l 1
 150 225 l 1033
EndSplineSet
Fore
SplineSet
652 575 m 1xe8
 588 510 l 2
 587 505 586 502 586 497 c 0xf0
 586 470 604 443 620 425 c 0
 623 423 625 421 625 421 c 1
 646 400 l 1
 646 145 l 1
 455 -46 l 1
 320 89 l 1
 185 -46 l 1
 74 65 l 1
 74 135 l 1
 122 183 l 1
 104 200 l 1
 74 290 l 1
 235 451 l 1
 385 421 l 1
 406 400 l 1
 406 250 l 1
 406 175 l 1
 406 145 l 1
 505 46 l 1
 554 95 l 1
 554 349 l 1xe4
 539 364 l 2
 521 382 494 414 494 447 c 0xf0
 494 467 504 483 517 496 c 0
 517 497 l 2
 588 567 l 2
 607 585 630 596 631 596 c 2
 652 575 l 1xe8
314 125 m 1
 314 179 l 1
 275 179 l 2
 212 179 189 201 186 204 c 2
 185 204 l 1
 166 185 l 1
 166 115 l 1
 235 46 l 1
 314 125 l 1
314 271 m 1
 314 333 l 1
 185 359 l 2
 185 359 168 342 166 340 c 2
 194 255 l 1
 235 296 l 1
 235 295 l 2
 239 291 261 273 314 271 c 1
EndSplineSet
LCarets2: 1 360 
Ligature2: "Historic ligatures-1" a v
EndChar
StartChar: lbroken
Encoding: 42823 42823 574
Width: 420
Flags: W
HStem: 426 20G<305 345> 426 20G<305 345> 651 20G<95 134.512>
VStem: 74 92<287 560> 254 92<65 333>
LayerCount: 2
Back
SplineSet
270 60 m 25
 330 0 l 25
 390 60 l 1049
90 625 m 25
 150 565 l 1049
120 595 m 1
 120 220 l 1
 300 400 l 1
 300 30 l 1025
EndSplineSet
Fore
SplineSet
44 600 m 1xb8
 115 671 l 1
 155 630 l 1
 166 620 l 1
 196 590 l 1
 166 560 l 1
 166 287 l 1
 325 446 l 1
 346 425 l 1
 346 55 l 1
 355 46 l 1
 415 106 l 1
 436 85 l 1
 305 -46 l 1
 275 -16 l 1
 254 5 l 1
 224 35 l 1
 254 65 l 1
 254 333 l 1
 95 174 l 1
 74 195 l 1
 74 570 l 1
 44 600 l 1xb8
EndSplineSet
EndChar
StartChar: lbar
Encoding: 42825 42825 865
Width: 240
Flags: W
HStem: 429 92<55 74 166 185> 651 20G<95 134.512>
VStem: 74 92<65 429 521 560>
AnchorPoint: "abvmark" 120 700 basechar 0
AnchorPoint: "blwmark" 120 0 basechar 0
LayerCount: 2
Back
SplineSet
90 60 m 25
 150 0 l 25
 210 60 l 1049
90 625 m 25
 150 565 l 1049
120 595 m 9
 120 30 l 1049
210 475 m 25
 30 475 l 1049
EndSplineSet
Fore
SplineSet
256 500 m 1
 185 429 l 1
 166 429 l 1
 166 55 l 1
 175 46 l 1
 235 106 l 1
 256 85 l 1
 125 -46 l 1
 44 35 l 1
 74 65 l 1
 74 429 l 1
 5 429 l 1
 -16 450 l 1
 55 521 l 1
 74 521 l 1
 74 570 l 1
 44 600 l 1
 115 671 l 1
 155 630 l 1
 166 620 l 1
 196 590 l 1
 166 560 l 1
 166 521 l 1
 235 521 l 1
 256 500 l 1
EndSplineSet
EndChar
StartChar: o_o
Encoding: 42831 42831 669
Width: 720
Flags: W
HStem: 426 20G<245 285 485 525> 426 20G<245 285 485 525>
VStem: 74 92<99.5798 255> 314 92<99.5798 300.42> 554 92<145 300.42>
CounterMasks: 1 38
AnchorPoint: "blwmark" 360 0 basechar 0
AnchorPoint: "abvmark" 360 500 basechar 0
LayerCount: 2
Back
SplineSet
480 400 m 25
 360 280 l 25
 360 120 l 25
 480 0 l 25
 600 120 l 25
 600 280 l 25
 480 400 l 25
240 400 m 25
 120 280 l 25
 120 120 l 25
 240 0 l 25
 360 120 l 25
 360 280 l 25
 240 400 l 25
EndSplineSet
Fore
SplineSet
215 354 m 1x38
 166 305 l 1
 166 145 l 2
 166 92 236 75 265 46 c 1
 314 95 l 1
 314 255 l 2
 314 308 244 325 215 354 c 1x38
74 255 m 1
 265 446 l 1
 385 326 l 1
 505 446 l 1xb8
 646 305 l 1
 646 145 l 1
 455 -46 l 1
 335 74 l 1
 215 -46 l 1
 74 95 l 1
 74 255 l 1
406 145 m 2
 406 92 476 75 505 46 c 1
 554 95 l 1
 554 255 l 2
 554 308 484 325 455 354 c 1
 406 305 l 1
 406 145 l 2
EndSplineSet
LCarets2: 1 360 
Ligature2: "Historic ligatures-1" o o
EndChar
StartChar: pbar
Encoding: 42833 42833 868
Width: 480
Flags: W
HStem: -196 21G<75 115> -121 92<55 74 166 215> 426 20G<95 135 245 285> 426 20G<95 135 245 285>
VStem: 74 92<-125 -121 -29 34 145 305> 314 92<85 300.42>
AnchorPoint: "abvmark" 240 500 basechar 0
LayerCount: 2
Back
SplineSet
60 50 m 1
 60 50 115 100 150 100 c 0
 247 100 300 0 300 0 c 9
 360 60 l 1
 360 280 l 25
 240 400 l 1
 120 280 l 1049
90 400 m 25
 150 340 l 1049
120 370 m 1
 120 -150 l 1025
240 -75 m 25
 30 -75 l 1049
EndSplineSet
Fore
SplineSet
286 -50 m 1xec
 215 -121 l 1
 166 -121 l 1
 166 -125 l 1
 95 -196 l 1
 74 -175 l 1
 74 -121 l 1
 5 -121 l 1
 -16 -100 l 1
 55 -29 l 1
 74 -29 l 1
 74 34 l 1
 53 20 35 4 35 4 c 2
 14 25 l 1
 74 85 l 1
 74 255 l 1
 74 345 l 1
 44 375 l 1
 115 446 l 1
 145 416 l 1
 166 395 l 1
 190 371 l 1
 265 446 l 1
 406 305 l 1
 406 85 l 1
 278 -43 l 1
 286 -50 l 1xec
166 -29 m 1
 258 -29 l 1
 254 -25 l 2
 254 -25 245 -7 227 13 c 0
 211 27 190 41 166 48 c 1
 166 -29 l 1
166 305 m 1
 166 145 l 2
 169 146 172 146 175 146 c 0
 224 146 262 120 287 95 c 2
 308 74 l 2
 309 73 l 0
 311 71 313 69 314 68 c 2
 314 255 l 2
 314 308 244 325 215 354 c 1
 166 305 l 1
EndSplineSet
EndChar
StartChar: pflourish
Encoding: 42835 42835 869
Width: 600
Flags: W
HStem: -196 21G<-15 25 195 235> 426 20G<215 255 365 405> 426 20G<215 255 365 405>
VStem: 44 92<-84.7935 30.5609> 194 92<-125 -8 134 305> 434 92<145 255>
AnchorPoint: "abvmark" 360 500 basechar 0
LayerCount: 2
Back
SplineSet
240 280 m 25
 360 400 l 1
 480 280 l 25
 480 120 l 1
 360 0 l 1
 360 0 278 100 30 100 c 1
 30 100 90 44 90 0 c 3
 90 -132 30 -150 30 -150 c 1033
210 400 m 25
 270 340 l 1049
240 370 m 1
 240 -150 l 1025
EndSplineSet
Fore
SplineSet
265 416 m 1xdc
 286 395 l 1
 310 371 l 1
 385 446 l 1
 526 305 l 1
 526 145 l 1
 335 -46 l 1
 326 -36 l 2
 318 -29 305 -19 286 -8 c 1
 286 -125 l 1
 215 -196 l 1
 194 -175 l 1
 194 30 l 1
 176 35 156 40 133 44 c 1
 135 37 136 31 136 25 c 0
 136 -56 113 -94 96 -111 c 2
 25 -182 l 2
 14 -193 5 -196 5 -196 c 2
 -16 -175 l 1
 21 -137 l 1
 33 -115 44 -80 44 -25 c 0
 44 9 9 50 -8 67 c 2
 -16 75 l 1
 55 146 l 1
 67 146 79 145 90 145 c 0
 129 143 164 140 194 134 c 1
 194 255 l 1
 194 345 l 1
 164 375 l 1
 235 446 l 1
 265 416 l 1xdc
286 305 m 1
 286 108 l 1
 341 86 371 60 381 50 c 2
 385 46 l 1
 434 95 l 1
 434 255 l 1
 335 354 l 1
 286 305 l 1
EndSplineSet
EndChar
StartChar: qbar
Encoding: 42839 42839 871
Width: 480
Flags: W
HStem: -196 21G<315 355> -121 92<265 314 406 425> 426 20G<245 285 364.556 405> 426 20G<245 285 364.556 405>
VStem: 74 92<145 255> 314 92<-125 -121 -29 53 95 325>
AnchorPoint: "abvmark" 270 500 basechar 0
LayerCount: 2
Back
SplineSet
450 -75 m 25
 240 -75 l 1049
360 120 m 9
 240 0 l 25
 120 120 l 25
 120 280 l 25
 240 400 l 1
 240 400 264 352 300 352 c 24
 336 352 360 400 360 400 c 9
 360 -150 l 1049
EndSplineSet
Fore
SplineSet
314 95 m 1xcc
 314 325 l 1
 304 315 290 306 275 306 c 0
 260 306 247 315 237 325 c 2
 215 346 l 2
 214 347 213 348 211 350 c 2
 166 305 l 1
 166 145 l 1
 265 46 l 1
 314 95 l 1xcc
314 53 m 1
 215 -46 l 1
 74 95 l 1
 74 255 l 1
 265 446 l 1
 286 425 l 1
 286 425 290 417 297 408 c 0
 305 402 315 398 325 398 c 0
 330 398 335 399 339 401 c 2
 385 446 l 1xec
 406 425 l 1
 406 -29 l 1
 475 -29 l 1
 496 -50 l 1
 425 -121 l 1
 406 -121 l 1
 406 -125 l 1
 335 -196 l 1
 314 -175 l 1
 314 -121 l 1
 215 -121 l 1
 194 -100 l 1
 265 -29 l 1
 314 -29 l 1
 314 53 l 1
EndSplineSet
EndChar
StartChar: vslash
Encoding: 42847 42847 873
Width: 480
Flags: W
HStem: 426 20G<95 135> 426 20G<95 135 390.5 411>
VStem: 74 92<99.5798 173 215 265 307 335> 254 92<438.449 499.5> 314 92<145 345>
LayerCount: 2
Back
SplineSet
150 340 m 25
 90 400 l 1049
120 370 m 25
 120 120 l 1
 240 0 l 25
 360 120 l 1
 360 370 l 17
 360 370 300 423 300 472 c 8
 300 521 364 550 366 550 c 1033
270 390 m 25
 30 150 l 1049
EndSplineSet
Fore
SplineSet
74 173 m 1xa8
 5 104 l 1
 -16 125 l 1
 74 215 l 1
 74 345 l 1
 44 375 l 1
 115 446 l 1
 145 416 l 1
 196 365 l 1
 166 335 l 1
 166 307 l 1
 265 407 l 1
 258 420 254 433 254 447 c 0
 254 467 264 484 277 497 c 2
 348 567 l 2
 367 585 390 596 391 596 c 2
 412 575 l 1
 348 510 l 2
 347 506 346 502 346 497 c 0xb0
 346 464 372 430 390 410 c 2
 406 395 l 1
 406 145 l 1
 215 -46 l 1
 74 95 l 1
 74 173 l 1xa8
282 381 m 1
 166 265 l 1
 166 145 l 2
 166 92 236 75 265 46 c 1
 314 95 l 1
 314 345 l 1x28
 306 353 l 2
 300 359 291 369 282 381 c 1
EndSplineSet
EndChar
StartChar: y_y
Encoding: 42849 42849 834
Width: 720
Flags: W
HStem: -246 92<371.435 540.254> -196 92<117.486 288.565> 426 20G<95 135 335 374.512 575 615> 426 20G<95 135 335 374.512 575 615>
VStem: 74 92<145 335> 314 92<145 335> 554 92<-125 53 95 335>
CounterMasks: 1 0e
AnchorPoint: "abvmark" 360 500 basechar 0
LayerCount: 2
Back
SplineSet
390 340 m 25
 330 400 l 1049
630 340 m 25
 570 400 l 1049
60 -200 m 17
 60 -200 104 -150 150 -150 c 8
 292 -150 368 -200 510 -200 c 24
 550 -200 600 -150 600 -150 c 1
 600 370 l 1025
600 120 m 9
 480 0 l 25
 360 120 l 1
 360 370 l 1049
150 340 m 25
 90 400 l 1049
360 120 m 9
 240 0 l 25
 120 120 l 1
 120 370 l 1049
EndSplineSet
Fore
SplineSet
35 -246 m 1x8e
 14 -225 l 1
 14 -225 16 -222 19 -219 c 2
 90 -149 l 2
 90 -148 l 0
 104 -134 139 -104 175 -104 c 0x4e
 317 -104 393 -154 535 -154 c 0x8e
 541 -154 548 -153 554 -151 c 1
 554 53 l 1
 455 -46 l 1
 335 74 l 1
 215 -46 l 1
 74 95 l 1
 74 345 l 1
 44 375 l 1
 115 446 l 1
 145 416 l 1
 166 395 l 1
 196 365 l 1
 166 335 l 1
 166 145 l 1
 265 46 l 1
 314 95 l 1
 314 345 l 1
 284 375 l 1
 355 446 l 1
 395 405 l 1
 406 395 l 1
 436 365 l 1
 406 335 l 1
 406 145 l 1
 505 46 l 1
 554 95 l 1
 554 345 l 1
 524 375 l 1
 595 446 l 1
 625 416 l 1
 646 395 l 1
 676 365 l 1
 646 335 l 1
 646 145 l 1
 646 -125 l 1
 575 -196 l 1x6e
 575 -196 525 -246 485 -246 c 0x8e
 343 -246 267 -196 125 -196 c 0x4e
 93 -196 63 -220 47 -235 c 2
 35 -246 l 1x8e
EndSplineSet
LCarets2: 1 360 
Ligature2: "Historic ligatures-1" y y
EndChar
StartChar: zvisigoth
Encoding: 42851 42851 839
Width: 420
Flags: W
HStem: -246 92<166 237.806> -196 92<57.7814 124.428> 426 20G<245 285> 426 20G<245 285>
VStem: 254 92<-125 -42>
AnchorPoint: "abvmark" 240 500 basechar 0
LayerCount: 2
Back
SplineSet
360 280 m 9
 240 400 l 25
 120 280 l 1
 120 200 l 25
 240 150 l 25
 120 30 l 1
 300 0 l 1
 300 -150 l 1
 300 -150 244 -200 210 -200 c 0
 172 -200 141 -150 90 -150 c 16
 44 -150 0 -200 0 -200 c 1025
EndSplineSet
Fore
SplineSet
406 305 m 1xa8
 335 234 l 1
 215 354 l 1
 166 305 l 1
 166 237 l 1
 265 196 l 1
 286 175 l 1
 181 70 l 1
 325 46 l 1
 346 25 l 1
 346 -125 l 1
 275 -196 l 1x68
 275 -196 219 -246 185 -246 c 0x88
 147 -246 116 -196 65 -196 c 0x48
 33 -196 3 -221 -13 -235 c 2
 -25 -246 l 1x88
 -46 -225 l 1
 -46 -225 -44 -222 -41 -219 c 2
 30 -149 l 2
 43 -136 78 -104 115 -104 c 0x48
 166 -104 197 -154 235 -154 c 0
 241 -154 247 -153 254 -150 c 1
 254 -42 l 1
 95 -16 l 1
 74 5 l 1
 185 117 l 1
 95 154 l 1
 74 175 l 1
 74 255 l 1
 265 446 l 1
 406 305 l 1xa8
EndSplineSet
EndChar
StartChar: thornbar
Encoding: 42853 42853 874
Width: 480
Flags: W
HStem: -196 21G<75 115> 426 20G<245 285> 426 20G<245 285> 429 92<55 74 166 215> 651 20G<95 134.512>
VStem: 74 92<-125 -10 105 305 347 429 521 560> 314 92<145 300.42>
AnchorPoint: "abvmark" 240 700 basechar 0
LayerCount: 2
Back
SplineSet
60 0 m 1
 60 0 115 60 150 60 c 0
 185 60 240 0 240 0 c 9
 360 120 l 1
 360 280 l 25
 240 400 l 1
 120 280 l 1049
90 625 m 25
 150 565 l 1049
120 595 m 1
 120 -150 l 1025
240 475 m 25
 30 475 l 1049
EndSplineSet
Fore
SplineSet
286 500 m 1x9e
 215 429 l 1
 166 429 l 1x9e
 166 347 l 1
 265 446 l 1xce
 406 305 l 1
 406 145 l 1
 215 -46 l 1
 200 -30 l 2
 191 -22 179 -12 166 -3 c 1
 166 -125 l 1
 95 -196 l 1
 74 -175 l 1
 74 -10 l 1
 65 -17 57 -24 51 -30 c 2
 35 -46 l 1
 14 -25 l 1
 14 -25 16 -22 21 -17 c 2
 74 35 l 1
 74 255 l 1
 74 429 l 1
 5 429 l 1
 -16 450 l 1
 55 521 l 1
 74 521 l 1
 74 570 l 1
 44 600 l 1
 115 671 l 1
 155 630 l 1
 166 620 l 1
 196 590 l 1
 166 560 l 1
 166 521 l 1
 265 521 l 1
 286 500 l 1x9e
166 305 m 1
 166 105 l 2
 169 106 172 106 175 106 c 0
 202 106 241 70 257 54 c 2
 265 46 l 1
 314 95 l 1
 314 255 l 2
 314 308 244 325 215 354 c 1
 166 305 l 1
EndSplineSet
EndChar
StartChar: thornbarbelow
Encoding: 42855 42855 875
Width: 480
Flags: W
HStem: -196 21G<75 115> -121 92<55 74 166 215> 426 20G<245 285> 426 20G<245 285> 651 20G<95 134.512>
VStem: 74 92<-125 -121 -29 34 145 305 347 560> 314 92<85 255>
AnchorPoint: "abvmark" 240 700 basechar 0
LayerCount: 2
Back
SplineSet
240 -75 m 25
 30 -75 l 1049
120 280 m 25
 240 400 l 1
 360 280 l 1
 360 60 l 1
 300 0 l 1
 300 0 247 100 150 100 c 0
 115 100 60 50 60 50 c 1025
90 625 m 25
 150 565 l 1049
120 595 m 1
 120 -150 l 1025
EndSplineSet
Fore
SplineSet
44 600 m 1xee
 115 671 l 1
 155 630 l 1
 166 620 l 1
 196 590 l 1
 166 560 l 1
 166 347 l 1
 265 446 l 1
 406 305 l 1
 406 85 l 1
 278 -43 l 1
 286 -50 l 1
 215 -121 l 1
 166 -121 l 1
 166 -125 l 1
 95 -196 l 1
 74 -175 l 1
 74 -121 l 1
 5 -121 l 1
 -16 -100 l 1
 55 -29 l 1
 74 -29 l 1
 74 34 l 1
 53 20 35 4 35 4 c 2
 14 25 l 1
 74 85 l 1
 74 255 l 1
 74 570 l 1
 44 600 l 1xee
166 305 m 1
 166 145 l 2
 169 146 172 146 175 146 c 0
 224 146 262 120 287 95 c 2
 308 74 l 2
 310 72 312 70 314 68 c 2
 314 255 l 1
 215 354 l 1
 166 305 l 1
166 48 m 1
 166 -29 l 1
 258 -29 l 1
 254 -25 l 1
 254 -25 245 -7 227 13 c 0
 210 27 190 41 166 48 c 1
EndSplineSet
EndChar
StartChar: vend
Encoding: 42857 42857 876
Width: 480
Flags: W
HStem: -196 21G<75 115> 426 20G<95 135 305 345> 426 20G<95 135 305 345>
VStem: 74 92<-125 -57 -15 35 77 335> 314 92<275 342.1>
AnchorPoint: "abvmark" 240 500 basechar 0
LayerCount: 2
Back
SplineSet
60 -50 m 9
 360 250 l 1
 360 340 l 25
 300 400 l 1025
90 400 m 25
 150 340 l 1049
120 370 m 1
 120 -150 l 1025
EndSplineSet
Fore
SplineSet
44 375 m 1xd8
 115 446 l 1
 145 416 l 1
 166 395 l 1
 196 365 l 1
 166 335 l 1
 166 77 l 1
 314 225 l 1
 314 315 l 2
 314 335 286 343 275 354 c 2
 254 375 l 1
 325 446 l 1
 406 365 l 1
 406 275 l 1
 166 35 l 1
 166 -125 l 1
 95 -196 l 1
 74 -175 l 1
 74 -57 l 1
 35 -96 l 1
 14 -75 l 1
 74 -15 l 1
 74 345 l 1
 44 375 l 1xd8
EndSplineSet
EndChar
StartChar: etfin
Encoding: 42859 42859 959
Width: 420
Flags: W
HStem: 426 20G<155 205> 426 20G<155 205>
LayerCount: 2
Back
SplineSet
60 310 m 25
 150 400 l 1
 300 300 l 1
 120 120 l 1
 300 100 l 1
 300 40 l 1
 0 -200 l 1025
EndSplineSet
Fore
SplineSet
35 264 m 1x80
 14 285 l 1
 175 446 l 1
 325 346 l 1
 346 325 l 1
 183 162 l 1
 325 146 l 1
 346 125 l 1
 346 65 l 1
 275 -6 l 1
 -25 -246 l 1
 -46 -225 l 1
 25 -154 l 1
 254 29 l 1
 254 56 l 1
 95 74 l 1
 74 95 l 1
 250 271 l 1
 125 354 l 1
 35 264 l 1x80
EndSplineSet
EndChar
StartChar: is
Encoding: 42861 42861 957
Width: 540
Flags: W
HStem: -246 92<30.0859 90.2541> -196 92<-92.514 -30.0859>
VStem: 104 92<-125 137 187 236 286 505>
LayerCount: 2
Back
SplineSet
-150 -200 m 17
 -150 -200 -106 -150 -60 -150 c 8
 -9 -150 9 -200 60 -200 c 24
 100 -200 150 -150 150 -150 c 1
 150 530 l 1
 270 650 l 25
 390 530 l 25
 390 470 l 25
 0 50 l 1049
EndSplineSet
Fore
SplineSet
196 286 m 1x20
 344 445 l 1
 344 505 l 1
 245 604 l 1
 196 555 l 1
 196 286 l 1x20
-175 -246 m 1xa0
 -196 -225 l 1
 -196 -225 -194 -222 -191 -219 c 2
 -120 -149 l 2
 -120 -148 l 0
 -106 -134 -71 -104 -35 -104 c 0x60
 16 -104 34 -154 85 -154 c 0xa0
 91 -154 98 -153 104 -151 c 1
 104 137 l 1
 46 75 l 1
 -25 4 l 1
 -46 25 l 1
 104 187 l 1
 104 505 l 1
 295 696 l 1
 436 555 l 1
 436 495 l 1
 196 236 l 1
 196 -125 l 1
 125 -196 l 1x60
 125 -196 75 -246 35 -246 c 0xa0
 -16 -246 -34 -196 -85 -196 c 0x60
 -117 -196 -147 -220 -163 -235 c 2
 -175 -246 l 1xa0
EndSplineSet
EndChar
StartChar: dum
Encoding: 42865 42865 448
Width: 720
Flags: W
HStem: -196 21G<315 356.633> -46 92<535 611.773> 426 20G<245 285> 426 20G<245 285> 504 92<170.181 286.529>
VStem: 74 92<99.5798 255> 314 92<95 255 397 474.296> 494 92<68.1875 163>
AnchorPoint: "abvmark" 300 700 basechar 0
LayerCount: 2
Back
SplineSet
480 225 m 1
 540 200 l 1
 540 200 540 139 540 100 c 27
 540 3 360 -150 360 -150 c 1025
360 280 m 1
 240 400 l 25
 120 280 l 1
 120 120 l 25
 240 0 l 17
 360 120 l 1025
169 650 m 25
 180 670 120 633 120 600 c 27
 120 549 187 550 240 550 c 0
 293 550 360 510 360 450 c 18
 360 0 l 9
 420 60 l 17
 420 60 457 0 570 0 c 3
 637 0 660 50 660 50 c 1033
EndSplineSet
Fore
SplineSet
166 626 m 2xef
 166 625 l 0
 166 618 167 613 169 608 c 0
 194 596 232 596 265 596 c 0
 297 596 334 581 358 557 c 2
 379 536 l 2
 395 520 406 499 406 475 c 2
 406 305 l 1
 406 145 l 1
 406 67 l 1
 445 106 l 1
 466 85 l 1
 466 85 466 84 467 83 c 0
 474 78 483 72 494 67 c 1
 494 70 494 72 494 75 c 2
 494 163 l 1
 455 179 l 1
 434 200 l 1
 505 271 l 1
 565 246 l 1
 586 225 l 1
 586 125 l 2
 586 102 576 75 560 48 c 1
 571 47 582 46 595 46 c 0
 617 46 635 52 648 59 c 1
 685 96 l 1
 706 75 l 2
 706 75 702 65 691 54 c 2
 690 54 l 2
 620 -17 l 2
 606 -31 582 -46 545 -46 c 0
 525 -46 507 -44 492 -41 c 1
 480 -54 469 -65 458 -76 c 2
 388 -147 l 2
 359 -176 335 -196 335 -196 c 1
 314 -175 l 1
 385 -104 l 2
 385 -104 390 -99 400 -90 c 0
 417 -71 436 -50 451 -28 c 1
 429 -18 415 -7 406 2 c 2
 394 13 l 1
 335 -46 l 1
 314 -25 l 1
 314 53 l 1
 215 -46 l 1
 74 95 l 1
 74 255 l 1
 265 446 l 1
 314 397 l 1
 314 425 l 2
 314 444 308 460 297 475 c 1
 274 493 242 504 215 504 c 0
 175 504 127 504 106 525 c 2
 85 546 l 2
 78 553 74 562 74 575 c 0
 74 588 83 602 93 612 c 2
 164 683 l 2
 177 696 192 703 195 701 c 2
 216 680 l 2
 217 679 216 678 215 675 c 2
 166 626 l 2xef
314 95 m 1
 314 255 l 1
 215 354 l 1
 166 305 l 1
 166 145 l 2
 166 92 236 75 265 46 c 1
 314 95 l 1
EndSplineSet
EndChar
StartChar: mum
Encoding: 42867 42867 587
Width: 990
Flags: W
HStem: -196 21G<585 626.633> -46 92<805 881.695> 426 20G<95 135 275 315 515 555> 426 20G<95 135 275 315 515 555>
VStem: 74 92<65 275 317 335> 314 92<65 275> 554 92<65 321.97> 764 92<68.1875 163>
LayerCount: 2
Back
SplineSet
600 30 m 1
 600 310 l 25
 510 400 l 1
 360 250 l 1041
330 60 m 9
 390 0 l 1041
360 30 m 1
 360 310 l 25
 270 400 l 1
 120 250 l 1041
90 60 m 9
 150 0 l 1041
150 340 m 9
 90 400 l 1041
120 370 m 9
 120 30 l 1025
750 225 m 1
 810 200 l 1
 810 200 810 139 810 100 c 27
 810 3 630 -150 630 -150 c 1025
930 50 m 17
 930 50 907 0 840 0 c 3
 727 0 690 60 690 60 c 9
 630 0 l 25
 570 60 l 1025
EndSplineSet
Fore
SplineSet
955 96 m 1xef
 976 75 l 1
 976 75 971 65 960 54 c 2
 890 -17 l 2
 876 -31 852 -46 815 -46 c 0
 795 -46 777 -44 762 -41 c 1
 750 -54 739 -65 728 -76 c 2
 658 -147 l 2
 629 -176 605 -196 605 -196 c 1
 584 -175 l 1
 655 -104 l 2
 655 -104 660 -99 670 -90 c 0
 687 -71 706 -50 721 -28 c 1
 699 -18 685 -7 676 2 c 2
 664 13 l 1
 605 -46 l 1
 575 -16 l 1
 554 5 l 1
 524 35 l 1
 554 65 l 1
 554 285 l 2
 554 322 505 334 485 354 c 1
 406 275 l 1
 406 55 l 1
 436 25 l 1
 365 -46 l 1
 335 -16 l 1
 314 5 l 1
 284 35 l 1
 314 65 l 1
 314 225 l 1
 314 285 l 2
 314 322 265 334 245 354 c 1
 166 275 l 1
 166 55 l 1
 196 25 l 1
 125 -46 l 1
 85 -5 l 1
 74 5 l 1
 44 35 l 1
 74 65 l 1
 74 225 l 1
 74 345 l 1
 44 375 l 1
 115 446 l 1
 145 416 l 1
 166 395 l 1
 196 365 l 1
 166 335 l 1
 166 317 l 1
 295 446 l 1
 406 335 l 1
 406 317 l 1
 535 446 l 1
 646 335 l 1
 646 55 l 1
 655 46 l 1
 715 106 l 1
 736 85 l 1
 736 85 736 84 737 83 c 0
 744 78 753 72 764 67 c 1
 764 70 764 72 764 75 c 2
 764 163 l 1
 725 179 l 1
 704 200 l 1
 775 271 l 1
 835 246 l 1
 856 225 l 1
 856 125 l 2
 856 102 846 75 830 48 c 1
 841 47 852 46 865 46 c 0
 887 46 904 51 918 59 c 1
 955 96 l 1xef
EndSplineSet
EndChar
StartChar: num
Encoding: 42868 42868 597
Width: 750
Flags: W
HStem: -196 21G<345 386.633> -46 92<565 641.695> 426 20G<95 135 275 315> 426 20G<95 135 275 315>
VStem: 74 92<65 275 317 335> 314 92<65 321.97> 524 92<68.1875 163>
LayerCount: 2
Back
SplineSet
510 225 m 1
 570 200 l 1
 570 200 570 139 570 100 c 27
 570 3 390 -150 390 -150 c 1025
690 50 m 17
 690 50 667 0 600 0 c 3
 487 0 450 60 450 60 c 1
 390 0 l 25
 330 60 l 1025
360 30 m 1
 360 310 l 25
 270 400 l 1
 120 250 l 1049
90 60 m 25
 150 0 l 1049
150 340 m 25
 90 400 l 1049
120 370 m 9
 120 30 l 1025
EndSplineSet
Fore
SplineSet
715 96 m 1xee
 736 75 l 1
 736 75 731 65 720 54 c 2
 650 -17 l 2
 636 -31 612 -46 575 -46 c 0
 555 -46 537 -44 522 -41 c 1
 510 -54 499 -65 488 -76 c 2
 418 -147 l 2
 389 -176 365 -196 365 -196 c 1
 344 -175 l 1
 415 -104 l 2
 415 -104 420 -99 430 -90 c 0
 447 -71 466 -50 481 -28 c 1
 459 -18 445 -7 436 2 c 2
 424 13 l 1
 365 -46 l 1
 335 -16 l 1
 314 5 l 1
 284 35 l 1
 314 65 l 1
 314 285 l 2
 314 322 265 334 245 354 c 1
 166 275 l 1
 166 55 l 1
 196 25 l 1
 125 -46 l 1
 74 5 l 1
 44 35 l 1
 74 65 l 1
 74 225 l 1
 74 345 l 1
 44 375 l 1
 115 446 l 1
 145 416 l 1
 166 395 l 1
 196 365 l 1
 166 335 l 1
 166 317 l 1
 295 446 l 1
 406 335 l 1
 406 55 l 1
 415 46 l 1
 475 106 l 1
 496 85 l 1
 496 85 496 84 497 83 c 0
 504 78 513 72 524 67 c 1
 524 70 524 72 524 75 c 2
 524 163 l 1
 485 179 l 1
 464 200 l 1
 535 271 l 1
 595 246 l 1
 616 225 l 1
 616 125 l 2
 616 102 606 75 590 48 c 1
 601 47 612 46 625 46 c 0
 647 46 664 51 678 59 c 1
 715 96 l 1xee
EndSplineSet
EndChar
StartChar: rum
Encoding: 42869 42869 704
Width: 540
Flags: W
HStem: -196 21G<135 178.889> 426 20G<95 135 245 274 485 525> 426 20G<95 135 245 274 305 373 485 525>
VStem: 74 92<65 305> 314 92<116.859 311.936 413 463>
LayerCount: 2
Back
SplineSet
300 525 m 1
 360 500 l 1
 360 500 360 406 360 250 c 3
 360 -37.5015230616 180 -150 180 -150 c 1025
480 400 m 17
 480 400 457 350 390 350 c 3
 277 350 240 400 240 400 c 9
 120 280 l 1025
90 60 m 25
 150 0 l 1049
90 400 m 25
 150 340 l 1049
120 370 m 9
 120 30 l 1025
EndSplineSet
Fore
SplineSet
44 375 m 1xd8
 115 446 l 1
 145 416 l 1
 166 395 l 1
 190 371 l 1
 265 446 l 1
 274 436 l 2
 282 430 295 421 314 413 c 1
 314 463 l 1
 275 479 l 1
 254 500 l 1
 325 571 l 1
 385 546 l 1
 406 525 l 1
 406 396 l 2
 409 396 412 396 415 396 c 0
 437 396 454 401 468 409 c 1
 505 446 l 1
 526 425 l 1
 526 425 521 415 510 404 c 2
 440 333 l 2
 432 325 421 317 406 311 c 1
 406 275 l 2
 406 79 322 -36 269 -89 c 2
 199 -159 l 2
 198 -160 l 2
 173 -185 155 -196 155 -196 c 2
 134 -175 l 1
 205 -104 l 1
 205 -104 208 -102 212 -99 c 0
 260 -37 314 68 314 225 c 2
 314 308 l 1
 257 317 229 339 219 349 c 2
 215 354 l 1
 166 305 l 1
 166 55 l 1
 196 25 l 1
 125 -46 l 1
 95 -16 l 1
 85 -5 l 1
 44 35 l 1
 74 65 l 1
 74 255 l 1
 74 345 l 1
 44 375 l 1xd8
EndSplineSet
EndChar
StartChar: q_etfin
Encoding: 59583 59583 966
Width: 720
Flags: W
HStem: 426 20G<245 285 364.556 405 455 505> 426 20G<245 285 364.556 405 455 505>
VStem: 74 92<145 255> 314 92<-89 53 127 325>
LayerCount: 2
Back
SplineSet
360 120 m 9
 240 0 l 25
 120 120 l 25
 120 280 l 25
 240 400 l 1
 240 400 264 352 300 352 c 24
 336 352 360 400 360 400 c 9
 360 -150 l 1049
360 310 m 25
 450 400 l 1
 600 300 l 1
 420 120 l 1
 600 100 l 1
 600 40 l 1
 300 -200 l 1025
EndSplineSet
Fore
SplineSet
314 53 m 1xb0
 215 -46 l 1
 74 95 l 1
 74 255 l 1
 265 446 l 1
 286 425 l 1
 286 425 290 417 297 408 c 0
 305 402 315 398 325 398 c 0
 330 398 335 399 339 401 c 2
 385 446 l 1
 406 425 l 1
 406 377 l 1
 475 446 l 1
 625 346 l 1
 646 325 l 1
 483 162 l 1
 625 146 l 1
 646 125 l 1
 646 65 l 1
 575 -6 l 1
 275 -246 l 1
 254 -225 l 1
 314 -165 l 1
 314 53 l 1xb0
314 285 m 1
 314 325 l 1
 304 315 290 306 275 306 c 0
 260 306 247 315 237 325 c 2
 215 346 l 2
 214 347 213 348 211 350 c 2
 166 305 l 1
 166 145 l 1
 265 46 l 1
 314 95 l 1
 314 285 l 1
406 -89 m 1
 554 29 l 1
 554 56 l 1
 406 73 l 1
 406 -89 l 1
406 127 m 1
 550 271 l 1
 425 354 l 1
 406 335 l 1
 406 127 l 1
EndSplineSet
LCarets2: 1 360 
Ligature2: "Ligatures-1" q etfin
EndChar
StartChar: longs_p
Encoding: 60325 60325 709
Width: 780
Flags: W
HStem: -246 92<30.0859 90.2541> -196 92<-92.514 -30.0859> 426 20G<545 585> 426 20G<545 585> 544 92<363.183 447>
VStem: 104 92<-125 505> 374 92<-125 -17 88.0152 305> 614 92<145 300.42>
LayerCount: 2
Back
SplineSet
300 0 m 1
 300 0 355 60 390 60 c 11
 454 60 540 0 540 0 c 9
 660 120 l 1
 660 280 l 25
 540 400 l 1
 420 280 l 1049
420 370 m 1
 420 -150 l 1025
-150 -200 m 17
 -150 -200 -106 -150 -60 -150 c 8
 -9 -150 9 -200 60 -200 c 24
 100 -200 150 -150 150 -150 c 1
 150 530 l 1
 270 650 l 17
 270 650 324 590 480 590 c 3
 522 590 571 650 571 650 c 9
 360 430 l 9
 450 340 l 1025
EndSplineSet
Fore
SplineSet
586 643 m 1x8f
 406 455 l 2
 405 454 425 433 444 415 c 1
 445 416 l 1
 466 395 l 1
 466 394 l 1
 470 390 474 387 475 386 c 2
 490 371 l 1
 565 446 l 1
 706 305 l 1
 706 145 l 1
 515 -46 l 1
 515 -46 495 -32 466 -17 c 1
 466 -125 l 1
 395 -196 l 1
 374 -175 l 1
 374 14 l 2
 371 14 368 14 365 14 c 0
 342 14 310 -12 291 -30 c 2
 275 -46 l 1
 254 -25 l 1
 254 -25 256 -22 261 -17 c 2
 332 54 l 2
 341 63 357 77 374 89 c 1
 374 255 l 1
 374 345 l 1
 314 405 l 1
 447 544 l 1
 309 546 254 596 246 603 c 2
 245 604 l 1
 196 555 l 1
 196 -125 l 1
 125 -196 l 1x6f
 125 -196 75 -246 35 -246 c 0x8f
 -16 -246 -34 -196 -85 -196 c 0x4f
 -117 -196 -147 -220 -163 -235 c 2
 -175 -246 l 1x8f
 -196 -225 l 1
 -196 -225 -194 -222 -191 -219 c 2
 -120 -149 l 2
 -120 -148 l 0
 -106 -134 -71 -104 -35 -104 c 0x4f
 16 -104 34 -154 85 -154 c 0
 91 -154 98 -153 104 -151 c 1
 104 505 l 1
 295 696 l 1
 297 694 l 2
 308 684 366 636 505 636 c 0
 525 636 547 651 564 665 c 2
 596 696 l 1
 617 675 l 1
 617 675 611 667 602 658 c 2
 586 643 l 1x8f
466 305 m 1
 466 96 l 1
 517 79 565 46 565 46 c 1
 565 46 610 91 614 95 c 2
 614 255 l 2
 614 308 544 325 515 354 c 1
 466 305 l 1
EndSplineSet
LCarets2: 1 360 
Ligature2: "Ligatures-1" longs p
EndChar
StartChar: longs_longs
Encoding: 60326 60326 327
Width: 600
GlyphClass: 3
Flags: W
HStem: -246 92<30.8994 87.5 256.961 327.843> -196 92<-92.514 -32.4385> 604 32<648.669 660.188>
VStem: 104 92<-115.853 505> 344 92<-125 504.446>
LayerCount: 2
Back
SplineSet
150 -150 m 1
 187 -150 262 -200 300 -200 c 0
 334 -200 390 -150 390 -150 c 1
 390 530 l 1
 510 650 l 17
 510 650 540 590 600 590 c 24
 628 590 690 650 691 650 c 1033
-150 -200 m 17
 -150 -200 -106 -150 -60 -150 c 8
 -35 -150 33 -200 60 -200 c 24
 86 -200 150 -150 150 -150 c 1
 150 530 l 1
 270 650 l 1
 270 650 337 530 390 530 c 1025
EndSplineSet
Fore
SplineSet
-175 -246 m 1xb8
 -196 -225 l 1
 -196 -225 -194 -222 -191 -219 c 2
 -120 -149 l 2
 -120 -148 l 0
 -106 -134 -71 -104 -35 -104 c 0x78
 -10 -104 58 -154 85 -154 c 0xb8
 90 -154 98 -152 104 -149 c 1
 104 505 l 1
 295 696 l 1
 316 675 l 1
 316 675 341 631 371 597 c 0
 386 584 401 576 415 576 c 1
 535 696 l 1
 556 675 l 1
 556 675 560 666 568 656 c 0
 583 645 602 636 625 636 c 0
 653 636 715 696 716 696 c 2
 737 675 l 1
 666 604 l 2
 665 604 603 544 575 544 c 0
 545 544 523 559 508 574 c 0
 487 595 l 2
 485 597 484 598 482 600 c 2
 436 555 l 1
 436 -125 l 1
 365 -196 l 1x78
 365 -196 309 -246 275 -246 c 0xb8
 237 -246 162 -196 125 -196 c 1x78
 125 -196 61 -246 35 -246 c 0xb8
 8 -246 -60 -196 -85 -196 c 0x78
 -117 -196 -147 -220 -163 -235 c 2
 -175 -246 l 1xb8
344 490 m 1
 333 495 322 504 311 515 c 0
 310 515 l 1
 289 536 l 2
 270 555 252 580 240 599 c 1
 196 555 l 1
 196 -108 l 1
 236 -120 293 -154 325 -154 c 0xb8
 331 -154 338 -152 344 -150 c 1
 344 490 l 1
EndSplineSet
LCarets2: 1 360 
Ligature2: "Ligatures-1" longs longs
EndChar
StartChar: longs_longs_l
Encoding: 60328 60328 332
Width: 780
GlyphClass: 3
Flags: W
HStem: -246 92<30.8994 87.5 256.961 327.843> -196 92<-92.514 -32.4385> 579 92<541.639 605>
VStem: 104 92<-115.853 505> 344 92<-125 504.446> 614 92<65 560>
LayerCount: 2
Back
SplineSet
150 -150 m 1
 187 -150 262 -200 300 -200 c 0
 334 -200 390 -150 390 -150 c 1
 390 530 l 1
 510 650 l 17
 510 650 558 625 630 625 c 1
 690 565 l 1025
-150 -200 m 17
 -150 -200 -106 -150 -60 -150 c 8
 -35 -150 33 -200 60 -200 c 24
 86 -200 150 -150 150 -150 c 1
 150 530 l 1
 270 650 l 1
 270 650 337 530 390 530 c 1025
630 60 m 25
 690 0 l 25
 750 60 l 1049
660 595 m 9
 660 30 l 1049
EndSplineSet
Fore
SplineSet
685 641 m 1xbc
 706 620 l 1
 736 590 l 1
 706 560 l 1
 706 55 l 1
 715 46 l 1
 775 106 l 1
 796 85 l 1
 665 -46 l 1
 635 -16 l 1
 614 5 l 1
 584 35 l 1
 614 65 l 1
 614 570 l 1
 605 579 l 1
 533 579 485 604 485 604 c 1
 436 555 l 1
 436 -125 l 1
 365 -196 l 1x7c
 365 -196 309 -246 275 -246 c 0xbc
 237 -246 162 -196 125 -196 c 1x7c
 125 -196 61 -246 35 -246 c 0xbc
 8 -246 -60 -196 -85 -196 c 0x7c
 -117 -196 -147 -220 -163 -235 c 2
 -175 -246 l 1xbc
 -196 -225 l 1
 -196 -225 -194 -222 -191 -219 c 2
 -120 -149 l 2
 -120 -148 l 0
 -106 -134 -71 -104 -35 -104 c 0x7c
 -10 -104 58 -154 85 -154 c 0
 90 -154 98 -152 104 -149 c 1
 104 505 l 1
 295 696 l 1
 316 675 l 1
 316 675 341 631 371 597 c 0
 386 584 401 576 415 576 c 1
 535 696 l 1
 535 696 583 671 655 671 c 1
 685 641 l 1xbc
344 490 m 1
 333 495 322 504 311 515 c 0
 310 515 l 1
 289 536 l 2
 270 555 252 580 240 599 c 1
 196 555 l 1
 196 -108 l 1
 236 -120 293 -154 325 -154 c 0xbc
 331 -154 338 -152 344 -150 c 1
 344 490 l 1
EndSplineSet
LCarets2: 2 360 600 
Ligature2: "Ligatures-1" longs longs l
EndChar
StartChar: b_b
Encoding: 61122 61122 349
Width: 720
GlyphClass: 3
Flags: W
HStem: 426 20G<245 285 485 525> 426 20G<245 285 485 525> 651 20G<95 134.512 335 375>
VStem: 74 92<99.5798 305 347 560> 314 92<99.5798 300.42 397 560> 554 92<145 300.42>
CounterMasks: 1 1c
LayerCount: 2
Back
SplineSet
330 625 m 25
 390 565 l 1049
360 595 m 9
 360 120 l 25
 480 0 l 25
 600 120 l 25
 600 280 l 25
 480 400 l 1
 360 280 l 1049
90 625 m 25
 150 565 l 1049
120 595 m 9
 120 120 l 25
 240 0 l 25
 360 120 l 25
 360 280 l 25
 240 400 l 1
 120 280 l 1049
EndSplineSet
Fore
SplineSet
166 305 m 1x3c
 166 145 l 2
 166 92 236 75 265 46 c 1
 314 95 l 1
 314 255 l 2
 314 308 244 325 215 354 c 1
 166 305 l 1x3c
166 347 m 1
 265 446 l 1
 314 397 l 1
 314 570 l 1
 284 600 l 1
 355 671 l 1
 385 641 l 1
 406 620 l 1
 436 590 l 1
 406 560 l 1
 406 347 l 1
 505 446 l 1xbc
 646 305 l 1
 646 145 l 1
 455 -46 l 1
 335 74 l 1
 215 -46 l 1
 74 95 l 1
 74 570 l 1
 44 600 l 1
 115 671 l 1
 155 630 l 1
 166 620 l 1
 196 590 l 1
 166 560 l 1
 166 347 l 1
406 305 m 1
 406 145 l 2
 406 92 476 75 505 46 c 1
 554 95 l 1
 554 255 l 2
 554 308 484 325 455 354 c 1
 406 305 l 1
EndSplineSet
LCarets2: 1 360 
Ligature2: "Historic ligatures-1" b b
EndChar
StartChar: c_t
Encoding: 61125 61125 335
Width: 810
Flags: W
HStem: 304 92<341.164 524> 426 20G<241 361 685 765> 446 130G<241 361 575 615 685 765>
VStem: 74 92<145 275> 524 92<57.9004 307 403 525>
LayerCount: 2
Back
SplineSet
360 120 m 9
 240 0 l 25
 120 120 l 25
 120 300 l 1
 240 400 l 17
 240 400 324.968994112 350 480 350 c 3
 664 350 720 400 720 400 c 1033
570 550 m 1
 570 60 l 1
 630 0 l 1
 750 120 l 1025
EndSplineSet
Fore
SplineSet
595 596 m 1xd8
 616 575 l 1
 616 403 l 1
 712 417 745 446 745 446 c 1
 766 425 l 1
 695 354 l 1
 695 354 674 336 616 321 c 1
 616 85 l 2
 616 65 644 57 655 46 c 1
 775 166 l 1
 796 145 l 1
 605 -46 l 1
 524 35 l 1
 524 307 l 1
 503 305 480 304 455 304 c 0
 300 304 215 354 215 354 c 1
 166 313 l 1
 166 145 l 1
 265 46 l 1
 385 166 l 1
 406 145 l 1
 215 -46 l 1
 74 95 l 1
 74 275 l 1
 145 346 l 1
 265 446 l 1
 265 446 350 396 505 396 c 0
 512 396 518 396 524 396 c 1
 524 525 l 1
 595 596 l 1xd8
EndSplineSet
LCarets2: 1 420 
Ligature2: "Ligatures-1" c t
EndChar
StartChar: e_y
Encoding: 61127 61127 351
Width: 720
GlyphClass: 3
Flags: W
HStem: -246 92<480.899 537.5> -196 92<357.486 417.562> -46 21G<185 235 435 475> 426 20G<245 295 575 615> 426 20G<245 295 575 615>
VStem: 74 92<147 255> 314 92<145 253> 554 92<-125 53 95 335>
CounterMasks: 1 07
LayerCount: 2
Back
SplineSet
630 340 m 25
 570 400 l 1049
300 -200 m 17
 300 -200 344 -150 390 -150 c 8
 415 -150 483 -200 510 -200 c 24
 536 -200 600 -150 600 -150 c 1
 600 370 l 1025
600 120 m 9
 480 0 l 25
 360 120 l 1
 360 320 l 1049
360 120 m 9
 240 0 l 25
 120 80 l 25
 120 280 l 25
 240 400 l 25
 360 320 l 1
 120 80 l 1025
EndSplineSet
Fore
SplineSet
166 147 m 1x27
 310 291 l 1
 215 354 l 1
 166 305 l 1
 166 147 l 1x27
170 109 m 1
 265 46 l 1
 314 95 l 1
 314 253 l 1
 170 109 l 1
275 -246 m 1xa7
 254 -225 l 1
 254 -225 256 -222 259 -219 c 2
 330 -149 l 2
 330 -148 l 0
 344 -134 379 -104 415 -104 c 0x67
 440 -104 508 -154 535 -154 c 0xa7
 540 -154 548 -152 554 -149 c 1
 554 53 l 1
 455 -46 l 1
 335 74 l 1
 215 -46 l 1
 95 34 l 1
 74 55 l 1
 74 255 l 1
 265 446 l 1
 385 366 l 1
 406 345 l 1
 406 145 l 1
 505 46 l 1
 554 95 l 1
 554 345 l 1
 524 375 l 1
 595 446 l 1
 625 416 l 1
 646 395 l 1
 676 365 l 1
 646 335 l 1
 646 145 l 1
 646 -125 l 1
 575 -196 l 1x77
 575 -196 511 -246 485 -246 c 0xa7
 458 -246 390 -196 365 -196 c 0x67
 333 -196 303 -219 287 -234 c 2
 275 -246 l 1xa7
EndSplineSet
LCarets2: 1 360 
Ligature2: "Historic ligatures-1" e y
EndChar
StartChar: f_r
Encoding: 61130 61130 352
Width: 660
GlyphClass: 3
Flags: W
HStem: -246 92<30.8994 87.5> -196 92<-92.514 -32.4385> 354 92<85 104 196 365> 426 20G<545 585> 604 32<408.669 420.188>
VStem: 104 92<-125 354 446 505> 374 92<65 305>
LayerCount: 2
Back
SplineSet
-150 -200 m 1
 -150 -200 -106 -150 -60 -150 c 8
 -35 -150 33 -200 60 -200 c 24
 86 -200 150 -150 150 -150 c 1
 150 530 l 1
 270 650 l 17
 270 650 300 590 360 590 c 24
 388 590 450 650 451 650 c 1025
60 400 m 1
 390 400 l 25
 450 340 l 1025
600 340 m 25
 540 400 l 25
 420 280 l 1049
390 60 m 25
 450 0 l 1049
420 370 m 9
 420 30 l 1025
EndSplineSet
Fore
SplineSet
646 365 m 1x1e
 575 294 l 1
 515 354 l 1
 466 305 l 1
 466 55 l 1
 496 25 l 1
 425 -46 l 1
 395 -16 l 1
 374 5 l 1
 344 35 l 1
 374 65 l 1
 374 255 l 1
 374 345 l 1
 365 354 l 1
 196 354 l 1
 196 -125 l 1
 125 -196 l 1x6e
 125 -196 61 -246 35 -246 c 0x8e
 8 -246 -60 -196 -85 -196 c 0x4e
 -117 -196 -147 -220 -163 -235 c 2
 -175 -246 l 1x8e
 -196 -225 l 1
 -196 -225 -194 -222 -191 -219 c 2
 -120 -149 l 2
 -120 -148 l 0
 -106 -134 -71 -104 -35 -104 c 0x4e
 -10 -104 58 -154 85 -154 c 0
 90 -154 98 -152 104 -149 c 1
 104 354 l 1
 35 354 l 1
 14 375 l 1
 85 446 l 1
 104 446 l 1
 104 505 l 1
 295 696 l 1
 316 675 l 1
 316 675 320 666 328 656 c 0
 343 645 362 636 385 636 c 0
 413 636 475 696 476 696 c 2
 497 675 l 1
 426 604 l 2
 425 604 363 544 335 544 c 0
 305 544 283 559 268 574 c 2
 247 595 l 2
 245 597 244 598 242 600 c 2
 196 555 l 1
 196 446 l 1xae
 415 446 l 1
 445 416 l 1
 466 395 l 1
 490 371 l 1
 565 446 l 1
 646 365 l 1x1e
EndSplineSet
LCarets2: 1 360 
Ligature2: "Ligatures-1" f r
EndChar
StartChar: f_t
Encoding: 61131 61131 326
Width: 630
GlyphClass: 3
Flags: W
HStem: -246 92<30.8994 87.5> -196 92<-92.514 -32.4385> 354 92<85 104 196 344 436 515>
VStem: 104 92<-125 354 446 505> 344 92<57.9004 354 446 521.53>
LayerCount: 2
Back
SplineSet
-150 -200 m 17
 -150 -200 -106 -150 -60 -150 c 8
 -35 -150 33 -200 60 -200 c 24
 86 -200 150 -150 150 -150 c 1
 150 530 l 1
 270 650 l 1
 270 650 337 550 390 550 c 1
 390 60 l 1
 450 0 l 1
 570 120 l 1025
60 400 m 25
 540 400 l 1049
EndSplineSet
Fore
SplineSet
14 375 m 1xb8
 85 446 l 1
 104 446 l 1
 104 505 l 1
 295 696 l 1
 316 675 l 1
 316 675 331 652 353 628 c 0
 373 610 395 596 415 596 c 1
 436 575 l 1
 436 446 l 1
 565 446 l 1
 586 425 l 1
 515 354 l 1
 436 354 l 1
 436 85 l 2
 436 65 464 57 475 46 c 1
 595 166 l 1
 616 145 l 1
 425 -46 l 1
 344 35 l 1
 344 354 l 1
 196 354 l 1
 196 -125 l 1
 125 -196 l 1x78
 125 -196 61 -246 35 -246 c 0xb8
 8 -246 -60 -196 -85 -196 c 0x78
 -117 -196 -147 -220 -163 -235 c 2
 -175 -246 l 1xb8
 -196 -225 l 1
 -196 -225 -194 -222 -191 -219 c 2
 -120 -149 l 2
 -120 -148 l 0
 -106 -134 -71 -104 -35 -104 c 0x78
 -10 -104 58 -154 85 -154 c 0
 90 -154 98 -152 104 -149 c 1
 104 354 l 1
 35 354 l 1
 14 375 l 1xb8
196 446 m 1
 344 446 l 1
 344 509 l 1
 327 516 309 531 293 546 c 2
 272 567 l 2
 260 579 250 591 242 601 c 1
 196 555 l 1
 196 446 l 1
EndSplineSet
LCarets2: 1 360 
Ligature2: "Ligatures-1" f t
EndChar
StartChar: f_y
Encoding: 61133 61133 353
Width: 780
GlyphClass: 3
Flags: W
HStem: -246 92<30.8994 87.5 540.899 597.5> -196 92<-92.514 -32.4385 417.486 477.562> 354 92<85 104 196 365> 426 20G<635 675> 604 32<408.669 420.188>
VStem: 104 92<-125 354 446 505> 374 92<145 335> 614 92<-125 53 95 335>
LayerCount: 2
Back
SplineSet
690 340 m 25
 630 400 l 1049
360 -200 m 17
 360 -200 404 -150 450 -150 c 8
 475 -150 543 -200 570 -200 c 24
 596 -200 660 -150 660 -150 c 1
 660 370 l 1025
660 120 m 9
 540 0 l 25
 420 120 l 1
 420 370 l 1049
-150 -200 m 17
 -150 -200 -106 -150 -60 -150 c 8
 -35 -150 33 -200 60 -200 c 24
 86 -200 150 -150 150 -150 c 1
 150 530 l 1
 270 650 l 17
 270 650 300 590 360 590 c 24
 388 590 450 650 451 650 c 1033
60 400 m 1
 390 400 l 25
 450 340 l 1025
EndSplineSet
Fore
SplineSet
14 375 m 1xaf
 85 446 l 1
 104 446 l 1
 104 505 l 1
 295 696 l 1
 316 675 l 1
 316 675 320 666 328 656 c 0
 343 645 362 636 385 636 c 0
 413 636 475 696 476 696 c 2
 497 675 l 1
 426 604 l 2
 425 604 363 544 335 544 c 0
 305 544 283 559 268 574 c 2
 247 595 l 2
 245 597 244 598 242 600 c 2
 196 555 l 1
 196 446 l 1xaf
 415 446 l 1
 445 416 l 1
 466 395 l 1
 496 365 l 1
 466 335 l 1
 466 145 l 1
 565 46 l 1
 614 95 l 1
 614 345 l 1
 584 375 l 1
 655 446 l 1
 706 395 l 1
 736 365 l 1
 706 335 l 1
 706 145 l 1
 706 -125 l 1
 635 -196 l 1x5f
 635 -196 571 -246 545 -246 c 0x8f
 518 -246 450 -196 425 -196 c 0x4f
 393 -196 363 -220 347 -235 c 2
 335 -246 l 1x8f
 314 -225 l 1
 314 -225 316 -222 319 -219 c 2
 390 -149 l 2
 390 -148 l 0
 404 -134 439 -104 475 -104 c 0x4f
 500 -104 568 -154 595 -154 c 0x8f
 600 -154 608 -152 614 -149 c 1
 614 53 l 1
 515 -46 l 1
 374 95 l 1
 374 345 l 1
 365 354 l 1
 196 354 l 1
 196 -125 l 1
 125 -196 l 1x6f
 125 -196 61 -246 35 -246 c 0x8f
 8 -246 -60 -196 -85 -196 c 0x4f
 -117 -196 -147 -220 -163 -235 c 2
 -175 -246 l 1x8f
 -196 -225 l 1
 -196 -225 -194 -222 -191 -219 c 2
 -120 -149 l 2
 -120 -148 l 0
 -106 -134 -71 -104 -35 -104 c 0x4f
 -10 -104 58 -154 85 -154 c 0
 90 -154 98 -152 104 -149 c 1
 104 354 l 1
 35 354 l 1
 14 375 l 1xaf
EndSplineSet
LCarets2: 1 360 
Ligature2: "Ligatures-1" f y
EndChar
StartChar: f_f_y
Encoding: 61135 61135 355
Width: 1020
GlyphClass: 3
Flags: W
HStem: -246 92<30.8994 87.5 256.961 327.843 780.899 837.5> -196 92<-92.514 -32.4385 657.486 717.562> 354 92<85 104 196 344 436 605> 426 20G<875 914.512> 604 32<648.669 660.188>
VStem: 104 92<-115.853 354 446 505> 344 92<-125 354 446 504.446> 614 92<145 335> 854 92<-125 53 95 335>
LayerCount: 2
Back
SplineSet
930 340 m 25
 870 400 l 1049
600 -200 m 17
 600 -200 644 -150 690 -150 c 8
 715 -150 783 -200 810 -200 c 24
 836 -200 900 -150 900 -150 c 1
 900 370 l 1025
900 120 m 9
 780 0 l 25
 660 120 l 1
 660 370 l 1049
150 -150 m 1
 187 -150 262 -200 300 -200 c 0
 334 -200 390 -150 390 -150 c 1
 390 530 l 1
 510 650 l 17
 510 650 540 590 600 590 c 24
 628 590 690 650 691 650 c 1025
-150 -200 m 1
 -150 -200 -106 -150 -60 -150 c 8
 -35 -150 33 -200 60 -200 c 24
 86 -200 150 -150 150 -150 c 1
 150 530 l 1
 270 650 l 1
 270 650 337 530 390 530 c 1025
60 400 m 1
 630 400 l 25
 690 340 l 1025
EndSplineSet
Fore
SplineSet
14 375 m 1xaf80
 85 446 l 1
 104 446 l 1
 104 505 l 1
 295 696 l 1
 316 675 l 1
 316 675 341 631 371 597 c 0
 386 584 401 576 415 576 c 1
 535 696 l 1
 556 675 l 1
 556 675 560 666 568 656 c 0
 583 645 602 636 625 636 c 0
 653 636 715 696 716 696 c 2
 737 675 l 1
 666 604 l 2
 665 604 603 544 575 544 c 0
 545 544 523 559 508 574 c 0
 487 595 l 2
 485 597 484 598 482 600 c 2
 436 555 l 1
 436 446 l 1xaf80
 655 446 l 1
 685 416 l 1
 706 395 l 1
 736 365 l 1
 706 335 l 1
 706 145 l 1
 805 46 l 1
 854 95 l 1
 854 345 l 1
 824 375 l 1
 895 446 l 1
 935 405 l 1
 946 395 l 1
 976 365 l 1
 946 335 l 1
 946 145 l 1
 946 -125 l 1
 875 -196 l 1x5f80
 875 -196 811 -246 785 -246 c 0x8f80
 758 -246 690 -196 665 -196 c 0x4f80
 633 -196 603 -220 587 -235 c 2
 575 -246 l 1x8f80
 554 -225 l 1
 554 -225 556 -222 559 -219 c 2
 630 -149 l 1
 630 -148 l 2
 644 -134 679 -104 715 -104 c 0x4f80
 740 -104 808 -154 835 -154 c 0x8f80
 840 -154 848 -152 854 -149 c 1
 854 53 l 1
 755 -46 l 1
 614 95 l 1
 614 345 l 1
 605 354 l 1
 436 354 l 1
 436 -125 l 1
 365 -196 l 1x6f80
 365 -196 309 -246 275 -246 c 0x8f80
 237 -246 162 -196 125 -196 c 1x4f80
 125 -196 61 -246 35 -246 c 0x8f80
 8 -246 -60 -196 -85 -196 c 0x4f80
 -117 -196 -147 -220 -163 -235 c 2
 -175 -246 l 1x8f80
 -196 -225 l 1
 -196 -225 -194 -222 -191 -219 c 2
 -120 -149 l 2
 -120 -148 l 0
 -106 -134 -71 -104 -35 -104 c 0x4f80
 -10 -104 58 -154 85 -154 c 0
 90 -154 98 -152 104 -149 c 1
 104 354 l 1
 35 354 l 1
 14 375 l 1xaf80
196 446 m 1
 344 446 l 1
 344 490 l 1
 333 495 322 504 311 515 c 0
 310 515 l 1
 289 536 l 2
 270 555 252 580 240 599 c 1
 196 555 l 1
 196 446 l 1
196 354 m 1
 196 -108 l 1
 236 -120 293 -154 325 -154 c 0
 331 -154 338 -152 344 -150 c 1
 344 354 l 1
 196 354 l 1
EndSplineSet
LCarets2: 2 360 600 
Ligature2: "Ligatures-1" f f y
EndChar
StartChar: g_g
Encoding: 61137 61137 497
Width: 720
Flags: W
HStem: -246 92<240.899 297.5 475.107 537.843> -196 92<117.486 177.562> 426 20G<245 285 364.556 405 485 525 604.556 645> 426 20G<245 285 364.556 405 485 525 604.556 645>
VStem: 74 92<99.5798 255> 314 92<-108.909 3 99.5798 305> 554 92<-125 53 95 325>
CounterMasks: 1 0e
LayerCount: 2
Back
SplineSet
360 -150 m 8
 383 -130 472 -200 510 -200 c 0
 544 -200 600 -150 600 -150 c 9
 600 400 l 1
 600 400 576 352 540 352 c 24
 504 352 480 400 480 400 c 1
 360 280 l 25
 360 120 l 25
 480 0 l 25
 600 120 l 1041
60 -200 m 17
 60 -200 104 -150 150 -150 c 8
 175 -150 243 -200 270 -200 c 24
 296 -200 360 -150 360 -150 c 9
 360 400 l 1
 360 400 336 352 300 352 c 24
 264 352 240 400 240 400 c 1
 120 280 l 25
 120 120 l 25
 240 0 l 25
 360 120 l 1041
EndSplineSet
Fore
SplineSet
314 325 m 1x0e
 304 315 290 306 275 306 c 0
 260 306 247 315 237 325 c 2
 215 346 l 2
 215 347 l 0
 214 348 212 349 211 350 c 2
 166 305 l 1
 166 145 l 2
 166 92 236 75 265 46 c 1
 314 95 l 1
 314 255 l 1
 314 325 l 1x0e
314 53 m 1
 215 -46 l 1
 74 95 l 1
 74 255 l 1
 265 446 l 1
 286 425 l 2
 286 425 290 418 297 408 c 0
 305 403 315 398 325 398 c 0
 330 398 333 399 339 401 c 2
 385 446 l 1
 406 425 l 1
 406 347 l 1
 505 446 l 1
 526 425 l 2
 526 425 530 418 537 408 c 0
 545 403 555 398 565 398 c 0
 570 398 573 399 579 401 c 2
 625 446 l 1
 646 425 l 1
 646 -125 l 1
 575 -196 l 1x6e
 575 -196 519 -246 485 -246 c 0x8e
 447 -246 358 -176 335 -196 c 1x4e
 335 -196 271 -246 245 -246 c 0x8e
 218 -246 150 -196 125 -196 c 0x4e
 93 -196 63 -220 47 -235 c 2
 35 -246 l 1x8e
 14 -225 l 1
 14 -225 16 -222 19 -219 c 2
 90 -149 l 2
 90 -148 l 0
 104 -134 139 -104 175 -104 c 0x4e
 200 -104 268 -154 295 -154 c 0x8e
 300 -154 308 -152 314 -149 c 1
 314 53 l 1
554 325 m 1
 544 315 530 306 515 306 c 0
 500 306 487 315 477 325 c 2
 455 346 l 2
 455 347 l 0
 454 348 452 349 451 350 c 2
 406 305 l 1
 406 145 l 2
 406 92 476 75 505 46 c 1
 554 95 l 1
 554 325 l 1
554 53 m 1
 455 -46 l 1
 406 3 l 1
 406 -102 l 1
 442 -110 505 -154 535 -154 c 0x8e
 541 -154 548 -152 554 -150 c 1
 554 53 l 1
EndSplineSet
LCarets2: 1 360 
Ligature2: "Historic ligatures-1" g g
EndChar
StartChar: g_eth
Encoding: 61140 61140 499
Width: 480
Flags: W
HStem: -246 92<240.899 297.5> -196 92<117.486 177.562> 426 20G<245 285> 426 20G<245 285> 505 91<215 265>
VStem: 74 92<99.5798 255> 314 92<-125 53 95 325 399 473.341>
LayerCount: 2
Back
SplineSet
300 610 m 1
 140 450 l 1025
360 400 m 1
 360 450 l 2
 360 504.529056756 293 550 240 550 c 0
 187 550 120 549 120 600 c 27
 120 633 180 670 169 650 c 1049
60 -200 m 17
 60 -200 104 -150 150 -150 c 8
 175 -150 243 -200 270 -200 c 24
 296 -200 360 -150 360 -150 c 9
 360 400 l 1
 360 400 336 352 300 352 c 24
 264 352 240 400 240 400 c 1
 120 280 l 25
 120 120 l 25
 240 0 l 25
 360 120 l 1041
EndSplineSet
Fore
SplineSet
314 325 m 1x0e
 304 315 290 306 275 306 c 0
 260 306 247 315 237 325 c 2
 215 346 l 2
 215 347 l 0
 214 348 212 349 211 350 c 2
 166 305 l 1
 166 145 l 2
 166 92 236 75 265 46 c 1
 314 95 l 1
 314 325 l 1x0e
314 53 m 1
 215 -46 l 1
 74 95 l 1
 74 255 l 1
 265 446 l 1
 286 425 l 2
 286 425 290 418 297 408 c 0
 302 405 308 401 314 399 c 1
 314 425 l 2
 314 442 307 460 296 474 c 1
 272 493 242 504 215 504 c 1
 115 404 l 1
 94 425 l 1
 173 505 l 1
 146 506 120 511 106 525 c 2
 85 546 l 2
 78 553 74 562 74 575 c 0
 74 588 83 602 93 612 c 2
 164 683 l 2
 165 683 l 2
 178 696 192 704 195 701 c 2
 216 680 l 2
 217 679 216 678 215 675 c 2
 166 626 l 2
 166 625 l 0
 166 618 167 613 169 608 c 0
 193 596 232 596 265 596 c 1
 325 656 l 1
 346 635 l 1
 301 590 l 1
 322 583 342 571 357 556 c 2
 378 534 l 2
 395 517 406 497 406 475 c 2
 406 425 l 1
 406 -125 l 1
 335 -196 l 1x6e
 335 -196 271 -246 245 -246 c 0x8e
 218 -246 150 -196 125 -196 c 0x4e
 93 -196 63 -220 47 -235 c 2
 35 -246 l 1x8e
 14 -225 l 1
 14 -225 16 -222 19 -219 c 2
 90 -149 l 2
 90 -148 l 0
 104 -134 139 -104 175 -104 c 0x4e
 200 -104 268 -154 295 -154 c 0x8e
 300 -154 308 -152 314 -149 c 1
 314 53 l 1
EndSplineSet
LCarets2: 1 240 
Ligature2: "Historic ligatures-1" g eth
EndChar
StartChar: pfluorish_p
Encoding: 61143 61143 879
Width: 840
Flags: W
HStem: -196 21G<-15 25 195 235 435 475> 426 20G<215 255 365 405 605 645> 426 20G<215 255 365 405 605 645>
VStem: 44 92<-84.7935 30.5609> 194 92<-125 -8 134 305> 434 92<-125 -7 95.683 255> 674 92<145 255>
LayerCount: 2
Back
SplineSet
480 -150 m 1
 480 280 l 9
 600 400 l 1
 720 280 l 25
 720 120 l 1
 600 0 l 1
 600 0 559 60 450 60 c 0
 415 60 360 0 360 0 c 1
 360 0 278 100 30 100 c 1
 30 100 90 44 90 0 c 3
 90 -132 30 -150 30 -150 c 1033
480 280 m 25
 360 400 l 1
 240 280 l 1049
210 400 m 25
 270 340 l 1049
240 370 m 1
 240 -150 l 1025
EndSplineSet
Fore
SplineSet
265 416 m 1xde
 286 395 l 1
 310 371 l 1
 385 446 l 1
 505 326 l 1
 625 446 l 1
 766 305 l 1
 766 145 l 1
 575 -46 l 1
 555 -26 l 2
 547 -20 538 -13 526 -7 c 1
 526 -125 l 1
 455 -196 l 1
 434 -175 l 1
 434 14 l 2
 431 14 428 14 425 14 c 0
 402 14 370 -12 351 -30 c 2
 335 -46 l 1
 326 -36 l 2
 318 -29 305 -19 286 -8 c 1
 286 -125 l 1
 215 -196 l 1
 194 -175 l 1
 194 30 l 1
 176 35 156 40 133 44 c 1
 135 37 136 31 136 25 c 0
 136 -56 113 -94 96 -111 c 2
 25 -182 l 2
 14 -193 5 -196 5 -196 c 2
 -16 -175 l 1
 21 -137 l 1
 33 -115 44 -80 44 -25 c 0
 44 9 9 50 -8 67 c 2
 -16 75 l 1
 55 146 l 1
 67 146 79 145 90 145 c 0
 129 143 164 140 194 134 c 1
 194 255 l 1
 194 345 l 1
 164 375 l 1
 235 446 l 1
 265 416 l 1xde
526 101 m 2
 530 100 533 100 536 99 c 0
 578 88 604 68 616 56 c 2
 625 47 l 1
 674 95 l 1
 674 255 l 1
 575 354 l 1
 526 305 l 1
 526 101 l 2
286 305 m 1
 286 108 l 1
 341 86 371 60 381 50 c 2
 385 46 l 1
 392 54 l 2
 401 63 417 77 434 89 c 1
 434 255 l 1
 335 354 l 1
 286 305 l 1
EndSplineSet
LCarets2: 1 480 
Ligature2: "Ligatures-1" pflourish p
EndChar
StartChar: t_y
Encoding: 61147 61147 731
Width: 780
Flags: W
HStem: -246 92<540.899 597.5> -196 92<417.486 477.562> 354 92<85 104 196 365> 576 20G<155 195 635 675>
VStem: 104 92<57.9004 354 446 525> 374 92<147 335> 614 92<-125 53 95 335>
LayerCount: 2
Back
SplineSet
690 340 m 25
 630 400 l 1049
360 -200 m 17
 360 -200 404 -150 450 -150 c 8
 475 -150 543 -200 570 -200 c 24
 596 -200 660 -150 660 -150 c 1
 660 370 l 1025
660 120 m 9
 540 0 l 25
 420 120 l 1
 420 370 l 1049
150 550 m 1
 150 60 l 1
 210 0 l 1
 330 120 l 1025
60 400 m 1
 390 400 l 1
 450 340 l 1025
EndSplineSet
Fore
SplineSet
14 375 m 1xbe
 85 446 l 1
 104 446 l 1
 104 525 l 1
 175 596 l 1
 196 575 l 1
 196 446 l 1
 415 446 l 1
 445 416 l 1
 466 395 l 1
 496 365 l 1
 466 335 l 1
 466 145 l 1
 565 46 l 1
 614 95 l 1
 614 345 l 1
 584 375 l 1
 655 446 l 1
 706 395 l 1
 736 365 l 1
 706 335 l 1
 706 145 l 1
 706 -125 l 1
 635 -196 l 1x7e
 635 -196 571 -246 545 -246 c 0xbe
 518 -246 450 -196 425 -196 c 0x7e
 393 -196 363 -220 347 -235 c 2
 335 -246 l 1xbe
 314 -225 l 1
 314 -225 316 -222 319 -219 c 2
 390 -149 l 2
 390 -148 l 0
 404 -134 439 -104 475 -104 c 0x7e
 500 -104 568 -154 595 -154 c 0
 600 -154 608 -152 614 -149 c 1
 614 53 l 1
 515 -46 l 1
 374 95 l 1
 374 143 l 1
 185 -46 l 1
 104 35 l 1
 104 354 l 1
 35 354 l 1
 14 375 l 1xbe
196 354 m 1
 196 85 l 2
 196 65 224 57 235 46 c 1
 355 166 l 1
 374 147 l 1
 374 345 l 1
 365 354 l 1
 196 354 l 1
EndSplineSet
LCarets2: 1 360 
Ligature2: "Ligatures-1" t y
EndChar
StartChar: a_g
Encoding: 61349 61349 338
Width: 720
GlyphClass: 3
Flags: W
HStem: -246 92<480.899 537.5> -196 92<357.486 417.562> 179 92<237.369 314> 426 20G<215 355 485 525 604.556 645> 426 20G<215 355 485 525 604.556 645>
VStem: 314 92<125 179 271 305> 554 92<-125 53 95 325>
LayerCount: 2
Back
SplineSet
150 220 m 17
 120 310 l 1
 210 400 l 1
 360 375 l 1
 360 150 l 9
 210 0 l 1
 120 90 l 1
 120 160 l 1
 210 250 l 1
 210 250 232.928594192 225 300 225 c 3
 360 225 l 1033
300 -200 m 17
 300 -200 344 -150 390 -150 c 8
 415 -150 483 -200 510 -200 c 24
 536 -200 600 -150 600 -150 c 9
 600 400 l 1
 600 400 576 352 540 352 c 24
 504 352 480 400 480 400 c 1
 360 280 l 25
 360 120 l 25
 480 0 l 25
 600 120 l 1041
EndSplineSet
Fore
SplineSet
554 325 m 1x26
 544 315 530 306 515 306 c 0
 500 306 487 315 477 325 c 2
 455 346 l 2
 455 347 l 0
 454 348 452 349 451 350 c 2
 406 305 l 1
 406 175 l 1
 406 145 l 2
 406 92 476 75 505 46 c 1
 554 95 l 1
 554 325 l 1x26
554 53 m 1
 455 -46 l 1
 320 89 l 1
 185 -46 l 1
 74 65 l 1
 74 135 l 1
 119 180 l 1
 104 195 l 1
 74 285 l 1
 235 446 l 1
 385 421 l 1
 406 400 l 1
 406 347 l 1
 505 446 l 1
 526 425 l 2
 526 425 530 418 537 408 c 0
 545 403 555 398 565 398 c 0
 570 398 573 399 579 401 c 2
 625 446 l 1
 646 425 l 1
 646 -125 l 1
 575 -196 l 1x76
 575 -196 511 -246 485 -246 c 0xa6
 458 -246 390 -196 365 -196 c 0x66
 333 -196 303 -219 287 -234 c 2
 275 -246 l 1xa6
 254 -225 l 1
 254 -225 256 -222 259 -219 c 2
 330 -149 l 2
 330 -148 l 0
 344 -134 379 -104 415 -104 c 0x66
 440 -104 508 -154 535 -154 c 0xa6
 540 -154 548 -152 554 -149 c 1
 554 53 l 1
193 254 m 1
 235 296 l 1
 235 295 l 2
 239 291 261 273 314 271 c 1
 314 333 l 1
 185 354 l 1
 166 335 l 1
 193 254 l 1
314 125 m 1
 314 179 l 1
 275 179 l 2
 212 179 189 201 186 204 c 2
 185 204 l 1
 166 185 l 1
 166 115 l 1
 235 46 l 1
 314 125 l 1
EndSplineSet
LCarets2: 1 360 
Ligature2: "Historic ligatures-1" a g
EndChar
StartChar: a_l
Encoding: 61350 61350 339
Width: 480
GlyphClass: 3
Flags: W
HStem: 179 92<237.369 314> 426 20G<215 314> 426 20G<215 314> 651 20G<335 375>
VStem: 314 92<65 83 125 179 271 333 433 560>
LayerCount: 2
Back
SplineSet
150 220 m 17
 120 310 l 1
 210 400 l 1
 360 375 l 1
 360 150 l 9
 210 0 l 1
 120 90 l 1
 120 160 l 1
 210 250 l 1
 210 250 232.928594192 225 300 225 c 3
 360 225 l 1033
330 60 m 25
 390 0 l 25
 450 60 l 1049
330 625 m 25
 390 565 l 1049
360 595 m 9
 360 30 l 1049
EndSplineSet
Fore
SplineSet
284 600 m 1xd8
 355 671 l 1
 385 641 l 1
 406 620 l 1
 436 590 l 1
 406 560 l 1
 406 400 l 1
 406 175 l 1
 406 55 l 1
 415 46 l 1
 475 106 l 1
 496 85 l 1
 365 -46 l 1
 335 -16 l 1
 314 5 l 1
 284 35 l 1
 314 65 l 1
 314 83 l 1
 185 -46 l 1
 74 65 l 1
 74 135 l 1
 119 180 l 1
 104 195 l 1
 74 285 l 1
 235 446 l 1
 314 433 l 1
 314 570 l 1
 284 600 l 1xd8
193 254 m 1
 235 296 l 1
 235 295 l 2
 239 291 261 273 314 271 c 1
 314 333 l 1
 185 354 l 1
 166 335 l 1
 193 254 l 1
314 125 m 1
 314 179 l 1
 275 179 l 2
 212 179 189 201 186 204 c 2
 185 204 l 1
 166 185 l 1
 166 115 l 1
 235 46 l 1
 314 125 l 1
EndSplineSet
LCarets2: 1 240 
Ligature2: "Historic ligatures-1" a l
EndChar
StartChar: a_n
Encoding: 61351 61351 340
Width: 720
GlyphClass: 3
Flags: W
HStem: 179 92<237.369 314> 426 20G<215 355 515 555> 426 20G<215 355 515 555>
VStem: 314 92<65 83 125 179 271 275 317 333> 554 92<65 321.97>
LayerCount: 2
Back
SplineSet
150 220 m 17
 120 310 l 1
 210 400 l 1
 360 375 l 1
 360 150 l 9
 210 0 l 1
 120 90 l 1
 120 160 l 1
 210 250 l 1
 210 250 232.928594192 225 300 225 c 3
 360 225 l 1033
570 60 m 25
 630 0 l 1049
600 30 m 1
 600 310 l 25
 510 400 l 1
 360 250 l 1049
330 60 m 25
 390 0 l 1049
360 30 m 1
 360 375 l 1041
EndSplineSet
Fore
SplineSet
119 180 m 1xd8
 104 195 l 1
 74 285 l 1
 235 446 l 1
 385 421 l 1
 406 400 l 1
 406 317 l 1
 535 446 l 1
 646 335 l 1
 646 55 l 1
 676 25 l 1
 605 -46 l 1
 575 -16 l 1
 554 5 l 1
 524 35 l 1
 554 65 l 1
 554 285 l 2
 554 322 505 334 485 354 c 1
 406 275 l 1
 406 175 l 1
 406 55 l 1
 436 25 l 1
 365 -46 l 1
 335 -16 l 1
 314 5 l 1
 284 35 l 1
 314 65 l 1
 314 83 l 1
 185 -46 l 1
 74 65 l 1
 74 135 l 1
 119 180 l 1xd8
193 254 m 1
 235 296 l 1
 235 295 l 2
 239 291 261 273 314 271 c 1
 314 333 l 1
 185 354 l 1
 166 335 l 1
 193 254 l 1
314 125 m 1
 314 179 l 1
 275 179 l 2
 212 179 189 201 186 204 c 2
 185 204 l 1
 166 185 l 1
 166 115 l 1
 235 46 l 1
 314 125 l 1
EndSplineSet
LCarets2: 1 360 
Ligature2: "Historic ligatures-1" a n
EndChar
StartChar: o_c
Encoding: 61357 61357 668
Width: 660
Flags: W
HStem: 426 20G<245 285 485 525> 426 20G<245 285 485 525>
VStem: 74 92<99.5798 255> 314 92<99.5798 300.42>
LayerCount: 2
Back
SplineSet
600 280 m 9
 480 400 l 25
 360 280 l 25
 360 120 l 25
 480 0 l 25
 600 120 l 1041
240 400 m 25
 120 280 l 25
 120 120 l 25
 240 0 l 25
 360 120 l 25
 360 280 l 25
 240 400 l 25
EndSplineSet
Fore
SplineSet
215 354 m 1x30
 166 305 l 1
 166 145 l 2
 166 92 236 75 265 46 c 1
 314 95 l 1
 314 255 l 2
 314 308 244 325 215 354 c 1x30
74 255 m 1
 265 446 l 1
 385 326 l 1
 505 446 l 1xb0
 646 305 l 1
 575 234 l 1
 455 354 l 1
 406 305 l 1
 406 145 l 2
 406 92 476 75 505 46 c 1
 625 166 l 1
 646 145 l 1
 455 -46 l 1
 335 74 l 1
 215 -46 l 1
 74 95 l 1
 74 255 l 1
EndSplineSet
LCarets2: 1 360 
Ligature2: "Historic ligatures-1" o c
EndChar
StartChar: l_l
Encoding: 62713 62713 575
Width: 480
Flags: W
HStem: 651 20G<95 134.512 335 375>
VStem: 74 92<65 560> 314 92<65 560>
LayerCount: 2
Back
SplineSet
330 60 m 25
 390 0 l 25
 450 60 l 1049
330 625 m 25
 390 565 l 1049
360 595 m 9
 360 30 l 1049
90 60 m 25
 150 0 l 25
 210 60 l 1049
90 625 m 25
 150 565 l 1049
120 595 m 9
 120 30 l 1049
EndSplineSet
Fore
SplineSet
44 600 m 1
 115 671 l 1
 155 630 l 1
 166 620 l 1
 196 590 l 1
 166 560 l 1
 166 55 l 1
 175 46 l 1
 235 106 l 1
 256 85 l 1
 125 -46 l 1
 74 5 l 1
 44 35 l 1
 74 65 l 1
 74 570 l 1
 44 600 l 1
385 641 m 1
 406 620 l 1
 436 590 l 1
 406 560 l 1
 406 55 l 1
 415 46 l 1
 475 106 l 1
 496 85 l 1
 365 -46 l 1
 335 -16 l 1
 314 5 l 1
 284 35 l 1
 314 65 l 1
 314 570 l 1
 284 600 l 1
 355 671 l 1
 385 641 l 1
EndSplineSet
LCarets2: 1 240 
Ligature2: "Ligatures-1" l l
EndChar
StartChar: longs_s
Encoding: 62717 62717 710
Width: 720
Flags: W
HStem: -246 92<30.8994 87.5> -196 92<-92.514 -32.4385> 14 92<350 430> 294 92<537.717 609> 426 20G<485 525 655 705> 426 20G<485 525 655 705> 604 32<408.669 420.188>
VStem: 104 92<-125 505>
LayerCount: 2
Back
SplineSet
-150 -200 m 17
 -150 -200 -106 -150 -60 -150 c 8
 -35 -150 33 -200 60 -200 c 24
 86 -200 150 -150 150 -150 c 1
 150 530 l 1
 270 650 l 17
 270 650 300 590 360 590 c 24
 388 590 450 650 451 650 c 1033
660 400 m 17
 660 400 598 340 570 340 c 24
 510 340 480 400 480 400 c 9
 360 280 l 1
 360 240 l 1
 600 160 l 1
 600 120 l 1
 480 0 l 17
 480 0 420 60 390 60 c 24
 360 60 300 0 300 0 c 1025
EndSplineSet
Fore
SplineSet
706 425 m 1x3b
 635 354 l 1
 635 354 573 294 545 294 c 0
 515 294 493 309 478 324 c 2
 457 345 l 2
 455 347 453 348 452 350 c 2
 406 305 l 1
 406 279 l 1
 625 206 l 1
 646 185 l 1
 646 145 l 1
 455 -46 l 1
 455 -46 395 14 365 14 c 0
 335 14 275 -46 275 -46 c 1
 254 -25 l 1
 325 46 l 1
 325 46 385 106 415 106 c 0
 445 106 505 46 505 46 c 1
 554 95 l 1
 554 121 l 1
 335 194 l 1
 314 215 l 1
 314 255 l 1
 505 446 l 1
 526 425 l 1
 526 425 530 416 538 406 c 0
 552 395 572 386 595 386 c 0
 623 386 685 446 685 446 c 1
 706 425 l 1x3b
-175 -246 m 1xb3
 -196 -225 l 1
 -196 -225 -194 -222 -191 -219 c 2
 -120 -149 l 2
 -120 -148 l 0
 -106 -134 -71 -104 -35 -104 c 0x73
 -10 -104 58 -154 85 -154 c 0xb3
 90 -154 98 -152 104 -149 c 1
 104 505 l 1
 295 696 l 1
 316 675 l 1
 316 675 320 666 328 656 c 0
 343 645 362 636 385 636 c 0
 413 636 475 696 476 696 c 2
 497 675 l 1
 426 604 l 2
 425 604 363 544 335 544 c 0
 305 544 283 559 268 574 c 2
 247 595 l 2
 245 597 244 598 242 600 c 2
 196 555 l 1
 196 -125 l 1
 125 -196 l 1x73
 125 -196 61 -246 35 -246 c 0xb3
 8 -246 -60 -196 -85 -196 c 0x73
 -117 -196 -147 -220 -163 -235 c 2
 -175 -246 l 1xb3
EndSplineSet
LCarets2: 1 360 
Ligature2: "Ligatures-1" longs s
EndChar
StartChar: f_l
Encoding: 64258 64258 323
Width: 540
Flags: W
HStem: -246 92<30.8994 87.5> -196 92<-92.514 -32.4385> 354 92<85 104 196 335> 579 92<301.639 365>
VStem: 104 92<-125 354 446 505> 374 92<65 393 446 560>
LayerCount: 2
Back
SplineSet
-150 -200 m 17
 -150 -200 -106 -150 -60 -150 c 8
 -35 -150 33 -200 60 -200 c 24
 86 -200 150 -150 150 -150 c 1
 150 530 l 1
 270 650 l 1
 270 650 318 625 390 625 c 9
 450 565 l 1025
60 400 m 25
 360 400 l 1049
390 60 m 25
 450 0 l 25
 510 60 l 1049
420 595 m 9
 420 30 l 1049
EndSplineSet
Fore
SplineSet
14 375 m 1xbc
 85 446 l 1
 104 446 l 1
 104 505 l 1
 295 696 l 1
 295 696 343 671 415 671 c 1
 445 641 l 1
 466 620 l 1
 496 590 l 1
 466 560 l 1
 466 55 l 1
 475 46 l 1
 535 106 l 1
 556 85 l 1
 425 -46 l 1
 374 5 l 1
 344 35 l 1
 374 65 l 1
 374 393 l 1
 335 354 l 1
 196 354 l 1
 196 -125 l 1
 125 -196 l 1x7c
 125 -196 61 -246 35 -246 c 0xbc
 8 -246 -60 -196 -85 -196 c 0x7c
 -117 -196 -147 -220 -163 -235 c 2
 -175 -246 l 1xbc
 -196 -225 l 1
 -196 -225 -194 -222 -191 -219 c 2
 -120 -149 l 2
 -120 -148 l 0
 -106 -134 -71 -104 -35 -104 c 0x7c
 -10 -104 58 -154 85 -154 c 0
 90 -154 98 -152 104 -149 c 1
 104 354 l 1
 35 354 l 1
 14 375 l 1xbc
374 446 m 1
 374 570 l 1
 365 579 l 1
 293 579 245 604 245 604 c 1
 196 555 l 1
 196 446 l 1
 374 446 l 1
EndSplineSet
LCarets2: 1 360 
Ligature2: "Ligatures-1" f l
EndChar
StartChar: f_f_l
Encoding: 64260 64260 325
Width: 780
Flags: W
HStem: -246 92<30.8994 87.5 256.961 327.843> -196 92<-92.514 -32.4385> 354 92<85 104 196 344 436 575> 579 92<541.639 605>
VStem: 104 92<-115.853 354 446 505> 344 92<-125 354 446 504.446> 614 92<65 393 446 560>
LayerCount: 2
Back
SplineSet
150 -150 m 1
 187 -150 262 -200 300 -200 c 0
 334 -200 390 -150 390 -150 c 1
 390 530 l 1
 510 650 l 17
 510 650 558 625 630 625 c 1
 690 565 l 1025
-150 -200 m 17
 -150 -200 -106 -150 -60 -150 c 8
 -35 -150 33 -200 60 -200 c 24
 86 -200 150 -150 150 -150 c 1
 150 530 l 1
 270 650 l 1
 270 650 337 530 390 530 c 1025
60 400 m 25
 600 400 l 1049
630 60 m 25
 690 0 l 25
 750 60 l 1049
660 595 m 9
 660 30 l 1049
EndSplineSet
Fore
SplineSet
685 641 m 1xbe
 706 620 l 1
 736 590 l 1
 706 560 l 1
 706 55 l 1
 715 46 l 1
 775 106 l 1
 796 85 l 1
 665 -46 l 1
 635 -16 l 1
 614 5 l 1
 584 35 l 1
 614 65 l 1
 614 393 l 1
 575 354 l 1
 436 354 l 1
 436 -125 l 1
 365 -196 l 1x7e
 365 -196 309 -246 275 -246 c 0xbe
 237 -246 162 -196 125 -196 c 1x7e
 125 -196 61 -246 35 -246 c 0xbe
 8 -246 -60 -196 -85 -196 c 0x7e
 -117 -196 -147 -220 -163 -235 c 2
 -175 -246 l 1xbe
 -196 -225 l 1
 -196 -225 -194 -222 -191 -219 c 2
 -120 -149 l 2
 -120 -148 l 0
 -106 -134 -71 -104 -35 -104 c 0x7e
 -10 -104 58 -154 85 -154 c 0
 90 -154 98 -152 104 -149 c 1
 104 354 l 1
 35 354 l 1
 14 375 l 1
 85 446 l 1
 104 446 l 1
 104 505 l 1
 295 696 l 1
 316 675 l 1
 316 675 341 631 371 597 c 0
 386 584 401 576 415 576 c 1
 535 696 l 1
 535 696 583 671 655 671 c 1
 685 641 l 1xbe
614 446 m 1
 614 570 l 1
 605 579 l 1
 533 579 485 604 485 604 c 1
 436 555 l 1
 436 446 l 1
 614 446 l 1
196 446 m 1
 344 446 l 1
 344 490 l 1
 333 495 322 504 311 515 c 0
 310 515 l 1
 289 536 l 2
 270 555 252 580 240 599 c 1
 196 555 l 1
 196 446 l 1
196 354 m 1
 196 -108 l 1
 236 -120 293 -154 325 -154 c 0xbe
 331 -154 338 -152 344 -150 c 1
 344 354 l 1
 196 354 l 1
EndSplineSet
LCarets2: 2 360 600 
Ligature2: "Ligatures-1" f f l
EndChar
